<?xml version="1.0" encoding="utf-8"?>
<!-- Generator: Adobe Illustrator 28.3.0, SVG Export Plug-In . SVG Version: 6.00 Build 0)  -->
<svg version="1.1" id="Layer_1" xmlns="http://www.w3.org/2000/svg" xmlns:xlink="http://www.w3.org/1999/xlink" x="0px" y="0px"
	 viewBox="0 0 800 571.2" style="enable-background:new 0 0 800 571.2;" xml:space="preserve">
<style type="text/css">
	.st0{clip-path:url(#SVGID_00000028295610287166389350000005321875495414274487_);}
	.st1{fill:url(#SVGID_00000174594179843746509400000008694136998963111830_);}
	.st2{fill:url(#SVGID_00000105396894543614798160000002008955977254680253_);}
	.st3{fill:url(#SVGID_00000121995265258588713920000015564574595539366282_);}
	.st4{fill:url(#SVGID_00000100378662766940688180000010616500455323617667_);}
	
		.st5{clip-path:url(#SVGID_00000054223887178112052080000010179150206214077087_);fill:url(#SVGID_00000141444189958825513990000011328922628193998484_);}
	
		.st6{clip-path:url(#SVGID_00000048467106981201381700000005283993329073452418_);fill:url(#SVGID_00000148637046004622694280000004254765933168414345_);}
	
		.st7{clip-path:url(#SVGID_00000127027177988252944140000006855180632544814522_);fill:url(#SVGID_00000091727452033543493630000000657410583008321444_);}
	
		.st8{clip-path:url(#SVGID_00000006689459598090403370000015270358615790641552_);fill:url(#SVGID_00000039817095309444940730000009743151123169384617_);}
	
		.st9{clip-path:url(#SVGID_00000062174278089146494070000018058096700552672946_);fill:url(#SVGID_00000065039305997177787540000003834822091229021105_);}
	
		.st10{clip-path:url(#SVGID_00000116941235254840765830000007453244166051426972_);fill:url(#SVGID_00000081614681333534986510000015285703805633568162_);}
</style>
<g>
	<g>
		<defs>
			<rect id="SVGID_1_" x="71.1" y="-20.4" width="800" height="1200"/>
		</defs>
		<clipPath id="SVGID_00000011004662391019900370000013610417029963739052_">
			<use xlink:href="#SVGID_1_"  style="overflow:visible;"/>
		</clipPath>
		<g style="clip-path:url(#SVGID_00000011004662391019900370000013610417029963739052_);">
			
				<linearGradient id="SVGID_00000128484152234785049100000001251252391187694520_" gradientUnits="userSpaceOnUse" x1="496.7285" y1="1065.6509" x2="1160.5535" y2="1065.6509" gradientTransform="matrix(1 0 0 1 0 -1137.6471)">
				<stop  offset="0" style="stop-color:#0BC1C7"/>
				<stop  offset="1" style="stop-color:#324CFC"/>
			</linearGradient>
			<path style="fill:url(#SVGID_00000128484152234785049100000001251252391187694520_);" d="M1153.1-173.5l-0.4-0.4
				c-9.9-9.9-25.9-9.9-35.8,0l-4.2,4.2c-9.9,9.9-25.9,9.9-35.8,0l-0.4-0.4c-9.9-9.9-25.9-9.9-35.8,0l-38.3,38.3
				c-10,10-26.2,10-36.2,0l0,0c-10-10-10-26.2,0-36.2l56.6-56.6c9.9-9.9,9.9-25.9,0-35.8l-0.4-0.4c-9.9-9.9-25.9-9.9-35.8,0
				L861.8-136.3c-10,10-26.2,10-36.2,0l0,0c-10-10-10-26.2,0-36.2l124.7-124.7c9.9-9.9,9.9-25.9,0-35.8l-0.4-0.4
				c-9.9-9.9-25.9-9.9-35.8,0L628.6-48.1c-10,10-10,26.2,0,36.2l0,0c10,10,10,26.2,0,36.2L504.2,148.8c-10,10-10,26.2,0,36.2l0,0
				c10,10,26.2,10,36.2,0L664.9,60.6c10-10,26.2-10,36.2,0l0,0c10,10,10,26.2,0,36.2l-56.4,56.4c-10,10-10,26.2,0,36.2l0,0
				c10,10,26.2,10,36.2,0l38.1-38.1c10-10,26.2-10,36.2,0l0,0c10,10,26.2,10,36.2,0l3.8-3.8c10-10,26.2-10,36.2,0l0,0
				c10,10,26.2,10,36.2,0l285.5-285.2C1163-147.6,1163-163.7,1153.1-173.5z"/>
			
				<linearGradient id="SVGID_00000070114256941032191400000011879002659538355596_" gradientUnits="userSpaceOnUse" x1="385.6785" y1="972.6634" x2="974.9785" y2="972.6634" gradientTransform="matrix(1 0 0 1 0 -1137.6471)">
				<stop  offset="0" style="stop-color:#3AA1C7"/>
				<stop  offset="1" style="stop-color:#324CFC"/>
			</linearGradient>
			<path style="fill:url(#SVGID_00000070114256941032191400000011879002659538355596_);" d="M680.3-81.6L680.3-81.6
				c9.8,9.8,9.8,25.6,0,35.4l-74.7,74.7c-9.8,9.8-9.8,25.6,0,35.4l0,0c9.8,9.8,9.8,25.6,0,35.4L589.9,115c-9.8,9.8-9.8,25.6,0,35.4
				l0,0c9.8,9.8,25.6,9.8,35.4,0l251.9-251.7c9.8-9.8,9.8-25.6,0-35.4l0,0c-9.8-9.8-9.8-25.6,0-35.4l15.7-15.7
				c9.8-9.8,9.8-25.6,0-35.4l0,0c-9.8-9.8-9.8-25.6,0-35.4l74.7-74.7c9.8-9.8,9.8-25.6,0-35.4l0,0c-9.8-9.8-25.6-9.8-35.4,0
				l-41.9,41.9c-9.8,9.8-25.6,9.8-35.4,0l0,0c-9.8-9.8-25.6-9.8-35.4,0l-54.6,54.6c-9.8,9.8-25.6,9.8-35.4,0l0,0
				c-9.8-9.8-9.8-25.6,0-35.4l21.9-21.9c9.8-9.8,9.8-25.6,0-35.4l0,0c-9.8-9.8-9.8-25.6,0-35.4l44.6-44.6c9.8-9.8,9.8-25.6,0-35.4
				l0,0c-9.8-9.8-25.6-9.8-35.4,0L716-435.7c-9.8,9.8-25.6,9.8-35.4,0l0,0c-9.8-9.8-25.6-9.8-35.4,0L393-184
				c-9.8,9.8-9.8,25.6,0,35.4l0,0c9.8,9.8,25.6,9.8,35.4,0l44.6-44.6c9.8-9.8,25.6-9.8,35.4,0l0,0c9.8,9.8,9.8,25.6,0,35.4
				l-44.6,44.6c-9.8,9.8-9.8,25.6,0,35.4l0,0c9.8,9.8,9.8,25.6,0,35.4L442-20.5c-9.8,9.8-9.8,25.6,0,35.4l0,0
				c9.8,9.8,25.6,9.8,35.4,0l54.7-54.6c9.8-9.8,25.6-9.8,35.4,0l0,0c9.8,9.8,25.6,9.8,35.4,0l41.9-41.9
				C654.6-91.4,670.5-91.4,680.3-81.6z"/>
			
				<linearGradient id="SVGID_00000014613371496255902690000004431514659266926256_" gradientUnits="userSpaceOnUse" x1="783.1285" y1="1334.6134" x2="834.3284" y2="1334.6134" gradientTransform="matrix(1 0 0 1 0 -1137.6471)">
				<stop  offset="0" style="stop-color:#4BF6FA"/>
				<stop  offset="1" style="stop-color:#324CFC"/>
			</linearGradient>
			<circle style="fill:url(#SVGID_00000014613371496255902690000004431514659266926256_);" cx="808.7" cy="197" r="25.6"/>
			
				<linearGradient id="SVGID_00000037680822481960555410000014103592339852813490_" gradientUnits="userSpaceOnUse" x1="589.5284" y1="1349.6471" x2="640.7285" y2="1349.6471" gradientTransform="matrix(1 0 0 1 0 -1137.6471)">
				<stop  offset="0" style="stop-color:#3AA1C7"/>
				<stop  offset="1" style="stop-color:#324CFC"/>
			</linearGradient>
			<circle style="fill:url(#SVGID_00000037680822481960555410000014103592339852813490_);" cx="615.1" cy="212" r="25.6"/>
		</g>
	</g>
	<g>
		<defs>
			<rect id="SVGID_00000077322270825776351880000002529374259923581322_" width="800" height="1200"/>
		</defs>
		<clipPath id="SVGID_00000159459511973910897780000012141462992821375626_">
			<use xlink:href="#SVGID_00000077322270825776351880000002529374259923581322_"  style="overflow:visible;"/>
		</clipPath>
	</g>
	<g>
		<defs>
			<rect id="SVGID_00000078043541605742419790000007590310852186047678_" width="800" height="1200"/>
		</defs>
		<clipPath id="SVGID_00000101100415656408809250000014344560351522826388_">
			<use xlink:href="#SVGID_00000078043541605742419790000007590310852186047678_"  style="overflow:visible;"/>
		</clipPath>
		
			<linearGradient id="SVGID_00000114054995902607377620000011367687408706046124_" gradientUnits="userSpaceOnUse" x1="-107.3" y1="1772.0222" x2="421.325" y2="1772.0222" gradientTransform="matrix(1 0 0 1 0 -1137.6471)">
			<stop  offset="0" style="stop-color:#324CFC"/>
			<stop  offset="1" style="stop-color:#4BF6FA"/>
		</linearGradient>
		
			<path style="clip-path:url(#SVGID_00000101100415656408809250000014344560351522826388_);fill:url(#SVGID_00000114054995902607377620000011367687408706046124_);" d="
			M30.1,870.9l26.1-26.1c10-10,26.2-10,36.2,0l0,0c10,10,26.2,10,36.2,0l285.3-285.3c9.9-9.9,9.9-25.9,0-35.8l-0.4-0.4
			c-9.9-9.9-25.9-9.9-35.8,0l-26.4,26.4c-10,10-26.2,10-36.2,0l0,0c-10-10-10-26.2,0-36.2l7.6-7.6c9.9-9.9,9.9-25.9,0-35.8l-0.4-0.4
			c-9.9-9.9-9.9-25.9,0-35.8l0,0c9.9-9.9,9.9-25.9,0-35.8l-0.4-0.4c-9.9-9.9-25.9-9.9-35.8,0l-28.6,28.6c-9.9,9.9-25.9,9.9-35.8,0
			l-0.4-0.4c-9.9-9.9-25.9-9.9-35.8,0L-99.8,711c-10,10-10,26.2,0,36.2l0,0c10,10,26.2,10,36.2,0l28.6-28.6c9.8-9.8,25.6-9.8,35.4,0
			l0.9,0.9c9.8,9.8,9.8,25.6,0,35.4l0,0c-10,10-10,26.2,0,36.2l0,0c10,10,10,26.2,0,36.2l-7.4,7.4c-10,10-10,26.2,0,36.2l0,0
			C3.9,881,20.1,881,30.1,870.9z"/>
	</g>
	<g>
		<defs>
			<rect id="SVGID_00000044894953709349980130000002294729305359058106_" x="-21" y="212" width="800" height="1200"/>
		</defs>
		<clipPath id="SVGID_00000003077226780174607590000001946251014284857769_">
			<use xlink:href="#SVGID_00000044894953709349980130000002294729305359058106_"  style="overflow:visible;"/>
		</clipPath>
		
			<linearGradient id="SVGID_00000177457409804354541860000014947065279903938477_" gradientUnits="userSpaceOnUse" x1="-445.5" y1="1925.6221" x2="213.2501" y2="1925.6221" gradientTransform="matrix(1 0 0 1 0 -1137.6471)">
			<stop  offset="0" style="stop-color:#324CFC"/>
			<stop  offset="1" style="stop-color:#3AA1C7"/>
		</linearGradient>
		
			<path style="clip-path:url(#SVGID_00000003077226780174607590000001946251014284857769_);fill:url(#SVGID_00000177457409804354541860000014947065279903938477_);" d="
			M-298.2,859L-438,998.8c-10,10-10,26.2,0,36.2l0,0c10,10,26.2,10,36.2,0l55.7-55.7c10-10,26.2-10,36.2,0l0,0c10,10,10,26.2,0,36.2
			l-78.4,78.4c-10,10-10,26.2,0,36.2l0,0c10,10,26.2,10,36.2,0l16.2-16.2c10-10,26.2-10,36.2,0l0,0c10,10,26.2,10,36.2,0l34.5-34.5
			c10-10,26.2-10,36.2,0l0.9,0.9c9.5,9.5,9.5,25,0,34.5l0,0c-10,10-10,26.2,0,36.2l0,0c10,10,26.2,10,36.2,0l361.6-361.6
			c9.8-9.8,9.8-25.6,0-35.4l-0.9-0.9c-9.8-9.8-9.8-25.6,0-35.4l0,0c9.8-9.8,9.8-25.6,0-35.4l-0.9-0.9c-9.8-9.8-25.6-9.8-35.4,0
			l-35,35.6c-9.8,9.8-25.6,9.8-35.4,0l-0.9-0.9c-9.8-9.8-25.6-9.8-35.4,0l-16.7,16.7c-10,10-26.2,10-36.2,0l0,0
			c-10-10-10-26.2,0-36.2l78.8-78.8c9.8-9.8,9.8-25.6,0-35.4l-0.9-0.9c-9.8-9.8-25.6-9.8-35.4,0l-56.1,56.1c-10,10-26.2,10-36.2,0
			l0,0c-10-10-10-26.2,0-36.2L99.6,461.1c9.8-9.8,9.8-25.6,0-35.4l-0.9-0.9c-9.8-9.8-25.6-9.8-35.4,0l-361.6,361.6
			c-10,10-10,26.2,0,36.2l0,0C-288.2,832.8-288.2,849-298.2,859z"/>
	</g>
	<g>
		<defs>
			<rect id="SVGID_00000160151848320702787850000004230400093525429144_" width="800" height="1200"/>
		</defs>
		<clipPath id="SVGID_00000085950211792126389400000001625813098551154590_">
			<use xlink:href="#SVGID_00000160151848320702787850000004230400093525429144_"  style="overflow:visible;"/>
		</clipPath>
		
			<linearGradient id="SVGID_00000169541595362034292140000015469891143833879722_" gradientUnits="userSpaceOnUse" x1="107.2" y1="1482.5471" x2="158.4" y2="1482.5471" gradientTransform="matrix(1 0 0 1 0 -1137.6471)">
			<stop  offset="0" style="stop-color:#4BF6FA"/>
			<stop  offset="1" style="stop-color:#324CFC"/>
		</linearGradient>
		
			<circle style="clip-path:url(#SVGID_00000085950211792126389400000001625813098551154590_);fill:url(#SVGID_00000169541595362034292140000015469891143833879722_);" cx="132.8" cy="344.9" r="25.6"/>
	</g>
	<g>
		<defs>
			<rect id="SVGID_00000114779090934483795570000016305119037655931058_" width="800" height="1200"/>
		</defs>
		<clipPath id="SVGID_00000080175506639272855310000011525353567116669883_">
			<use xlink:href="#SVGID_00000114779090934483795570000016305119037655931058_"  style="overflow:visible;"/>
		</clipPath>
		
			<linearGradient id="SVGID_00000058558738848083832970000001611823386913403313_" gradientUnits="userSpaceOnUse" x1="7.741" y1="1174.847" x2="58.941" y2="1174.847" gradientTransform="matrix(1 0 0 1 0 -1137.6471)">
			<stop  offset="0" style="stop-color:#3AA1C7"/>
			<stop  offset="1" style="stop-color:#324CFC"/>
		</linearGradient>
		
			<circle style="clip-path:url(#SVGID_00000080175506639272855310000011525353567116669883_);fill:url(#SVGID_00000058558738848083832970000001611823386913403313_);" cx="33.4" cy="37.2" r="25.6"/>
	</g>
	<g>
		<defs>
			<rect id="SVGID_00000062903844730726863190000005973194315161644958_" width="800" height="1200"/>
		</defs>
		<clipPath id="SVGID_00000076584759525136751050000008117300180576514975_">
			<use xlink:href="#SVGID_00000062903844730726863190000005973194315161644958_"  style="overflow:visible;"/>
		</clipPath>
		
			<linearGradient id="SVGID_00000000928163604443739880000015206050086370004872_" gradientUnits="userSpaceOnUse" x1="-325.7315" y1="2297.0161" x2="337.9564" y2="2297.0161" gradientTransform="matrix(0 1 1 0 -1838.6785 701.0315)">
			<stop  offset="0" style="stop-color:#3AA1C7"/>
			<stop  offset="1" style="stop-color:#324CFC"/>
		</linearGradient>
		
			<path style="clip-path:url(#SVGID_00000076584759525136751050000008117300180576514975_);fill:url(#SVGID_00000000928163604443739880000015206050086370004872_);" d="
			M356.7,1031.6l-0.4-0.4c-9.9-9.9-9.9-25.9,0-35.8l4.2-4.2c9.9-9.9,9.9-25.9,0-35.8l-0.4-0.4c-9.9-9.9-9.9-25.9,0-35.8l38.3-38.3
			c10-10,10-26.2,0-36.2l0,0c-10-10-26.2-10-36.2,0l-56.6,56.6c-9.9,9.9-25.9,9.9-35.8,0l-0.4-0.4c-9.9-9.9-9.9-25.9,0-35.8
			L394,740.2c10-10,10-26.2,0-36.2l0,0c-10-10-26.2-10-36.2,0L233.1,828.7c-9.9,9.9-25.9,9.9-35.8,0l-0.4-0.4
			c-9.9-9.9-9.9-25.9,0-35.8l285.3-285.3c10-10,26.2-10,36.2,0l0,0c10,10,26.2,10,36.2,0L679,382.8c10-10,26.2-10,36.2,0l0,0
			c10,10,10,26.2,0,36.2L590.9,543.3c-10,10-10,26.2,0,36.2l0,0c10,10,26.2,10,36.2,0l56.4-56.4c10-10,26.2-10,36.2,0l0,0
			c10,10,10,26.2,0,36.2l-38.1,38.1c-10,10-10,26.2,0,36.2l0,0c10,10,10,26.2,0,36.2l-3.8,3.8c-10,10-10,26.2,0,36.2l0,0
			c10,10,10,26.2,0,36.2l-285.3,285.3C382.7,1041.5,366.6,1041.5,356.7,1031.6z"/>
	</g>
	<g>
		<defs>
			<rect id="SVGID_00000099636182746287209580000011147197036314084236_" width="800" height="1200"/>
		</defs>
		<clipPath id="SVGID_00000060002849756364835460000005219684834716732843_">
			<use xlink:href="#SVGID_00000099636182746287209580000011147197036314084236_"  style="overflow:visible;"/>
		</clipPath>
		
			<linearGradient id="SVGID_00000131365315120019058890000005347548016157394324_" gradientUnits="userSpaceOnUse" x1="514" y1="1613.0471" x2="565.2" y2="1613.0471" gradientTransform="matrix(1 0 0 1 0 -1137.6471)">
			<stop  offset="0" style="stop-color:#4BF6FA"/>
			<stop  offset="1" style="stop-color:#324CFC"/>
		</linearGradient>
		
			<circle style="clip-path:url(#SVGID_00000060002849756364835460000005219684834716732843_);fill:url(#SVGID_00000131365315120019058890000005347548016157394324_);" cx="539.6" cy="475.4" r="25.6"/>
	</g>
</g>
</svg>
