<?xml version="1.0" encoding="UTF-8"?><svg id="Layer_1" xmlns="http://www.w3.org/2000/svg" viewBox="0 0 1080 1080"><defs><style>.cls-1{fill:#2672ab;}.cls-1,.cls-2,.cls-3,.cls-4,.cls-5{stroke-width:0px;}.cls-6{font-family:Poppins-Light, Poppins;font-size:64.52px;font-weight:300;letter-spacing:.5em;}.cls-6,.cls-7{fill:#c16b6b;}.cls-2{fill:#0ba19f;}.cls-3{fill:#d1ebff;}.cls-4{fill:#72b5e8;}.cls-7{font-family:Poppins-Black, Poppins;font-size:77.66px;font-weight:800;letter-spacing:.05em;}.cls-5{fill:#3ecfcd;}</style></defs><text class="cls-7" transform="translate(100.98 870.21)"><tspan x="0" y="0">PENJUALAN PRODUK</tspan><tspan x="221.25" y="93.19">STATISTIK</tspan></text><text class="cls-6" transform="translate(301.69 774.51)"><tspan x="0" y="0">LAYANAN</tspan></text><path class="cls-4" d="M443.36,496.16l-75.22-43.01c-20.78-11.88-18.27-32.8,5.61-46.72l62.34-36.34c23.88-13.92,60.08-15.57,80.86-3.69l75.22,43.01c20.78,11.88,18.27,32.8-5.61,46.72l-62.34,36.34c-23.88,13.92-60.08,15.57-80.86,3.69Z"/><path class="cls-4" d="M584.3,571.84l-75.22-43.01c-20.78-11.88-18.27-32.8,5.61-46.72l62.34-36.34c23.88-13.92,60.08-15.57,80.86-3.69l75.22,43.01c20.78,11.88,18.27,32.8-5.61,46.72l-62.34,36.34c-23.88,13.92-60.08,15.57-80.86,3.69Z"/><path class="cls-4" d="M422.42,656.7l-75.22-43.01c-20.78-11.88-18.27-32.8,5.61-46.72l62.34-36.34c23.88-13.92,60.08-15.57,80.86-3.69l75.22,43.01c20.78,11.88,18.27,32.8-5.61,46.72l-62.34,36.34c-23.88,13.92-60.08,15.57-80.86,3.69Z"/><path class="cls-4" d="M443.21,458.52l-75.22-43.01c-20.78-11.88-18.27-32.8,5.61-46.72l62.34-36.34c23.88-13.92,60.08-15.57,80.86-3.69l75.22,43.01c20.78,11.88,18.27,32.8-5.61,46.72l-62.34,36.34c-23.88,13.92-60.08,15.57-80.86,3.69Z"/><path class="cls-4" d="M354,394h-.04s0,.97,0,.97c0-.32.02-.64.04-.97Z"/><path class="cls-1" d="M586.41,418.49l-62.34,36.34c-23.88,13.92-60.08,15.57-80.86,3.69l-75.22-43.01c-8.94-5.11-13.54-11.9-14.01-19.08l.1,23.82c-.54,8.09,4.06,15.86,14.02,21.56l75.22,43.01c20.78,11.88,56.98,10.23,80.86-3.69l62.34-36.34c12.34-7.19,18.96-16.26,19.62-24.97v-.18c.07-.89.07-1.78,0-2.67l-.1-24.03c-.41,8.89-7.02,18.19-19.63,25.54Z"/><path class="cls-4" d="M354,394h-.04s0,.97,0,.97c0-.32.02-.64.04-.97Z"/><path class="cls-1" d="M443.21,458.52l-75.22-43.01c-8.94-5.11-13.54-11.9-14.01-19.08l.1,23.82c-.54,8.09,4.06,15.86,14.02,21.56l75.22,43.01-.11-26.31Z"/><path class="cls-3" d="M586.39,415.21l-62.34,36.34c-23.88,13.92-60.08,15.57-80.86,3.69l-75.22-43.01c-8.75-5-13.32-11.61-13.95-18.62-.69,8.21,3.86,16.13,13.97,21.91l75.22,43.01c20.78,11.88,56.98,10.23,80.86-3.69l62.34-36.34c13.82-8.06,20.43-18.45,19.56-28.09-.73,8.67-7.32,17.66-19.58,24.8Z"/><path class="cls-4" d="M443.05,421.47l-75.22-43.01c-20.78-11.88-18.27-32.8,5.61-46.72l62.34-36.34c23.88-13.92,60.08-15.57,80.86-3.69l75.22,43.01c20.78,11.88,18.27,32.8-5.61,46.72l-62.34,36.34c-23.88,13.92-60.08,15.57-80.86,3.69Z"/><path class="cls-4" d="M353.85,356.95h-.04s0,.97,0,.97c0-.32.02-.64.04-.97Z"/><path class="cls-1" d="M586.25,381.44l-62.34,36.34c-23.88,13.92-60.08,15.57-80.86,3.69l-75.22-43.01c-8.94-5.11-13.54-11.9-14.01-19.08l.1,23.82c-.54,8.09,4.06,15.86,14.02,21.56l75.22,43.01c20.78,11.88,56.98,10.23,80.86-3.69l62.34-36.34c12.34-7.19,18.96-16.26,19.62-24.97v-.18c.07-.89.07-1.78,0-2.67l-.1-24.03c-.41,8.89-7.02,18.19-19.63,25.54Z"/><path class="cls-4" d="M353.85,356.95h-.04s0,.97,0,.97c0-.32.02-.64.04-.97Z"/><path class="cls-1" d="M443.05,421.47l-75.22-43.01c-8.94-5.11-13.54-11.9-14.01-19.08l.1,23.82c-.54,8.09,4.06,15.86,14.02,21.56l75.22,43.01-.11-26.31Z"/><path class="cls-3" d="M586.24,378.15l-62.34,36.34c-23.88,13.92-60.08,15.57-80.86,3.69l-75.22-43.01c-8.75-5-13.32-11.61-13.95-18.62-.69,8.21,3.86,16.13,13.97,21.91l75.22,43.01c20.78,11.88,56.98,10.23,80.86-3.69l62.34-36.34c13.82-8.06,20.43-18.45,19.56-28.09-.73,8.67-7.32,17.65-19.58,24.8Z"/><path class="cls-4" d="M442.9,384.2l-75.22-43.01c-20.78-11.88-18.27-32.8,5.61-46.72l62.34-36.34c23.88-13.92,60.08-15.57,80.86-3.69l75.22,43.01c20.78,11.88,18.27,32.8-5.61,46.72l-62.34,36.34c-23.88,13.92-60.08,15.57-80.86,3.69Z"/><path class="cls-4" d="M353.69,319.68h-.04s0,.97,0,.97c0-.32.02-.64.04-.97Z"/><path class="cls-1" d="M586.1,344.17l-62.34,36.34c-23.88,13.92-60.08,15.57-80.86,3.69l-75.22-43.01c-8.94-5.11-13.54-11.9-14.01-19.08l.1,23.82c-.54,8.09,4.06,15.86,14.02,21.56l75.22,43.01c20.78,11.88,56.98,10.23,80.86-3.69l62.34-36.34c12.34-7.19,18.96-16.26,19.62-24.97v-.18c.07-.89.07-1.78,0-2.67l-.1-24.03c-.41,8.89-7.02,18.19-19.63,25.54Z"/><path class="cls-4" d="M353.69,319.68h-.04s0,.97,0,.97c0-.32.02-.64.04-.97Z"/><path class="cls-1" d="M442.9,384.2l-75.22-43.01c-8.94-5.11-13.54-11.9-14.01-19.08l.1,23.82c-.54,8.09,4.06,15.86,14.02,21.56l75.22,43.01-.11-26.31Z"/><path class="cls-3" d="M586.08,340.88l-62.34,36.34c-23.88,13.92-60.08,15.57-80.86,3.69l-75.22-43.01c-8.75-5-13.32-11.61-13.95-18.62-.69,8.21,3.86,16.13,13.97,21.91l75.22,43.01c20.78,11.88,56.98,10.23,80.86-3.69l62.34-36.34c13.82-8.06,20.43-18.45,19.56-28.09-.73,8.67-7.32,17.65-19.58,24.8Z"/><path class="cls-4" d="M442.75,348.03l-75.22-43.01c-20.78-11.88-18.27-32.8,5.61-46.72l62.34-36.34c23.88-13.92,60.08-15.57,80.86-3.69l75.22,43.01c20.78,11.88,18.27,32.8-5.61,46.72l-62.34,36.34c-23.88,13.92-60.08,15.57-80.86,3.69Z"/><path class="cls-4" d="M353.54,283.51h-.04s0,.97,0,.97c0-.32.02-.64.04-.97Z"/><path class="cls-1" d="M585.95,308l-62.34,36.34c-23.88,13.92-60.08,15.57-80.86,3.69l-75.22-43.01c-8.94-5.11-13.54-11.9-14.01-19.08l.1,23.82c-.54,8.09,4.06,15.86,14.02,21.56l75.22,43.01c20.78,11.88,56.98,10.23,80.86-3.69l62.34-36.34c12.34-7.19,18.96-16.26,19.62-24.97v-.18c.07-.89.07-1.78,0-2.67l-.1-24.03c-.41,8.89-7.02,18.19-19.63,25.54Z"/><path class="cls-4" d="M353.54,283.51h-.04s0,.97,0,.97c0-.32.02-.64.04-.97Z"/><path class="cls-1" d="M442.75,348.03l-75.22-43.01c-8.94-5.11-13.54-11.9-14.01-19.08l.1,23.82c-.54,8.09,4.06,15.86,14.02,21.56l75.22,43.01-.11-26.31Z"/><path class="cls-3" d="M585.93,304.71l-62.34,36.34c-23.88,13.92-60.08,15.57-80.86,3.69l-75.22-43.01c-8.75-5-13.32-11.61-13.95-18.62-.69,8.21,3.86,16.13,13.97,21.91l75.22,43.01c20.78,11.88,56.98,10.23,80.86-3.69l62.34-36.34c13.82-8.06,20.43-18.45,19.56-28.09-.73,8.67-7.32,17.65-19.58,24.8Z"/><path class="cls-4" d="M442.59,310.76l-75.22-43.01c-20.78-11.88-18.27-32.8,5.61-46.72l62.34-36.34c23.88-13.92,60.08-15.57,80.86-3.69l75.22,43.01c20.78,11.88,18.27,32.8-5.61,46.72l-62.34,36.34c-23.88,13.92-60.08,15.57-80.86,3.69Z"/><path class="cls-4" d="M353.38,246.24h-.04s0,.97,0,.97c0-.32.02-.64.04-.97Z"/><path class="cls-1" d="M585.79,270.73l-62.34,36.34c-23.88,13.92-60.08,15.57-80.86,3.69l-75.22-43.01c-8.94-5.11-13.54-11.9-14.01-19.08l.1,23.82c-.54,8.09,4.06,15.86,14.02,21.56l75.22,43.01c20.78,11.88,56.98,10.23,80.86-3.69l62.34-36.34c12.34-7.19,18.96-16.26,19.62-24.97v-.18c.07-.89.07-1.78,0-2.67l-.1-24.03c-.41,8.89-7.02,18.19-19.63,25.54Z"/><path class="cls-4" d="M353.38,246.24h-.04s0,.97,0,.97c0-.32.02-.64.04-.97Z"/><path class="cls-1" d="M442.59,310.76l-75.22-43.01c-8.94-5.11-13.54-11.9-14.01-19.08l.1,23.82c-.54,8.09,4.06,15.86,14.02,21.56l75.22,43.01-.11-26.31Z"/><path class="cls-3" d="M585.78,267.44l-62.34,36.34c-23.88,13.92-60.08,15.57-80.86,3.69l-75.22-43.01c-8.75-5-13.32-11.61-13.95-18.62-.69,8.21,3.86,16.13,13.97,21.91l75.22,43.01c20.78,11.88,56.98,10.23,80.86-3.69l62.34-36.34c13.82-8.06,20.43-18.45,19.56-28.09-.73,8.67-7.32,17.65-19.58,24.8Z"/><path class="cls-4" d="M442.44,273.63l-75.22-43.01c-20.78-11.88-18.27-32.8,5.61-46.72l62.34-36.34c23.88-13.92,60.08-15.57,80.86-3.69l75.22,43.01c20.78,11.88,18.27,32.8-5.61,46.72l-62.34,36.34c-23.88,13.92-60.08,15.57-80.86,3.69Z"/><path class="cls-4" d="M353.23,209.11h-.04s0,.97,0,.97c0-.32.02-.64.04-.97Z"/><path class="cls-1" d="M585.64,233.6l-62.34,36.34c-23.88,13.92-60.08,15.57-80.86,3.69l-75.22-43.01c-8.94-5.11-13.54-11.9-14.01-19.08l.1,23.82c-.54,8.09,4.06,15.86,14.02,21.56l75.22,43.01c20.78,11.88,56.98,10.23,80.86-3.69l62.34-36.34c12.34-7.19,18.96-16.26,19.62-24.97v-.18c.07-.89.07-1.78,0-2.67l-.1-24.03c-.41,8.89-7.02,18.19-19.63,25.54Z"/><path class="cls-4" d="M353.23,209.11h-.04s0,.97,0,.97c0-.32.02-.64.04-.97Z"/><path class="cls-1" d="M442.44,273.63l-75.22-43.01c-8.94-5.11-13.54-11.9-14.01-19.08l.1,23.82c-.54,8.09,4.06,15.86,14.02,21.56l75.22,43.01-.11-26.31Z"/><path class="cls-3" d="M585.62,230.31l-62.34,36.34c-23.88,13.92-60.08,15.57-80.86,3.69l-75.22-43.01c-8.75-5-13.32-11.61-13.95-18.62-.69,8.21,3.86,16.13,13.97,21.91l75.22,43.01c20.78,11.88,56.98,10.23,80.86-3.69l62.34-36.34c13.82-8.06,20.43-18.45,19.56-28.09-.73,8.67-7.32,17.65-19.58,24.8Z"/><path class="cls-5" d="M584.14,534.2l-75.22-43.01c-20.78-11.88-18.27-32.8,5.61-46.72l62.34-36.34c23.88-13.92,60.08-15.57,80.86-3.69l75.22,43.01c20.78,11.88,18.27,32.8-5.61,46.72l-62.34,36.34c-23.88,13.92-60.08,15.57-80.86,3.69Z"/><path class="cls-2" d="M494.94,469.68h-.04s0,.97,0,.97c0-.32.02-.64.04-.97Z"/><path class="cls-2" d="M727.35,494.17l-62.34,36.34c-23.88,13.92-60.08,15.57-80.86,3.69l-75.22-43.01c-8.94-5.11-13.54-11.9-14.01-19.08l.1,23.82c-.54,8.09,4.06,15.86,14.02,21.56l75.22,43.01c20.78,11.88,56.98,10.23,80.86-3.69l62.34-36.34c12.34-7.19,18.96-16.26,19.62-24.97v-.18c.07-.89.07-1.78,0-2.67l-.1-24.03c-.41,8.89-7.02,18.19-19.63,25.54Z"/><path class="cls-4" d="M494.94,469.68h-.04s0,.97,0,.97c0-.32.02-.64.04-.97Z"/><path class="cls-2" d="M584.14,534.2l-75.22-43.01c-8.94-5.11-13.54-11.9-14.01-19.08l.1,23.82c-.54,8.09,4.06,15.86,14.02,21.56l75.22,43.01-.11-26.31Z"/><path class="cls-3" d="M727.33,490.88l-62.34,36.34c-23.88,13.92-60.08,15.57-80.86,3.69l-75.22-43.01c-8.75-5-13.32-11.61-13.95-18.62-.69,8.21,3.86,16.13,13.97,21.91l75.22,43.01c20.78,11.88,56.98,10.23,80.86-3.69l62.34-36.34c13.82-8.06,20.43-18.45,19.56-28.09-.73,8.67-7.32,17.65-19.58,24.8Z"/><path class="cls-5" d="M583.99,496.2l-75.22-43.01c-20.78-11.88-18.27-32.8,5.61-46.72l62.34-36.34c23.88-13.92,60.08-15.57,80.86-3.69l75.22,43.01c20.78,11.88,18.27,32.8-5.61,46.72l-62.34,36.34c-23.88,13.92-60.08,15.57-80.86,3.69Z"/><path class="cls-4" d="M494.78,431.68h-.04s0,.97,0,.97c0-.32.02-.64.04-.97Z"/><path class="cls-2" d="M727.19,456.17l-62.34,36.34c-23.88,13.92-60.08,15.57-80.86,3.69l-75.22-43.01c-8.94-5.11-13.54-11.9-14.01-19.08l.1,23.82c-.54,8.09,4.06,15.86,14.02,21.56l75.22,43.01c20.78,11.88,56.98,10.23,80.86-3.69l62.34-36.34c12.34-7.19,18.96-16.26,19.62-24.97v-.18c.07-.89.07-1.78,0-2.67l-.1-24.03c-.41,8.89-7.02,18.19-19.63,25.54Z"/><path class="cls-4" d="M494.78,431.68h-.04s0,.97,0,.97c0-.32.02-.64.04-.97Z"/><path class="cls-2" d="M583.99,496.2l-75.22-43.01c-8.94-5.11-13.54-11.9-14.01-19.08l.1,23.82c-.54,8.09,4.06,15.86,14.02,21.56l75.22,43.01-.11-26.31Z"/><path class="cls-3" d="M727.17,452.88l-62.34,36.34c-23.88,13.92-60.08,15.57-80.86,3.69l-75.22-43.01c-8.75-5-13.32-11.61-13.95-18.62-.69,8.21,3.86,16.13,13.97,21.91l75.22,43.01c20.78,11.88,56.98,10.23,80.86-3.69l62.34-36.34c13.82-8.06,20.43-18.45,19.56-28.09-.73,8.67-7.32,17.66-19.58,24.8Z"/><path class="cls-5" d="M583.83,458.2l-75.22-43.01c-20.78-11.88-18.27-32.8,5.61-46.72l62.34-36.34c23.88-13.92,60.08-15.57,80.86-3.69l75.22,43.01c20.78,11.88,18.27,32.8-5.61,46.72l-62.34,36.34c-23.88,13.92-60.08,15.57-80.86,3.69Z"/><path class="cls-4" d="M494.62,393.68h-.04s0,.97,0,.97c0-.32.02-.64.04-.97Z"/><path class="cls-2" d="M727.03,418.17l-62.34,36.34c-23.88,13.92-60.08,15.57-80.86,3.69l-75.22-43.01c-8.94-5.11-13.54-11.9-14.01-19.08l.1,23.82c-.54,8.09,4.06,15.86,14.02,21.56l75.22,43.01c20.78,11.88,56.98,10.23,80.86-3.69l62.34-36.34c12.34-7.19,18.96-16.26,19.62-24.97v-.18c.07-.89.07-1.78,0-2.67l-.1-24.03c-.41,8.89-7.02,18.19-19.63,25.54Z"/><path class="cls-4" d="M494.62,393.68h-.04s0,.97,0,.97c0-.32.02-.64.04-.97Z"/><path class="cls-2" d="M583.83,458.2l-75.22-43.01c-8.94-5.11-13.54-11.9-14.01-19.08l.1,23.82c-.54,8.09,4.06,15.86,14.02,21.56l75.22,43.01-.11-26.31Z"/><path class="cls-3" d="M727.02,414.88l-62.34,36.34c-23.88,13.92-60.08,15.57-80.86,3.69l-75.22-43.01c-8.75-5-13.32-11.61-13.95-18.62-.69,8.21,3.86,16.13,13.97,21.91l75.22,43.01c20.78,11.88,56.98,10.23,80.86-3.69l62.34-36.34c13.82-8.06,20.43-18.45,19.56-28.09-.73,8.67-7.32,17.66-19.58,24.8Z"/><path class="cls-3" d="M608.46,349.26l6.72,47.48,82.3,3.42v.04c-.35-1.49-1.48-2.93-3.47-4.07l-78.52-44.9c-2-1.14-4.5-1.78-7.08-1.97h.07Z"/><path class="cls-3" d="M697.5,400.22l-88.8.37-.06-14.6-59.01-2.45s-.02-.04-.03-.09l58.93-.25-.14-33.96c-3.6-.23-7.52.42-10.27,2.02l-45.84,26.72c-4.77,2.78-4.72,7.26.1,10.02l78.52,44.9c4.82,2.76,12.59,2.74,17.35-.04l45.84-26.72c2.75-1.6,3.84-3.85,3.4-5.92ZM638.65,434.45l-4.81-33.99,4.73-.02.14,34.03c-.08,0,.02,0-.06-.01Z"/><path class="cls-4" d="M422.26,619.06l-75.22-43.01c-20.78-11.88-18.27-32.8,5.61-46.72l62.34-36.34c23.88-13.92,60.08-15.57,80.86-3.69l75.22,43.01c20.78,11.88,18.27,32.8-5.61,46.72l-62.34,36.34c-23.88,13.92-60.08,15.57-80.86,3.69Z"/><path class="cls-4" d="M333.05,554.54h-.04s0,.97,0,.97c0-.32.02-.64.04-.97Z"/><path class="cls-1" d="M565.46,579.03l-62.34,36.34c-23.88,13.92-60.08,15.57-80.86,3.69l-75.22-43.01c-8.94-5.11-13.54-11.9-14.01-19.08l.1,23.82c-.54,8.09,4.06,15.86,14.02,21.56l75.22,43.01c20.78,11.88,56.98,10.23,80.86-3.69l62.34-36.34c12.34-7.19,18.96-16.26,19.62-24.97v-.18c.07-.89.07-1.78,0-2.67l-.1-24.03c-.41,8.89-7.02,18.19-19.63,25.54Z"/><path class="cls-4" d="M333.05,554.54h-.04s0,.97,0,.97c0-.32.02-.64.04-.97Z"/><path class="cls-1" d="M422.26,619.06l-75.22-43.01c-8.94-5.11-13.54-11.9-14.01-19.08l.1,23.82c-.54,8.09,4.06,15.86,14.02,21.56l75.22,43.01-.11-26.31Z"/><path class="cls-3" d="M565.45,575.74l-62.34,36.34c-23.88,13.92-60.08,15.57-80.86,3.69l-75.22-43.01c-8.75-5-13.32-11.61-13.95-18.62-.69,8.21,3.86,16.13,13.97,21.91l75.22,43.01c20.78,11.88,56.98,10.23,80.86-3.69l62.34-36.34c13.82-8.06,20.43-18.45,19.56-28.09-.73,8.67-7.32,17.66-19.58,24.8Z"/><path class="cls-3" d="M504.35,535.57c-.14-14.39-20.46-26.02-45.39-25.96-24.93.06-45.03,11.78-44.89,26.17.13,13.17,17.19,23.99,39.19,25.7l.03,7.3c-4.17.66-7.15,2.84-7.12,5.45l.1,24.9c.03,3.12,4.5,5.64,9.9,5.63l7.4-.03c5.4-.01,9.69-2.54,9.66-5.66l-.1-24.91c-.03-2.61-3.22-4.78-7.4-5.42l-.03-7.3c21.97-1.81,38.79-12.71,38.66-25.88ZM459.37,552.85c-16.42.04-29.81-7.62-29.9-17.1-.09-9.48,13.15-17.2,29.57-17.24,16.42-.04,29.81,7.62,29.9,17.1.09,9.48-13.15,17.2-29.57,17.24Z"/><path class="cls-4" d="M422.11,582.89l-75.22-43.01c-20.78-11.88-18.27-32.8,5.61-46.72l62.34-36.34c23.88-13.92,60.08-15.57,80.86-3.69l75.22,43.01c20.78,11.88,18.27,32.8-5.61,46.72l-62.34,36.34c-23.88,13.92-60.08,15.57-80.86,3.69Z"/><path class="cls-4" d="M332.9,518.37h-.04s0,.97,0,.97c0-.32.02-.64.04-.97Z"/><path class="cls-1" d="M565.31,542.86l-62.34,36.34c-23.88,13.92-60.08,15.57-80.86,3.69l-75.22-43.01c-8.94-5.11-13.54-11.9-14.01-19.08l.1,23.82c-.54,8.09,4.06,15.86,14.02,21.56l75.22,43.01c20.78,11.88,56.98,10.23,80.86-3.69l62.34-36.34c12.34-7.19,18.96-16.26,19.62-24.97v-.18c.07-.89.07-1.78,0-2.67l-.1-24.03c-.41,8.89-7.02,18.19-19.63,25.54Z"/><path class="cls-4" d="M332.9,518.37h-.04s0,.97,0,.97c0-.32.02-.64.04-.97Z"/><path class="cls-1" d="M422.11,582.89l-75.22-43.01c-8.94-5.11-13.54-11.9-14.01-19.08l.1,23.82c-.54,8.09,4.06,15.86,14.02,21.56l75.22,43.01-.11-26.31Z"/><path class="cls-3" d="M565.3,539.57l-62.34,36.34c-23.88,13.92-60.08,15.57-80.86,3.69l-75.22-43.01c-8.75-5-13.32-11.61-13.95-18.62-.69,8.21,3.86,16.13,13.97,21.91l75.22,43.01c20.78,11.88,56.98,10.23,80.86-3.69l62.34-36.34c13.82-8.06,20.43-18.45,19.56-28.09-.73,8.67-7.32,17.65-19.58,24.8Z"/><path class="cls-3" d="M504.2,499.4c-.14-14.39-20.46-26.02-45.39-25.96-24.93.06-45.03,11.77-44.89,26.17.13,13.17,17.19,23.99,39.19,25.7l.03,7.3c-4.17.65-7.15,2.84-7.12,5.45l.1,24.91c.03,3.12,4.5,5.64,9.9,5.63l7.4-.03c5.4-.01,9.69-2.54,9.66-5.66l-.1-24.91c-.03-2.61-3.22-4.78-7.4-5.42l-.03-7.3c21.97-1.8,38.79-12.71,38.66-25.88ZM459.22,516.67c-16.42.04-29.81-7.62-29.9-17.1-.09-9.48,13.15-17.2,29.57-17.24,16.42-.04,29.81,7.62,29.9,17.1.09,9.48-13.15,17.2-29.57,17.24Z"/><polygon class="cls-3" points="394.29 209.76 415.13 221.68 452.7 199.77 431.86 187.86 394.29 209.76"/><polygon class="cls-3" points="421.45 225.29 442.29 237.21 508.14 198.83 487.29 186.91 421.45 225.29"/><polygon class="cls-3" points="542.73 185.96 448.61 240.82 469.45 252.74 563.57 197.87 542.73 185.96"/></svg>