<?xml version="1.0" encoding="UTF-8"?><svg id="Layer_1" xmlns="http://www.w3.org/2000/svg" viewBox="0 0 1080 1080"><defs><style>.cls-1{fill:#000;}.cls-1,.cls-2,.cls-3,.cls-4,.cls-5,.cls-6,.cls-7,.cls-8,.cls-9,.cls-10,.cls-11,.cls-12{stroke-width:0px;}.cls-2{fill:#c78976;}.cls-3{fill:#e1e1e1;}.cls-13{opacity:.5;}.cls-14{font-family:Poppins-Light, Poppins;font-size:64.52px;font-weight:300;letter-spacing:.5em;}.cls-14,.cls-15{fill:#c16b6b;}.cls-15{font-family:Poppins-Black, Poppins;font-size:90.42px;font-weight:800;letter-spacing:.05em;}.cls-4{fill:#ffbf9d;}.cls-5{fill:#bf654e;}.cls-6{fill:#ff4f5b;}.cls-16{opacity:.4;}.cls-17{opacity:.3;}.cls-7{fill:#ececec;}.cls-8{fill:#375a64;}.cls-9{fill:#fff;}.cls-10{fill:#fafafa;}.cls-11{fill:#ff9a6c;}.cls-12{fill:#1a2e35;}</style></defs><text class="cls-15" transform="translate(230.22 880.32)"><tspan x="0" y="0">KONSULTASI</tspan><tspan x="58.23" y="108.5">STATISTIK</tspan></text><text class="cls-14" transform="translate(304.08 774.51)"><tspan x="0" y="0">LAYANAN</tspan></text><rect class="cls-10" x="444.19" y="84.6" width="285.84" height="261.81"/><path class="cls-12" d="M730.79,347.16h-287.36V83.84h287.36v263.32ZM444.95,345.65h284.33V85.36h-284.33v260.29Z"/><rect class="cls-12" x="437.58" y="68.85" width="297.62" height="16.69"/><polygon class="cls-3" points="444.85 85.54 729.39 113.47 729.25 85.54 444.85 85.54"/><rect class="cls-6" x="488.66" y="172.87" width="9.59" height="107.11"/><rect class="cls-6" x="507.18" y="209.25" width="9.59" height="70.73"/><rect class="cls-6" x="525.69" y="186.18" width="9.59" height="94.34"/><rect class="cls-6" x="544.21" y="177" width="9.59" height="102.98"/><rect class="cls-6" x="562.73" y="211.42" width="9.59" height="68.56"/><rect class="cls-6" x="581.24" y="224.87" width="9.59" height="55.11"/><rect class="cls-6" x="599.76" y="183.86" width="9.59" height="96.12"/><rect class="cls-6" x="618.27" y="201.19" width="9.59" height="78.79"/><rect class="cls-6" x="636.79" y="187.34" width="9.59" height="92.64"/><rect class="cls-6" x="655.31" y="216.87" width="9.59" height="63.11"/><rect class="cls-6" x="673.82" y="204.86" width="9.59" height="75.12"/><path class="cls-12" d="M677.48,197.15s-.21-.02-.62-.1c-.44-.09-1.03-.21-1.79-.37-.78-.2-1.77-.31-2.93-.47-1.16-.2-2.51-.26-4.03-.34-3.04-.08-6.79.05-11.02.95-4.22.9-8.93,2.51-13.68,5.18-4.74,2.65-9.53,6.31-13.85,11.03-4.32,4.73-7.96,10.57-11.67,16.76-3.76,6.15-7.58,12.82-13.12,18.54-2.74,2.85-5.94,5.43-9.67,7.23-1.86.9-3.87,1.53-5.96,1.82-2.08.29-4.23.19-6.32-.21-4.18-.92-7.88-3.12-11-5.77-3.16-2.63-5.79-5.73-8.15-8.89-4.73-6.37-8.09-13.23-11.68-19.48-3.55-6.27-7.2-12.13-11.67-16.71-2.23-2.28-4.63-4.25-7.22-5.67-1.24-.81-2.62-1.29-3.9-1.89-1.35-.42-2.64-.95-3.98-1.18-5.29-1.24-10.33-.77-14.46.4-4.16,1.17-7.44,3.03-9.93,4.77-2.43,1.83-4.14,3.48-5.21,4.67-.51.58-.92,1.03-1.21,1.37-.28.31-.42.46-.44.45-.01,0,.12-.18.37-.5.28-.35.67-.82,1.16-1.42,1.04-1.23,2.72-2.93,5.15-4.82,2.48-1.79,5.78-3.72,9.99-4.95,4.18-1.23,9.3-1.75,14.7-.52,5.42,1.08,10.93,4.19,15.44,8.83,4.56,4.63,8.26,10.53,11.83,16.81,3.62,6.26,6.99,13.09,11.67,19.38,2.34,3.13,4.94,6.18,8.03,8.75,3.05,2.6,6.65,4.71,10.66,5.6,2,.39,4.05.48,6.05.2,1.99-.28,3.93-.88,5.73-1.75,3.6-1.74,6.74-4.26,9.45-7.06,5.46-5.61,9.27-12.24,13.05-18.38,3.74-6.18,7.42-12.05,11.81-16.82,4.39-4.75,9.25-8.43,14.06-11.08,4.81-2.67,9.59-4.25,13.86-5.12,4.28-.86,8.07-.95,11.13-.82,1.53.1,2.89.19,4.05.41,1.17.18,2.15.32,2.93.54.75.19,1.34.34,1.78.44.4.1.6.16.6.18Z"/><path class="cls-12" d="M478.1,287.44c-.22,0-.39-30.54-.39-68.21s.18-68.22.39-68.22.39,30.54.39,68.22-.18,68.21-.39,68.21Z"/><path class="cls-12" d="M687.33,287.44c0,.22-45.49.39-101.6.39s-101.61-.18-101.61-.39,45.48-.39,101.61-.39,101.6.18,101.6.39Z"/><path class="cls-12" d="M502.34,295.87c0,.22-3.19.39-7.12.39s-7.12-.18-7.12-.39,3.19-.39,7.12-.39,7.12.18,7.12.39Z"/><path class="cls-12" d="M525.95,296.3c0,.22-3.81.39-8.51.39s-8.51-.18-8.51-.39,3.81-.39,8.51-.39,8.51.18,8.51.39Z"/><path class="cls-12" d="M546.09,296.3c0,.22-3.81.39-8.51.39s-8.51-.18-8.51-.39,3.81-.39,8.51-.39,8.51.18,8.51.39Z"/><path class="cls-12" d="M566.23,296.3c0,.22-3.81.39-8.51.39s-8.51-.18-8.51-.39,3.81-.39,8.51-.39,8.51.18,8.51.39Z"/><path class="cls-12" d="M586.36,296.3c0,.22-3.81.39-8.51.39s-8.51-.18-8.51-.39,3.81-.39,8.51-.39,8.51.18,8.51.39Z"/><path class="cls-12" d="M606.5,296.3c0,.22-3.81.39-8.51.39s-8.51-.18-8.51-.39,3.81-.39,8.51-.39,8.51.18,8.51.39Z"/><path class="cls-12" d="M626.64,296.3c0,.22-3.81.39-8.51.39s-8.51-.18-8.51-.39,3.81-.39,8.51-.39,8.51.18,8.51.39Z"/><path class="cls-12" d="M646.78,296.3c0,.22-3.81.39-8.51.39s-8.51-.18-8.51-.39,3.81-.39,8.51-.39,8.51.18,8.51.39Z"/><path class="cls-12" d="M666.91,296.3c0,.22-3.81.39-8.51.39s-8.51-.18-8.51-.39,3.81-.39,8.51-.39,8.51.18,8.51.39Z"/><path class="cls-12" d="M687.05,296.3c0,.22-3.81.39-8.51.39s-8.51-.18-8.51-.39,3.81-.39,8.51-.39,8.51.18,8.51.39Z"/><path class="cls-12" d="M554.21,223.75c0-.12.86.18,1.14,1.36.13.56.17,1.29-.22,2.03-.19.36-.55.72-1.03.87-.48.16-1,.06-1.43-.17-.86-.47-1.29-1.43-1.22-2.24.06-.82.51-1.46.98-1.81.48-.37,1.03-.42,1.35-.33.33.1.44.26.42.29-.03.11-.71-.22-1.4.47-.32.32-.61.83-.61,1.42-.02.58.31,1.21.87,1.52.57.32,1.17.13,1.45-.37.3-.49.34-1.1.3-1.57-.09-.99-.65-1.37-.59-1.46Z"/><path class="cls-12" d="M646.91,197.89s.22-.12.61,0c.39.11.89.47,1.26,1.09.36.61.6,1.51.31,2.47-.27.91-1.11,1.92-2.41,1.93-.64,0-1.2-.38-1.53-.8-.34-.43-.55-.9-.65-1.37-.22-.93-.02-1.86.4-2.45.87-1.23,1.94-1.16,1.9-1.07.05.11-.84.29-1.42,1.36-.28.52-.38,1.24-.17,1.99.19.72.74,1.55,1.5,1.56.77.02,1.47-.67,1.7-1.36.25-.71.13-1.45-.11-1.98-.51-1.14-1.4-1.25-1.37-1.35Z"/><path class="cls-12" d="M648.41,147.28c-.22,0-.39-.51-.39-1.13s.18-1.13.39-1.13.39.51.39,1.13-.18,1.13-.39,1.13Z"/><path class="cls-12" d="M648.41,157.24c-.22,0-.39-1.12-.39-2.49s.18-2.49.39-2.49.39,1.11.39,2.49-.18,2.49-.39,2.49Z"/><path class="cls-12" d="M648.41,167.2c-.22,0-.39-1.12-.39-2.49s.18-2.49.39-2.49.39,1.11.39,2.49-.18,2.49-.39,2.49Z"/><path class="cls-12" d="M648.41,177.16c-.22,0-.39-1.12-.39-2.49s.18-2.49.39-2.49.39,1.11.39,2.49-.18,2.49-.39,2.49Z"/><path class="cls-12" d="M648.41,187.12c-.22,0-.39-1.12-.39-2.49s.18-2.49.39-2.49.39,1.11.39,2.49-.18,2.49-.39,2.49Z"/><path class="cls-12" d="M648.41,194.37c-.22,0-.39-.51-.39-1.13s.18-1.13.39-1.13.39.51.39,1.13-.18,1.13-.39,1.13Z"/><path class="cls-12" d="M716.65,128.11c0,.22-15.73.39-35.14.39s-35.14-.18-35.14-.39,15.73-.39,35.14-.39,35.14.18,35.14.39Z"/><path class="cls-12" d="M692.65,118.27c0,.22-10.12.39-22.61.39s-22.61-.18-22.61-.39,10.12-.39,22.61-.39,22.61.18,22.61.39Z"/><g class="cls-17"><rect class="cls-9" x="488.66" y="172.87" width="9.59" height="107.11"/></g><g class="cls-17"><rect class="cls-9" x="507.18" y="209.25" width="9.59" height="70.73"/></g><g class="cls-17"><rect class="cls-9" x="525.69" y="186.18" width="9.59" height="94.34"/></g><g class="cls-17"><rect class="cls-9" x="544.21" y="177" width="9.59" height="102.98"/></g><g class="cls-17"><rect class="cls-9" x="562.73" y="211.42" width="9.59" height="68.56"/></g><g class="cls-17"><rect class="cls-9" x="581.24" y="224.87" width="9.59" height="55.11"/></g><g class="cls-17"><rect class="cls-9" x="599.76" y="183.86" width="9.59" height="96.12"/></g><g class="cls-17"><rect class="cls-9" x="618.27" y="201.19" width="9.59" height="78.79"/></g><g class="cls-17"><rect class="cls-9" x="636.79" y="187.34" width="9.59" height="92.64"/></g><g class="cls-17"><rect class="cls-9" x="655.31" y="216.87" width="9.59" height="63.11"/></g><g class="cls-17"><rect class="cls-9" x="673.82" y="204.86" width="9.59" height="75.12"/></g><rect class="cls-8" x="790.45" y="513.32" width="10.47" height="125.46" transform="translate(1591.38 1152.09) rotate(180)"/><path class="cls-8" d="M721.6,518.99h149.76c0-8.98-7.28-16.26-16.26-16.26h-117.25c-8.98,0-16.26,7.28-16.26,16.26h0Z"/><path class="cls-12" d="M785.52,519.32c0,.21,4.11.39,9.19.39s9.19-.17,9.19-.39-4.11-.39-9.19-.39-9.19.17-9.19.39Z"/><path class="cls-8" d="M749.89,650.14h1.48c0-24.57,19.99-44.56,44.56-44.56s44.55,19.99,44.55,44.56h1.48c0-25.39-20.65-46.04-46.04-46.04s-46.04,20.65-46.04,46.04Z"/><path class="cls-12" d="M834.32,652.43c0,3.81,3.09,6.9,6.9,6.9s6.9-3.09,6.9-6.9-3.09-6.9-6.9-6.9-6.9,3.09-6.9,6.9Z"/><path class="cls-8" d="M743.38,651.47c0,3.81,3.09,6.9,6.9,6.9s6.9-3.09,6.9-6.9-3.09-6.9-6.9-6.9-6.9,3.09-6.9,6.9Z"/><path class="cls-8" d="M750.33,638.77c0,.21,20.03.39,44.74.39s44.74-.17,44.74-.39-20.03-.39-44.74-.39-44.74.17-44.74.39Z"/><path class="cls-8" d="M875.76,389.11v92.35c0,12.11-9.82,21.93-21.93,21.93h-71.16l9.67-114.29c0-5.4,4.38-9.77,9.77-9.77h63.88c5.4,0,9.77,4.38,9.77,9.77Z"/><path class="cls-12" d="M850.61,502.74s.05-.1.16-.27c.14-.21.31-.46.52-.76.47-.65,1.15-1.64,1.96-2.93,1.6-2.6,3.74-6.52,5.3-11.76.78-2.61,1.43-5.54,1.76-8.73.38-3.18.28-6.62.28-10.26,0-7.26-.02-15.24-.03-23.61.04-16.72.08-31.85.11-42.89.05-5.43.09-9.86.12-13,.03-1.48.05-2.66.07-3.53.02-.81.05-1.23.08-1.23s.05.42.07,1.23c.02.87.04,2.05.07,3.53.03,3.14.07,7.56.12,13,.03,11.04.07,26.17.11,42.89-.01,8.37-.02,16.34-.03,23.61-.02,3.62.06,7.09-.35,10.33-.37,3.23-1.05,6.19-1.87,8.82-1.64,5.28-3.87,9.2-5.56,11.77-.85,1.28-1.57,2.24-2.08,2.87-.5.64-.78.95-.81.94Z"/><path class="cls-12" d="M811.86,502.79c0-.05.8-.09,2.26-.13,1.59-.02,3.66-.04,6.17-.07,5.21-.03,12.4-.02,20.35.04,3.97.04,7.77.04,11.2.13,3.43.06,6.59.25,9.14,1,2.56.71,4.39,1.92,5.49,2.88.56.48.95.89,1.19,1.19.25.29.37.45.36.47-.06.06-.58-.57-1.73-1.44-1.14-.87-2.95-1.97-5.45-2.59-2.49-.66-5.57-.8-9.01-.82-3.46-.02-7.24-.05-11.2-.07-7.94-.06-15.13-.15-20.33-.25-2.5-.07-4.58-.12-6.16-.16-1.46-.05-2.26-.11-2.26-.16Z"/><path class="cls-12" d="M746.33,291.35c-2.1,6.46-4.23,13.06-4.08,19.85.07,3.14.58,6.51-.97,9.24-1.07,1.9-2.97,3.16-4.47,4.75-3.7,3.93-4.73,10.16-2.47,15.07.79,1.71,1.97,3.29,3.58,4.27,1.86,1.12,4.11,1.34,6.27,1.46,7.21.42,14.46.09,21.61-.98,3.41-.51,7.11-1.37,9.22-4.1,1.89-2.44,2.03-5.78,1.91-8.87-.43-11.71-3.34-23.33-8.49-33.86"/><path class="cls-12" d="M794.74,284.34c3.31-1.05,7.19,2.01,6.94,5.47-.25,3.46-4.52,5.94-7.65,4.43,3.47-.6,6.8,2.03,8.42,5.16s1.99,6.73,2.81,10.16c.83,3.43,2.32,6.98,5.33,8.81,2.87,1.74,6.92,1.81,8.78,4.61,1.93,2.91.23,6.87,1.04,10.27.81,3.38,3.89,5.61,6.63,7.74,2.74,2.13,5.56,4.95,5.41,8.41-.12,2.78-2.23,5.17-4.73,6.38-2.51,1.21-5.36,1.45-8.14,1.58-13.71.61-27.52-1.17-40.63-5.23-2.08-.64-4.25-1.42-5.62-3.12-2.08-2.58-1.59-6.31-.99-9.57,1.91-10.34,3.82-20.71,7.21-30.66,3.38-9.95,8.32-19.53,15.59-27.12"/><path class="cls-6" d="M815.25,383.98h16.17l-5.74-28.81c-4.23-23.58-37.29-25.21-37.29-25.21l-25.95-.42s-19.23-2.59-31.11,10.8c-2.44,2.75-4.99,5.59-7.5,8.39l-28.14,29.44-2.99-36.94-24.1,3.78,3.37,46.39c.74,7.47,5.58,14.17,12.74,16.44,5.21,1.66,10.52.2,15.8-2.43,14.04-7,40.36-29.26,42.38-30.98-1.22,2.5-3.64,8.13-3.64,13.49,0,7.68,7.88,13.43,7.88,13.43l2.46,23.38-8.15,37.75,84.72-3.4c-1.65-13.69-6.02-25.41-12.49-35.6l1.57-39.5ZM742.94,374.32c-.07-.07-.16-.26-.28-.57l.91-.64s-.25.45-.63,1.21Z"/><path class="cls-4" d="M777.34,449.4c-4.74,3.13-10.48,6.78-13.71,8.32-6.01,2.86-6.29,2.33-6.52,1.58-.63-2.02,10.37-5.43,7.55-6.05-2.82-.62-12.93,5.72-13.49,3.58-.74-2.78,10.85-6.14,11.8-6.5.93-.35.44-1.74-.41-1.37-1.22.53-14.14,5.76-14.89,3.03-.42-1.51,2.4-1.94,2.4-1.94,0,0,12.47-4.01,12.07-5.29-.4-1.3-7.81.82-10.26,1.7-2.41.88-3.84.1-3.37-1.29.32-.94,7.74-3.83,10.17-4.65,2.44-.82,9.17-2.96,4.93-4.57-4.24-1.62-6.91-4.42-7.11-5.67-.2-1.24,1.49-1.93,2.48-.93.8.8,2.55,1.74,3.9,2.39,1.11.54,2.3.9,3.52,1.04,1.06.13,2,.21,2.84.26l9.01.68,4.55,11.92-5.46,3.75Z"/><path class="cls-6" d="M816.8,340.69s7.36,5.14,10.66,15.95c2,6.54,7.74,28.7,11.96,45.18,2.76,10.76-3.29,21.82-13.84,25.31l-47.69,25.76-7.79-20.15,41.84-27.5-10.11-37.45c-1.66-5.7-2.38-11.49-.29-17.05,2.14-5.7,6.47-11.13,15.26-10.06Z"/><path class="cls-4" d="M670.19,346.36l-2.89-9.26c-1.35-6.63,3.89-7.7,4.77-8.68,2.72-3.05,4.68-3.78,4.68-3.78l-.42-2.67s-1.59-6.82-1.51-8.69c.07-1.59,2.92-1.7,3.33-.16.94,3.5,2.59,9.44,3.47,11.62,1.16,2.87,3.74,10.41,6.45,5.73,2.71-4.68,2.43-7.41,2.89-8.86.49-1.53,3.88-1.82,3.22,1.36-.28,1.33-.44,3.68-1.28,6.87-.37,1.42-1.16,3.17-1.55,4.58-.46,1.65-.67,7.79-.92,9l-20.24,2.94Z"/><path class="cls-11" d="M671.7,330.19c.12-.01.25,1.07.73,2.73.24.83.57,1.8,1.05,2.83.23.52.54,1.11.6,1.85.06.7-.22,1.65-1.09,2-.87.32-1.64-.05-2.2-.43-.57-.42-.98-.91-1.32-1.42-.67-1.03-.98-2.09-1.15-2.97-.31-1.76-.27-2.85-.18-2.86.13-.02.29,1.07.72,2.73.23.82.58,1.79,1.21,2.69.31.44.71.88,1.17,1.2.45.31,1.05.51,1.47.34.43-.15.65-.71.61-1.22-.03-.53-.27-1.06-.49-1.6-.46-1.09-.75-2.12-.93-2.99-.35-1.75-.28-2.86-.19-2.86Z"/><path class="cls-11" d="M675.86,327.13c.1-.03.62,1.31,1.38,3.51.4,1.19.83,2.49,1.29,3.87.22.74.51,1.46.7,2.35.08.44.11.96-.07,1.46-.18.51-.58.92-1.03,1.17-.92.53-2.08.37-2.85-.15-.8-.5-1.33-1.25-1.67-1.98-.66-1.49-.9-2.83-1.23-3.95-.6-2.25-.92-3.65-.82-3.68.1-.03.61,1.32,1.35,3.52.4,1.08.73,2.48,1.35,3.79.32.65.79,1.25,1.42,1.64.62.39,1.42.48,2.07.11.67-.35.88-1.05.72-1.8-.15-.75-.44-1.55-.64-2.28-.4-1.41-.78-2.72-1.12-3.92-.62-2.24-.95-3.64-.84-3.68Z"/><path class="cls-12" d="M692.02,386.79c-.2-.08.47-2.13,1.5-4.56,1.03-2.43,2.02-4.34,2.23-4.25.2.08-.47,2.13-1.5,4.56-1.03,2.43-2.02,4.34-2.22,4.25Z"/><path class="cls-3" d="M729.96,381.21c-.03.1-1.65-.28-4.25-.99-1.38-.39-2.9-.82-4.55-1.29-1.71-.52-3.6-1.15-5.43-2.19-1.83-1.04-3.36-2.45-4.33-4.03-1-1.57-1.29-3.31-1.28-4.66-.01-1.36,0-2.43-.11-3.16-.1-.73-.23-1.13-.17-1.15.04-.02.28.35.47,1.09.2.74.28,1.86.36,3.19.07,1.33.38,2.86,1.34,4.3.93,1.44,2.37,2.75,4.11,3.73,1.74.99,3.58,1.63,5.26,2.18,1.63.52,3.14,1.01,4.5,1.44,2.56.84,4.12,1.41,4.09,1.52Z"/><path class="cls-3" d="M800.81,439.87c-.13-.01.03-1.36-.38-3.46-.39-2.1-1.5-4.87-3.34-7.59-.9-1.37-1.85-2.62-2.72-3.76-.89-1.13-1.61-2.21-2.39-2.88-.77-.69-1.6-.94-2.17-.97-.58-.03-.9.1-.92.04-.02-.03.27-.28.92-.34.63-.07,1.62.13,2.53.85.92.7,1.7,1.77,2.61,2.87.91,1.12,1.89,2.37,2.81,3.77,1.88,2.78,2.98,5.73,3.23,7.93.28,2.21-.09,3.57-.17,3.55Z"/><path class="cls-3" d="M826.72,357.66s-.41-.09-1.17-.34c-.83-.26-1.94-.62-3.33-1.06-2.88-.84-7.14-2.25-12.53-2.2-2.68.04-5.61.61-8.45,1.99-2.85,1.35-5.58,3.39-8.33,5.67-2.76,2.27-5.52,4.87-8.85,7.03-3.29,2.13-7.16,3.92-11.43,4.13-2.13.1-4.26-.35-6.14-1.22-1.9-.87-3.5-2.19-4.86-3.63-2.72-2.9-4.64-6.19-6.81-9.01-4.22-5.79-10.31-8.82-15.52-9.94-5.28-1.16-9.73-.56-12.63.18-2.92.78-4.4,1.61-4.44,1.51,0,0,1.43-.92,4.36-1.81,2.91-.85,7.43-1.54,12.83-.43,2.68.55,5.56,1.56,8.34,3.19,2.78,1.62,5.47,3.93,7.63,6.85,2.21,2.85,4.15,6.12,6.79,8.92,2.56,2.85,6.33,4.81,10.41,4.6,4.05-.19,7.82-1.91,11.04-3.99,3.25-2.09,6.01-4.67,8.8-6.94,2.77-2.29,5.57-4.34,8.51-5.71,2.93-1.39,5.98-1.95,8.72-1.95,5.52.03,9.77,1.53,12.63,2.47,1.44.49,2.54.91,3.29,1.2.74.29,1.13.46,1.12.49Z"/><path class="cls-3" d="M807.9,397.27c-.03.09-.94-.44-2.73-.63-1.79-.17-4.4.34-7.35,1.69-2.95,1.3-6.34,3.34-10.52,4.61-4.14,1.33-8.92,2.13-13.95,2.03-5.03-.09-9.78-1.1-13.85-2.62-4.09-1.5-7.49-3.51-10.16-5.42-2.66-1.94-4.58-3.79-5.82-5.13-.63-.67-1.08-1.21-1.38-1.59-.3-.38-.45-.58-.43-.6.06-.05.72.71,2.03,1.98,1.31,1.26,3.26,3.03,5.93,4.89,2.67,1.83,6.05,3.75,10.09,5.2,4.02,1.46,8.68,2.43,13.62,2.52,4.94.1,9.64-.66,13.72-1.93,4.11-1.21,7.48-3.17,10.52-4.43,3.02-1.31,5.75-1.77,7.6-1.49,1.85.29,2.69.93,2.69.93Z"/><path class="cls-3" d="M836.53,390.89s-.06.43-.37,1.14c-.31.71-.84,1.7-1.68,2.81-1.63,2.2-4.75,4.88-8.98,5.77-4.2.92-8.06.24-10.73-.26-2.68-.56-4.3-1.05-4.28-1.15.02-.12,1.69.18,4.38.6,2.67.37,6.46.92,10.46.04,4.02-.84,7.03-3.31,8.72-5.35,1.73-2.07,2.36-3.67,2.49-3.6Z"/><path class="cls-12" d="M801.08,364.59s.09.24.21.73c.13.53.3,1.24.52,2.14.47,1.93,1.14,4.67,1.99,8.13,1.74,7,4.3,16.99,7.5,28.95l.06.23-.2.14c-10.23,7.06-22.33,15.4-35.26,24.33-1.88,1.29-3.74,2.58-5.58,3.84l.14-.47c2.78,6.97,5.44,13.67,7.93,19.91l-.51-.19c14.63-7.22,26.94-13.81,35.61-18.58,4.28-2.38,7.7-4.27,10.11-5.61,1.14-.63,2.04-1.13,2.69-1.49.62-.33.94-.5.95-.48.01.02-.29.22-.89.59-.65.39-1.52.92-2.64,1.59-2.31,1.38-5.7,3.36-10.01,5.79-8.61,4.88-20.89,11.57-35.5,18.84l-.36.18-.15-.37c-2.5-6.24-5.18-12.92-7.97-19.89l-.12-.29.26-.18c1.84-1.27,3.7-2.55,5.58-3.84,12.95-8.89,25.08-17.21,35.32-24.23l-.14.37c-3.14-11.98-5.61-22-7.23-29.03-.82-3.51-1.41-6.29-1.81-8.18-.18-.91-.32-1.63-.42-2.17-.09-.49-.13-.75-.11-.75Z"/><path class="cls-12" d="M822.48,408.12c-.14.16-2.28-1.6-5.51-2.58-1.6-.5-3.09-.75-4.19-.8-1.09-.07-1.78,0-1.8-.11-.02-.09.65-.37,1.8-.45,1.15-.09,2.75.08,4.43.61,3.4,1.03,5.46,3.19,5.28,3.33Z"/><path class="cls-6" d="M645.81,571.26l6.26-13,24.42,11.58-8.96,19.11-1.56-.62c-6.92-2.82-34.97-14.83-38.82-18.33-4.3-3.91,18.66,1.26,18.66,1.26Z"/><g class="cls-13"><path class="cls-9" d="M658.77,584.56c1.31-1.88,3.35-3.23,5.58-3.73,2.24-.5,4.56-.21,6.55.93l-3.23,6.83-8.9-4.03Z"/></g><g class="cls-16"><path class="cls-9" d="M634.42,569.1s-8.27-1.35-7.93.28c.34,1.63,28.23,14.83,41.04,19.57l.22-.56-32.66-15.12s.72-3.43-.67-4.17Z"/></g><path class="cls-12" d="M668.14,588.55s-.16-.04-.44-.15c-.37-.15-.78-.31-1.24-.5-1.23-.52-2.74-1.16-4.53-1.91-3.81-1.64-9.05-3.98-14.78-6.68-5.73-2.71-10.86-5.27-14.55-7.17-1.72-.9-3.17-1.66-4.35-2.29-.44-.24-.82-.45-1.17-.64-.27-.15-.4-.23-.4-.24,0-.01.15.05.43.18.36.18.76.37,1.2.59,1.2.6,2.66,1.33,4.4,2.19,3.71,1.85,8.86,4.38,14.59,7.08,5.72,2.7,10.95,5.07,14.73,6.76,1.77.79,3.27,1.46,4.49,2,.45.21.85.39,1.22.55.28.13.42.2.42.21Z"/><path class="cls-12" d="M634.92,573.65c-.1-.03.34-1.12.17-2.51-.14-1.39-.8-2.36-.71-2.42.05-.07.88.89,1.03,2.38.17,1.49-.43,2.6-.5,2.55Z"/><path class="cls-12" d="M643.86,573.4c-.09.01-.24-.57-.33-1.3-.09-.73-.09-1.33,0-1.34.09-.01.24.57.33,1.3.09.73.09,1.33,0,1.34Z"/><path class="cls-12" d="M646.33,573.29c-.08.03-.35-.4-.59-.98-.24-.58-.37-1.07-.29-1.11.08-.03.35.4.59.98.24.58.37,1.07.29,1.11Z"/><path class="cls-12" d="M648.67,571.58c-.04.08-.64-.12-1.35-.44-.71-.33-1.25-.66-1.21-.74.04-.08.64.12,1.35.44.71.33,1.25.66,1.21.74Z"/><path class="cls-12" d="M649.87,570.16c0,.09-.76.07-1.62-.26-.86-.33-1.43-.82-1.38-.89.05-.08.68.28,1.49.59.81.32,1.51.47,1.5.57Z"/><path class="cls-12" d="M644.04,570.88s-.65-.18-1.57-.75c-.46-.29-.97-.67-1.5-1.16-.25-.25-.54-.49-.77-.85-.11-.18-.21-.4-.16-.67.05-.27.3-.47.53-.51,1.87-.07,2.97,1.49,3.16,2.53.12.54.08.99.02,1.29-.06.3-.14.45-.16.44-.06,0,.19-.67-.08-1.68-.13-.5-.43-1.05-.93-1.51-.48-.43-1.24-.84-1.93-.76-.34.07-.38.41-.18.7.18.29.47.55.7.79.5.49.99.88,1.42,1.19.86.61,1.46.9,1.44.94Z"/><path class="cls-12" d="M643.59,570.77s-.07-.5.33-1.18c.2-.33.52-.68.97-.94.44-.22,1.03-.53,1.69-.18.34.22.32.72.14.95-.16.26-.39.44-.6.58-.42.28-.83.47-1.19.6-.72.25-1.2.25-1.2.21,0-.05.45-.13,1.11-.43.33-.15.72-.35,1.1-.63.37-.23.8-.76.44-1.01-.38-.22-.96-.02-1.35.18-.41.22-.72.52-.93.81-.42.58-.47,1.06-.53,1.05Z"/><path class="cls-12" d="M670.81,581.63c-.03.05-.67-.4-1.83-.79-1.15-.4-2.88-.67-4.71-.24-1.82.43-3.25,1.45-4.11,2.31-.87.87-1.24,1.56-1.29,1.52-.02,0,.06-.19.23-.49.17-.3.47-.72.89-1.19.83-.93,2.3-2.02,4.2-2.47,1.9-.44,3.7-.12,4.86.34.59.23,1.04.48,1.33.67.29.19.44.32.43.34Z"/><path class="cls-12" d="M673.09,570.27c.08.04-.89,2.33-2.16,5.12-1.28,2.79-2.38,5.02-2.46,4.98-.08-.04.89-2.33,2.16-5.12,1.28-2.79,2.38-5.02,2.46-4.98Z"/><path class="cls-12" d="M656.82,580.72c-.03.08-1.74-.41-3.73-1.33-2-.92-3.48-1.9-3.44-1.98.05-.08,1.6.77,3.57,1.68,1.97.91,3.63,1.54,3.6,1.63Z"/><path class="cls-12" d="M661.61,582.98c.03.09-.29.28-.63.57-.34.28-.58.57-.66.53-.08-.04.06-.45.45-.78.39-.33.81-.4.84-.32Z"/><path class="cls-12" d="M664.48,581.59c.03.09-.25.26-.62.4-.37.14-.7.18-.73.09-.03-.08.25-.26.62-.4.37-.14.7-.18.73-.09Z"/><path class="cls-12" d="M667.55,581.79c-.06.07-.38-.08-.8-.13-.42-.05-.77.03-.81-.06-.04-.08.33-.33.84-.26.52.06.82.39.76.45Z"/><path class="cls-12" d="M669.62,582.17c0,.09-.21.15-.45.13-.24-.02-.43-.1-.42-.19,0-.09.21-.15.45-.13.24.02.43.1.42.19Z"/><path class="cls-6" d="M718.51,649.96l-.3-14.42,27.02-.73.66,21.1-1.67.15c-7.44.61-37.89,2.6-42.91,1.22-5.6-1.54,17.21-7.32,17.21-7.32Z"/><g class="cls-13"><path class="cls-9" d="M736.08,655.95c.32-2.27,1.52-4.4,3.29-5.85,1.77-1.45,3.97-2.26,6.26-2.13l.21,7.55-9.76.44Z"/></g><g class="cls-16"><path class="cls-9" d="M707.37,653.18s-7.98,2.54-6.94,3.84c1.04,1.3,31.88.45,45.46-1.12l-.06-.6-35.97,1.3s-.91-3.39-2.48-3.41Z"/></g><path class="cls-12" d="M746.25,655.27s-.16.03-.46.06c-.4.04-.84.07-1.33.12-1.33.09-2.97.21-4.9.35-4.14.26-9.87.55-16.2.73-6.33.18-12.07.21-16.22.19-1.94-.03-3.58-.05-4.92-.07-.5-.02-.93-.03-1.34-.04-.31-.01-.47-.03-.47-.04,0-.01.16-.02.47-.03.4,0,.84-.01,1.34-.02,1.34,0,2.98-.02,4.91-.04,4.15-.03,9.88-.1,16.21-.28,6.33-.18,12.06-.43,16.2-.63,1.94-.1,3.58-.18,4.91-.24.5-.02.93-.04,1.34-.06.31,0,.47,0,.47,0Z"/><path class="cls-12" d="M709.87,657.02c-.1.02-.21-1.16-.98-2.32-.75-1.18-1.78-1.75-1.73-1.83.02-.08,1.19.4,2,1.65.83,1.25.79,2.51.71,2.5Z"/><path class="cls-12" d="M717.73,652.75c-.08.05-.47-.4-.88-1.01-.41-.61-.68-1.15-.61-1.2.08-.05.47.4.88,1.01.41.61.68,1.15.61,1.2Z"/><path class="cls-12" d="M719.89,651.54c-.06.07-.49-.2-.97-.61-.48-.41-.82-.79-.76-.86.06-.07.49.2.97.61.48.41.82.79.76.86Z"/><path class="cls-12" d="M721.2,648.95c0,.09-.63.19-1.4.22-.78.03-1.41-.02-1.42-.11s.63-.19,1.4-.22c.78-.03,1.41.02,1.42.11Z"/><path class="cls-12" d="M721.63,647.14c.03.08-.65.41-1.56.5-.91.1-1.65-.09-1.63-.17.01-.09.73-.06,1.6-.15.87-.09,1.56-.26,1.59-.17Z"/><path class="cls-12" d="M716.75,650.42s-.66.14-1.74.04c-.54-.05-1.17-.16-1.86-.36-.34-.11-.7-.19-1.07-.41-.17-.11-.37-.27-.44-.53-.08-.26.05-.55.24-.7,1.64-.91,3.32-.02,3.96.82.35.43.52.85.6,1.14.08.3.08.46.06.47-.06.02-.14-.68-.83-1.46-.34-.38-.86-.75-1.51-.92-.62-.16-1.49-.19-2.07.2-.27.21-.15.53.16.71.29.18.66.28.99.39.66.21,1.28.34,1.8.42,1.04.16,1.71.14,1.71.19Z"/><path class="cls-12" d="M716.3,650.52s-.29-.42-.23-1.2c.03-.38.16-.84.44-1.28.3-.39.68-.94,1.42-.92.4.04.61.49.56.79-.02.31-.15.57-.27.78-.25.44-.53.8-.79,1.07-.53.55-.95.76-.97.73-.03-.04.34-.32.8-.88.23-.28.48-.64.7-1.06.23-.37.37-1.04-.06-1.1-.44-.03-.87.41-1.12.77-.26.38-.4.79-.46,1.14-.11.71.06,1.16,0,1.17Z"/><path class="cls-12" d="M745.49,647.9c0,.06-.78-.05-1.99.13-1.21.17-2.87.71-4.3,1.91-1.43,1.21-2.25,2.76-2.62,3.92-.38,1.17-.4,1.95-.46,1.94-.02,0-.04-.19-.02-.54.02-.35.09-.86.25-1.47.32-1.21,1.14-2.84,2.63-4.1,1.49-1.26,3.24-1.78,4.49-1.89.63-.06,1.14-.04,1.49,0,.35.04.54.09.53.11Z"/><path class="cls-12" d="M742.38,636.73c.09,0,.26,2.48.39,5.54.12,3.07.15,5.55.06,5.56-.09,0-.26-2.48-.39-5.54-.12-3.06-.15-5.55-.06-5.56Z"/><path class="cls-12" d="M732.61,653.41c.01.08-1.74.42-3.93.5-2.19.08-3.97-.12-3.96-.21,0-.1,1.77-.04,3.95-.12,2.17-.08,3.93-.27,3.94-.17Z"/><path class="cls-12" d="M737.91,653.26c.07.06-.13.38-.3.79-.17.41-.26.77-.35.77-.09,0-.15-.42.05-.89.2-.47.55-.72.61-.66Z"/><path class="cls-12" d="M739.83,650.72c.07.06-.1.35-.37.64-.27.29-.55.48-.61.41-.07-.06.1-.35.37-.64.27-.29.55-.48.61-.41Z"/><path class="cls-12" d="M742.66,649.51c-.02.09-.38.1-.77.25-.4.14-.67.37-.75.31-.07-.05.14-.44.63-.62.49-.18.91-.03.88.06Z"/><path class="cls-12" d="M744.67,648.92c.03.08-.12.23-.34.32-.22.09-.43.1-.46.02-.03-.08.12-.23.34-.32.22-.09.43-.1.46-.02Z"/><path class="cls-12" d="M739.75,384.79c-.11-.04.31-1.51,1.02-3.89.36-1.19.79-2.6,1.34-4.16.27-.78.57-1.59.92-2.43.19-.45.43-.84.55-1.21.12-.38.17-.81.15-1.24-.02-.88-.25-1.78-.4-2.66-.16-.87-.32-1.71-.47-2.53-.27-1.54-.52-2.98-.75-4.29-.4-2.45-.59-3.98-.48-4,.11-.02.51,1.46,1.06,3.88.28,1.31.59,2.73.92,4.26.17.82.34,1.66.52,2.52.16.87.4,1.78.44,2.8.01.51-.04,1.02-.2,1.52-.17.5-.42.9-.58,1.27-.35.81-.66,1.61-.95,2.37-.54,1.46-1.04,2.83-1.5,4.08-.85,2.33-1.47,3.75-1.58,3.71Z"/><g class="cls-17"><path class="cls-1" d="M799.65,360.37c1.05,16.07,2.67,34.12,2.98,50.23,2.47-1.12,8.35-5.37,8.35-5.96,0,0-7.67-26.95-11.33-44.26Z"/></g><path class="cls-12" d="M826.42,455.3s-110.79-23.21-121.52-18.13c-10.73,5.08-60.19,127.35-60.19,127.35l33.37,12.25,45.29-101.45s81.6,30.77,95.15,27.96c13.55-2.81,7.9-47.98,7.9-47.98Z"/><path class="cls-12" d="M776.91,461.82c-1.69.56-65.78,26.91-70.3,35.38-4.52,8.47,6.58,149.09,6.58,149.09h36.45l-2.26-124.98,71.14-18.02-41.61-41.46Z"/><path class="cls-8" d="M818.89,503.56s-.37-.02-1.05-.13c-.77-.14-1.76-.31-2.98-.53-2.59-.48-6.32-1.21-10.92-2.19-9.2-1.94-21.86-4.88-35.67-8.84-6.9-2-13.41-4.08-19.3-6.1-5.86-2.09-11.12-4.04-15.44-5.89-2.18-.88-4.12-1.76-5.82-2.53-1.71-.76-3.17-1.44-4.34-2.04-1.11-.56-2.01-1.01-2.7-1.36-.61-.32-.93-.5-.92-.53.01-.03.35.1.99.37.71.31,1.63.72,2.77,1.22,1.19.55,2.67,1.19,4.39,1.9,1.72.73,3.67,1.57,5.86,2.41,4.35,1.78,9.61,3.67,15.47,5.71,5.88,1.98,12.39,4.03,19.28,6.03,13.78,3.95,26.4,6.97,35.56,9.06,4.51,1.02,8.19,1.85,10.86,2.45,1.21.28,2.19.51,2.95.68.67.16,1.02.27,1.02.29Z"/><path class="cls-8" d="M706.62,529.5c-.06,0-.17-.75-.34-2.11-.16-1.53-.37-3.46-.61-5.77-.23-2.49-.5-5.38-.8-8.56-.26-3.21-.72-6.82-.02-10.6.68-3.81,2.9-6.97,5.32-9.16,2.43-2.23,5.07-3.66,7.29-4.69,2.24-1.03,4.12-1.68,5.41-2.13,1.3-.44,2.03-.65,2.05-.6.06.15-2.82,1.15-7.2,3.26-2.17,1.09-4.7,2.53-7.02,4.72-2.31,2.16-4.38,5.15-5.02,8.76-.67,3.6-.26,7.16-.04,10.38.23,3.18.44,6.08.62,8.58.14,2.32.25,4.26.34,5.79.06,1.37.07,2.13.01,2.13Z"/><path class="cls-12" d="M738.6,517.42c.09-.21,2.1.47,4.48,1.52,2.38,1.05,4.24,2.07,4.15,2.28-.09.21-2.1-.47-4.48-1.52-2.38-1.05-4.24-2.07-4.15-2.28Z"/><path class="cls-12" d="M741.81,513.57c.22-.1,1.23,1.93,2.9,4.11,1.65,2.2,3.32,3.73,3.17,3.92-.12.18-2.1-1.11-3.83-3.41-1.74-2.29-2.44-4.55-2.24-4.62Z"/><path class="cls-12" d="M755.81,519.34s-.11.3-.56.57c-.44.29-1.21.48-2.11.5-.9.04-1.97-.1-3.03.08-1.09.14-1.82,1.01-1.81,2.32-.04,5.34-.22,9.74-.45,9.73-.22-.01-.42-4.34-.38-9.78.04-.69.18-1.48.69-2.07.48-.6,1.21-.88,1.83-.96,1.26-.15,2.3.07,3.16.09,1.75.18,2.59-.57,2.67-.48Z"/><path class="cls-12" d="M749.01,262.01c-5.53,1.79-11.97,5.47-8.78,22.8,1.4,7.62,3.18,15.4,8.3,21.23.78.89,1.8,1.8,2.96,1.64.83-.12,1.48-.77,2.05-1.39,5.81-6.33,10.76-13.81,12.33-22.26,1.57-8.45-.78-17.98-7.44-23.42"/><path class="cls-4" d="M759.63,337.29c-.18-7.97-.52-16.53-.52-16.53,0,0-12.13-1.53-12.66-13.91-.52-12.38-.65-34.08-.65-34.08l23.69-17.55,16.64,22.89.41,58.77c.05,7.47-5.99,13.55-13.46,13.55h0c-7.31,0-13.29-5.83-13.45-13.14Z"/><path class="cls-11" d="M759.11,320.76s8.12.23,16.07-5.26c0,0-3.78,9.02-15.86,8.3l-.21-3.04Z"/><path class="cls-11" d="M760.21,306.33c-.21-.46-.16-1.04.14-1.46.3-.42.83-.65,1.34-.6.07-1.13,1.18-2.07,2.32-2.03,1.14.04,2.15.99,2.35,2.11s-.37,2.31-1.32,2.93c-.95.62-2.22.68-3.27.24-.82-.35-1.55-1.06-1.65-1.95"/><path class="cls-12" d="M748.31,287.79c-.03.9.7,1.66,1.64,1.71.93.05,1.72-.63,1.75-1.53.03-.9-.7-1.67-1.64-1.72-.94-.05-1.72.64-1.75,1.53Z"/><path class="cls-12" d="M748.38,286.39c.21.22,1.5-.73,3.33-.73,1.83-.02,3.17.92,3.37.7.1-.1-.12-.5-.7-.92-.58-.42-1.56-.84-2.7-.83-1.14,0-2.1.43-2.65.85-.56.43-.75.83-.65.93Z"/><path class="cls-12" d="M766.67,287.96c-.03.9.7,1.66,1.64,1.71.93.05,1.72-.63,1.75-1.53.03-.9-.7-1.67-1.64-1.72-.94-.05-1.72.64-1.75,1.53Z"/><path class="cls-12" d="M766.36,286.73c.21.22,1.5-.73,3.33-.73,1.83-.02,3.17.92,3.37.7.1-.1-.12-.5-.7-.92-.58-.42-1.56-.84-2.7-.83-1.14,0-2.1.43-2.65.85-.56.43-.75.83-.65.93Z"/><path class="cls-12" d="M759.73,300.3c0-.1-1.13-.3-2.97-.54-.47-.05-.91-.14-.99-.46-.11-.34.09-.84.31-1.38.44-1.13.9-2.31,1.38-3.56,1.92-5.06,3.31-9.23,3.1-9.3-.2-.08-1.93,3.97-3.84,9.03-.46,1.25-.9,2.44-1.32,3.58-.18.53-.48,1.13-.24,1.83.13.35.47.6.77.68.3.09.56.1.79.11,1.85.1,3,.11,3.01,0Z"/><path class="cls-12" d="M765.11,301.56c-.3-.02-.3,1.97-2,3.38-1.7,1.41-3.81,1.19-3.83,1.47-.03.12.47.39,1.36.41.88.03,2.16-.25,3.2-1.11,1.04-.86,1.48-2.02,1.55-2.83.08-.83-.15-1.32-.28-1.31Z"/><path class="cls-12" d="M765.54,282.65c.18.5,2.01.26,4.15.52,2.15.22,3.88.84,4.17.4.13-.21-.17-.68-.87-1.16-.69-.48-1.8-.94-3.09-1.08-1.29-.14-2.47.06-3.25.38-.79.32-1.18.71-1.11.94Z"/><path class="cls-12" d="M749.06,281.1c.32.42,1.58-.02,3.1-.04,1.51-.07,2.8.28,3.09-.16.13-.21-.07-.63-.63-1.02-.55-.39-1.48-.71-2.52-.68-1.04.03-1.94.41-2.47.84-.54.43-.71.85-.57,1.06Z"/><path class="cls-12" d="M775.14,281.65c2.21-.05,4.35-.72,6.03-2.15,1.1,2.92,1.07,6.16,2.08,9.12,1,2.96,1.99,31.43,5.08,30.96,2.83-.43,6.22-29,6.94-31.77,2-7.66-.5-16.1-5.6-22.17-6.05-7.19-16.12-13.33-25.5-12.67-4.16.29-8.35,1.51-11.62,4.09,0,0-5.06,3.9-4.64,8.87.59,6.93,10.7,11.4,17.65,11.19l.99.96c2.3,2.24,5.37,3.64,8.58,3.56Z"/><path class="cls-12" d="M745.74,279.38c1.76-1.34,2.87-3.41,3.45-5.55.58-2.14.7-4.38.8-6.59.03-.64-.06-1.47-.68-1.64-.6-.16-1.1.46-1.39,1-2.16,4.07-2.94,8.86-2.19,13.41.13-.12-.41.35-.28.23"/><path class="cls-6" d="M574.03,652.14l.08-14.83-27.79-.34-.35,21.7,1.72.13c7.66.52,39,2.1,44.14.61,5.74-1.67-17.81-7.27-17.81-7.27Z"/><g class="cls-16"><path class="cls-1" d="M556.06,658.57c-.37-2.33-1.63-4.5-3.47-5.97-1.84-1.47-4.12-2.26-6.47-2.1l-.1,7.77,10.04.3Z"/></g><g class="cls-16"><path class="cls-1" d="M585.53,655.29s8.25,2.49,7.2,3.84c-1.05,1.35-32.77.95-46.75-.46l.05-.62,37,.79s.88-3.5,2.5-3.55Z"/></g><path class="cls-12" d="M545.59,658.02s.16.03.48.06c.41.03.86.06,1.37.1,1.37.08,3.06.17,5.05.28,4.26.21,10.16.42,16.67.5,6.51.09,12.41.04,16.68-.06,1.99-.06,3.68-.11,5.05-.15.51-.02.96-.04,1.37-.06.31-.02.48-.03.48-.04s-.17-.02-.48-.02c-.41,0-.86,0-1.37,0-1.37.01-3.06.02-5.05.04-4.27.03-10.16.04-16.67-.04-6.51-.09-12.4-.26-16.67-.41-1.99-.07-3.68-.13-5.05-.17-.51-.01-.96-.03-1.37-.04-.31,0-.48,0-.48,0Z"/><path class="cls-12" d="M583.02,659.26c.1.01.2-1.19.97-2.4.76-1.22,1.8-1.83,1.75-1.91-.02-.08-1.22.42-2.03,1.73-.83,1.3-.77,2.6-.69,2.58Z"/><path class="cls-12" d="M574.87,655c.08.05.48-.42.89-1.06.41-.63.69-1.19.61-1.24-.08-.05-.48.42-.89,1.05-.41.63-.69,1.19-.61,1.24Z"/><path class="cls-12" d="M572.64,653.78c.06.07.5-.22.99-.64.48-.42.83-.82.77-.89-.06-.07-.5.22-.99.64-.48.42-.83.82-.77.89Z"/><path class="cls-12" d="M571.25,651.14c0,.09.65.18,1.45.2s1.45-.04,1.46-.13c0-.09-.65-.18-1.45-.2-.8-.02-1.45.04-1.46.13Z"/><path class="cls-12" d="M570.78,649.29c-.03.08.67.41,1.61.49.94.09,1.69-.11,1.67-.2-.01-.1-.75-.05-1.64-.13-.89-.08-1.61-.25-1.64-.16Z"/><path class="cls-12" d="M575.85,652.59s.68.13,1.79.01c.55-.06,1.2-.18,1.91-.39.35-.12.71-.21,1.09-.43.18-.12.38-.28.45-.55.08-.27-.06-.57-.26-.72-1.7-.91-3.42.03-4.06.91-.35.45-.52.88-.6,1.18-.08.3-.07.48-.05.48.06.02.13-.7.83-1.51.35-.4.87-.78,1.54-.97.63-.18,1.53-.22,2.13.17.28.21.17.55-.15.73-.3.19-.68.3-1.01.42-.68.22-1.31.37-1.84.46-1.07.18-1.75.17-1.75.22Z"/><path class="cls-12" d="M576.31,652.68s.29-.43.22-1.24c-.04-.39-.18-.86-.47-1.31-.31-.4-.71-.95-1.48-.93-.41.05-.62.52-.56.82.03.31.17.58.29.8.26.45.56.81.83,1.09.55.55.99.77,1.01.74.03-.04-.35-.32-.84-.9-.24-.29-.5-.65-.73-1.08-.24-.38-.4-1.06.05-1.14.45-.04.9.41,1.17.77.28.39.43.81.49,1.17.13.73-.05,1.19.01,1.2Z"/><path class="cls-12" d="M546.26,650.43c0,.06.8-.07,2.05.1,1.24.15,2.97.69,4.46,1.9,1.49,1.22,2.35,2.8,2.75,3.99.41,1.2.44,2,.5,1.99.02,0,.03-.2,0-.56-.02-.36-.1-.88-.28-1.5-.35-1.24-1.21-2.91-2.76-4.18-1.55-1.27-3.36-1.78-4.64-1.88-.65-.05-1.17-.03-1.53.02-.36.05-.55.1-.55.12Z"/><path class="cls-12" d="M549.29,638.9c-.09,0-.23,2.55-.31,5.7-.08,3.15-.07,5.71.02,5.71.09,0,.23-2.55.31-5.7.08-3.15.07-5.71-.02-5.71Z"/><path class="cls-12" d="M559.59,655.91c-.01.09,1.79.41,4.05.45,2.26.05,4.08-.19,4.07-.27,0-.1-1.82,0-4.06-.06-2.24-.05-4.05-.21-4.06-.12Z"/><path class="cls-12" d="M554.14,655.83c-.07.07.14.39.32.81.19.42.28.79.37.78.09,0,.15-.44-.06-.92-.21-.48-.57-.74-.63-.67Z"/><path class="cls-12" d="M552.12,653.25c-.07.06.11.36.39.65.28.29.57.48.64.42.07-.06-.11-.36-.39-.65-.28-.29-.57-.48-.64-.42Z"/><path class="cls-12" d="M549.2,652.04c.02.09.39.1.79.25.41.14.7.37.77.31.08-.05-.15-.45-.66-.63-.5-.18-.93-.01-.91.07Z"/><path class="cls-12" d="M547.12,651.47c-.03.09.12.23.35.32.23.09.44.1.48.01.03-.09-.12-.23-.35-.32-.23-.09-.44-.1-.48-.01Z"/><path class="cls-6" d="M466.12,652.14l-.08-14.83,27.79-.34.35,21.7-1.72.13c-7.66.52-39,2.1-44.14.61-5.74-1.67,17.81-7.27,17.81-7.27Z"/><g class="cls-16"><path class="cls-1" d="M484.1,658.57c.37-2.33,1.63-4.5,3.47-5.97,1.84-1.47,4.12-2.26,6.47-2.1l.1,7.77-10.04.3Z"/></g><g class="cls-16"><path class="cls-1" d="M454.62,655.29s-8.25,2.49-7.2,3.84c1.05,1.35,32.77.95,46.75-.46l-.05-.62-37,.79s-.88-3.5-2.5-3.55Z"/></g><path class="cls-12" d="M494.56,658.02s-.16.03-.48.06c-.41.03-.86.06-1.37.1-1.37.08-3.06.17-5.05.28-4.26.21-10.16.42-16.67.5-6.51.09-12.41.04-16.68-.06-1.99-.06-3.68-.11-5.05-.15-.51-.02-.96-.04-1.37-.06-.31-.02-.48-.03-.48-.04s.17-.02.48-.02c.41,0,.86,0,1.37,0,1.37.01,3.06.02,5.05.04,4.27.03,10.16.04,16.67-.04,6.51-.09,12.4-.26,16.67-.41,1.99-.07,3.68-.13,5.05-.17.51-.01.96-.03,1.37-.04.31,0,.48,0,.48,0Z"/><path class="cls-12" d="M457.13,659.26c-.1.01-.2-1.19-.97-2.4-.76-1.22-1.8-1.83-1.75-1.91.02-.08,1.22.42,2.03,1.73.83,1.3.77,2.6.69,2.58Z"/><path class="cls-12" d="M465.28,655c-.08.05-.48-.42-.89-1.06-.41-.63-.69-1.19-.61-1.24.08-.05.48.42.89,1.05.41.63.69,1.19.61,1.24Z"/><path class="cls-12" d="M467.51,653.78c-.06.07-.5-.22-.99-.64-.48-.42-.83-.82-.77-.89.06-.07.5.22.99.64.48.42.83.82.77.89Z"/><path class="cls-12" d="M468.9,651.14c0,.09-.65.18-1.45.2-.8.02-1.45-.04-1.46-.13,0-.09.65-.18,1.45-.2.8-.02,1.45.04,1.46.13Z"/><path class="cls-12" d="M469.37,649.29c.03.08-.67.41-1.61.49-.94.09-1.69-.11-1.67-.2.01-.1.75-.05,1.64-.13.89-.08,1.61-.25,1.64-.16Z"/><path class="cls-12" d="M464.31,652.59s-.68.13-1.79.01c-.55-.06-1.2-.18-1.91-.39-.35-.12-.71-.21-1.09-.43-.18-.12-.38-.28-.45-.55-.08-.27.06-.57.26-.72,1.7-.91,3.42.03,4.06.91.35.45.52.88.6,1.18.08.3.07.48.05.48-.06.02-.13-.7-.83-1.51-.35-.4-.87-.78-1.54-.97-.63-.18-1.53-.22-2.13.17-.28.21-.17.55.15.73.3.19.68.3,1.01.42.68.22,1.31.37,1.85.46,1.07.18,1.75.17,1.75.22Z"/><path class="cls-12" d="M463.85,652.68s-.29-.43-.22-1.24c.04-.39.18-.86.47-1.31.31-.4.71-.95,1.47-.93.41.05.62.52.56.82-.03.31-.17.58-.29.8-.26.45-.56.81-.83,1.09-.55.55-.99.77-1.01.74-.03-.04.35-.32.84-.9.24-.29.5-.65.73-1.08.24-.38.4-1.06-.05-1.14-.45-.04-.9.41-1.17.77-.28.39-.43.81-.49,1.17-.13.73.04,1.19-.01,1.2Z"/><path class="cls-12" d="M493.89,650.43c0,.06-.8-.07-2.05.1-1.24.15-2.97.69-4.46,1.9-1.49,1.22-2.35,2.8-2.75,3.99-.41,1.2-.44,2-.5,1.99-.02,0-.03-.2,0-.56.02-.36.1-.88.28-1.5.35-1.24,1.21-2.91,2.76-4.18,1.55-1.27,3.36-1.78,4.64-1.88.65-.05,1.17-.03,1.53.02.36.05.55.1.55.12Z"/><path class="cls-12" d="M490.87,638.9c.09,0,.23,2.55.31,5.7.08,3.15.07,5.71-.02,5.71-.09,0-.23-2.55-.31-5.7-.08-3.15-.07-5.71.02-5.71Z"/><path class="cls-12" d="M480.57,655.91c.01.09-1.79.41-4.05.45-2.26.05-4.08-.19-4.07-.27,0-.1,1.82,0,4.06-.06,2.24-.05,4.05-.21,4.06-.12Z"/><path class="cls-12" d="M486.01,655.83c.07.07-.14.39-.32.81-.19.42-.28.79-.37.78-.09,0-.15-.44.06-.92.21-.48.57-.74.63-.67Z"/><path class="cls-12" d="M488.03,653.25c.07.06-.11.36-.39.65-.28.29-.57.48-.64.42-.07-.06.11-.36.39-.65.28-.29.57-.48.64-.42Z"/><path class="cls-12" d="M490.95,652.04c-.02.09-.39.1-.79.25-.41.14-.7.37-.77.31-.08-.05.15-.45.66-.63.5-.18.93-.01.91.07Z"/><path class="cls-12" d="M493.04,651.47c.03.09-.12.23-.35.32-.23.09-.44.1-.48.01-.03-.09.12-.23.35-.32.23-.09.44-.1.48-.01Z"/><polygon class="cls-12" points="592.78 368.03 582.12 646.51 538.85 647.42 546.04 406.12 497.37 649.27 456.23 649.27 509.23 368.59 592.78 368.03"/><path class="cls-12" d="M556.01,378.16c.1.02-.09,1.77-.5,4.59s-1.01,6.71-1.73,10.99c-.38,2.13-.63,4.2-1.24,6.05-.58,1.84-1.64,3.37-2.83,4.25-1.16.92-2.34,1.29-3.14,1.4-.81.11-1.26.02-1.26-.02-.05-.15,1.92.03,4.06-1.8,1.06-.88,1.98-2.28,2.5-4.05.54-1.75.77-3.82,1.15-5.96.72-4.28,1.41-8.16,1.95-10.95.54-2.8.93-4.52,1.03-4.5Z"/><path class="cls-12" d="M547.01,379.5c.09.07-.26.52-.06,1.25.1.35.34.75.72.93.37.19.89.09,1.29-.25.4-.35.56-.85.42-1.25-.13-.4-.5-.7-.83-.84-.7-.3-1.19,0-1.25-.11-.09-.04.4-.63,1.41-.41.46.12,1.04.44,1.33,1.11.3.68.02,1.56-.58,2.06-.57.52-1.49.69-2.12.3-.63-.37-.87-.98-.93-1.46-.09-1.03.56-1.44.59-1.35Z"/><path class="cls-12" d="M523.76,383.47c-.19.06-.82-1.71-.57-3.97.23-2.26,1.22-3.86,1.39-3.76.2.09-.42,1.73-.64,3.84-.24,2.11.03,3.84-.19,3.89Z"/><path class="cls-12" d="M528.97,383.14c-.19.05-.79-1.77-.62-4.09.16-2.33,1-4.05,1.19-3.97.21.08-.28,1.82-.42,4.02-.16,2.2.08,3.99-.14,4.04Z"/><path class="cls-12" d="M573.69,384.27c-.21-.06.13-1.9.24-4.18.13-2.28-.03-4.15.19-4.18.2-.04.7,1.84.58,4.22-.12,2.38-.82,4.2-1.01,4.14Z"/><path class="cls-12" d="M579.34,383.96c-.21-.09.47-1.91.62-4.25.18-2.34-.24-4.23-.02-4.29.18-.07.97,1.85.78,4.34-.16,2.5-1.21,4.29-1.38,4.19Z"/><path class="cls-4" d="M532.49,252.17l26.71-2.13c.17-3.12-.06-15.19-.06-15.19,0,0,11.12-1.73,11.25-12.84.14-11.11-1.79-36.63-1.79-36.63h0c-12.86-5.53-27.71-3.66-38.81,4.88l-1.65,1.27,4.34,60.65Z"/><path class="cls-11" d="M559.17,234.69s-7.02.57-14.49-4.12c0,0,3.42,8,14.51,7l-.03-2.88Z"/><path class="cls-4" d="M529.53,203.03c-.19-.08-7.64-2.26-7.39,5.34.24,7.6,7.82,5.79,7.83,5.57s-.43-10.91-.43-10.91Z"/><path class="cls-11" d="M527.55,211.14s-.13.1-.35.21c-.21.11-.59.19-.99.05-.81-.27-1.53-1.52-1.61-2.89-.04-.69.08-1.35.31-1.91.21-.56.56-.96.96-1.05.4-.11.69.13.79.34.11.21.07.36.11.37.02.02.16-.13.09-.44-.04-.15-.13-.33-.31-.47-.19-.14-.46-.21-.74-.17-.58.06-1.09.62-1.34,1.22-.28.61-.44,1.36-.39,2.13.1,1.53.93,2.94,2.04,3.22.54.12.98-.05,1.2-.24.23-.19.26-.37.24-.38Z"/><path class="cls-12" d="M566.17,202.79c.03.84-.66,1.55-1.53,1.6-.87.05-1.61-.59-1.64-1.43-.03-.84.66-1.56,1.53-1.6.87-.05,1.61.59,1.64,1.43Z"/><path class="cls-12" d="M566.51,201.01c-.2.21-1.4-.68-3.11-.68-1.71-.02-2.96.86-3.14.65-.09-.09.11-.47.66-.86.54-.4,1.45-.78,2.52-.78,1.06,0,1.96.4,2.47.8.53.4.7.78.61.87Z"/><path class="cls-12" d="M549.44,203.19c.03.84-.66,1.55-1.53,1.6-.87.05-1.61-.59-1.64-1.43-.03-.84.66-1.56,1.53-1.6.87-.05,1.61.59,1.64,1.43Z"/><path class="cls-12" d="M549.72,201.33c-.2.21-1.4-.68-3.11-.68-1.71-.02-2.96.86-3.14.65-.09-.09.11-.47.66-.86.54-.4,1.45-.78,2.52-.78,1.06,0,1.96.4,2.47.8.52.4.7.78.61.87Z"/><path class="cls-12" d="M555.92,213.99c0-.1,1.05-.28,2.77-.5.44-.04.85-.13.92-.43.1-.32-.08-.79-.29-1.29-.41-1.06-.84-2.16-1.29-3.32-1.79-4.73-3.09-8.62-2.9-8.69.19-.07,1.8,3.7,3.59,8.43.43,1.17.84,2.28,1.24,3.34.17.5.45,1.06.23,1.71-.12.33-.44.56-.72.64-.28.09-.52.09-.74.1-1.73.09-2.81.1-2.81,0Z"/><path class="cls-12" d="M550.9,215.17c.28-.02.28,1.84,1.87,3.15,1.58,1.32,3.56,1.11,3.57,1.37.03.12-.44.36-1.27.38-.82.03-2.01-.23-2.98-1.04-.97-.81-1.38-1.88-1.45-2.64-.07-.78.14-1.23.26-1.22Z"/><path class="cls-12" d="M550.17,194.63c-.17.46-1.87.24-3.88.49-2.01.2-3.62.79-3.89.37-.12-.2.16-.64.82-1.09.65-.45,1.68-.88,2.88-1.01,1.2-.13,2.3.06,3.03.36.74.3,1.11.66,1.03.88Z"/><path class="cls-12" d="M565.88,196.07c-.3.39-1.48-.01-2.89-.03-1.41-.07-2.61.26-2.89-.15-.12-.2.07-.59.59-.95.52-.37,1.38-.67,2.35-.64.97.03,1.81.38,2.31.78.5.4.66.8.53.99Z"/><path class="cls-12" d="M574.03,178.36c.12-1.38-.39-2.86-1.51-3.67-1.12-.81-2.86-.76-3.77.28.52-1.86-1-4-2.92-4.12-1.81-.12-3.36,1.25-5.11,1.73-1.71.47-3.54.06-5.19-.6-1.64-.66-3.18-1.58-4.85-2.18-3.47-1.27-7.44-1.11-10.8.43-3.36,1.54-6.07,4.45-7.37,7.91-2.43-.76-5.19.47-6.69,2.53-1.5,2.06-1.88,4.76-1.58,7.29.2,1.71.7,3.36,1.27,4.99,0,.14-.01.28-.01.43.12,6.11.81,13.29,3.41,13.33,4.54.07,3.46-8.49,3.46-8.49,5.58-2.15,3.5-10.51,4.89-11.78,1.39-1.27,4.31-4.21,15.99,1.75,4.53,2.32,10.56,2.24,13.85,1.5.1-.02.19-.04.29-.06.02,0,.05,0,.07-.01.04,0,.06-.03.1-.04,1.05-.27,2.06-.68,2.99-1.27,1.06-.67,2.02-1.58,2.47-2.74.45-1.17.28-2.63-.64-3.48.86-1.08,1.54-2.36,1.66-3.74Z"/><path class="cls-6" d="M519.64,247.98c3.74-.72,7.39-2.07,11.79-2.26h0c9.49,2.93,18.99,2.94,28.48.02,1.16.15,2.76.3,4.78.54,12.37,1.46,17.12,4.07,26.01,12.81l-.97,50.08s2.98,56.98,2.76,66.19h-84.55l-.07-38.64.02-10.52-27.84,10.11,2.53-14.61s12.46-48.4,14.4-54.93c2.36-7.93,10.85-16.52,22.64-18.78Z"/><path class="cls-6" d="M492.81,322.53l41.68-5.92,7.92,14.19-38.74,17.47c-2.16.97-4.5,1.48-6.87,1.48h0c-6.78,0-12.9-4.1-15.47-10.38l-1.25-3.06,12.74-13.78Z"/><path class="cls-4" d="M572.03,309.78l-.9-.68c-4.69-3.52-10.64-4.89-16.4-3.79h0c-4.69.9-9.08,2.96-12.77,6l-7.14,5.88,7.6,13.61,5.17-7.23s4.82,6.54,5.68,5.86c.86-.69,1.89-2.76,1.89-2.76l-3.44-4.82,8.27,1.72,12.06-5.51-5.17-6.54,5.17,1.72v-3.44Z"/><path class="cls-6" d="M577.96,249.47s11.78,4.01,16.72,15.34c3.23,7.39,7.97,42.96,7.97,42.96l5.98,11.54c1.43,2.77,2.18,5.84,2.18,8.95v1.76c0,4.47-1.54,8.81-4.36,12.27h0c-3.32,4.08-8.14,6.63-13.37,7.1-5.97.53-13.19.77-14.73-.99-2.72-3.11-6.8-11.47-6.8-11.47l17.41-9.25-7.5-13.88-3.5-64.33Z"/><path class="cls-12" d="M506.57,346.95s.22-.15.67-.38c.52-.25,1.18-.57,2-.97,1.83-.86,4.36-2.04,7.48-3.49,6.47-2.95,15.38-7.02,25.54-11.66l-.17.52c-1.58-2.82-3.21-5.75-4.89-8.74-1.04-1.87-2.06-3.7-3.04-5.44l.37.19c-12.06,1.18-22.75,2.23-30.53,3-3.78.34-6.85.61-9.07.81-1.01.08-1.82.14-2.45.18-.56.03-.85.04-.86.02s.29-.08.84-.16c.63-.08,1.44-.19,2.44-.32,2.21-.25,5.28-.61,9.05-1.04,7.77-.83,18.45-1.96,30.5-3.25l.25-.03.12.22c.97,1.74,2,3.58,3.04,5.44,1.67,3,3.3,5.92,4.88,8.75l.2.36-.37.17c-10.2,4.54-19.15,8.53-25.64,11.42-3.16,1.37-5.72,2.48-7.57,3.29-.84.35-1.51.63-2.05.85-.47.19-.72.28-.73.25Z"/><path class="cls-12" d="M513.97,318.41c-.21,0-.38-7.45-.38-16.64s.17-16.64.38-16.64.38,7.45.38,16.64-.17,16.64-.38,16.64Z"/><path class="cls-12" d="M585.7,329.53c0-.05.45-.13,1.27-.2.82-.05,2.03-.13,3.51.21.73.18,1.57.52,2.2,1.25.59.74.98,1.64,1.15,2.65.17,1.01.11,2.12-.28,3.18-.39,1.06-1.16,2.02-2.11,2.7-1.96,1.36-4.15,1.75-6.04,2.15-1.93.37-3.69.5-5.17.5-2.98.03-4.74-.72-4.69-.82.03-.1,1.77.44,4.68.28,1.44-.07,3.17-.25,5.04-.65,1.86-.43,3.98-.86,5.73-2.08,1.77-1.21,2.45-3.35,2.15-5.15-.13-.89-.48-1.74-.94-2.36-.48-.6-1.19-.93-1.86-1.13-1.36-.38-2.56-.39-3.37-.43-.81-.03-1.27-.04-1.27-.1Z"/><path class="cls-12" d="M592.61,349.68c0,.09-1.13.31-2.99.35-1.85.03-4.5-.14-7.2-1.19-1.33-.53-2.57-1.14-3.58-1.91-1.02-.77-1.74-1.69-2.21-2.5-.94-1.65-1.14-2.81-1.07-2.83.12-.05.52,1.04,1.52,2.54.51.74,1.22,1.55,2.18,2.23.96.68,2.16,1.25,3.44,1.76,2.57,1,5.11,1.26,6.93,1.37,1.83.1,2.98.07,2.98.18Z"/><path class="cls-12" d="M600.93,313.58c.08.05-.72,1.01-2.06,2.47-1.34,1.47-3.23,3.46-5.34,5.63-2.12,2.17-4.06,4.11-5.5,5.48-1.44,1.37-2.36,2.19-2.44,2.12-.08-.07.71-1.02,2.05-2.49,1.34-1.47,3.22-3.47,5.34-5.64,4.23-4.34,7.8-7.75,7.94-7.57Z"/><path class="cls-12" d="M581.95,305.81c-.21,0-.38-4.26-.38-9.51s.17-9.51.38-9.51.38,4.26.38,9.51-.17,9.51-.38,9.51Z"/><path class="cls-3" d="M593.42,264.98c0,.21-21.34.38-47.66.38s-47.67-.17-47.67-.38,21.34-.38,47.67-.38,47.66.17,47.66.38Z"/><path class="cls-3" d="M595.88,272.57c0,.21-22.49.38-50.23.38s-50.23-.17-50.23-.38,22.49-.38,50.23-.38,50.23.17,50.23.38Z"/><path class="cls-3" d="M589.63,258.06c0,.21-19.59.38-43.75.38s-43.76-.17-43.76-.38,19.59-.38,43.76-.38,43.75.17,43.75.38Z"/><path class="cls-3" d="M593.64,372.64c0,.21-19.18.38-42.83.38s-42.83-.17-42.83-.38,19.17-.38,42.83-.38,42.83.17,42.83.38Z"/><path class="cls-3" d="M593.06,367.77c0,.21-18.92.38-42.26.38s-42.26-.17-42.26-.38,18.92-.38,42.26-.38,42.26.17,42.26.38Z"/><path class="cls-3" d="M592.2,361.47c0,.21-18.86.38-42.11.38s-42.12-.17-42.12-.38,18.85-.38,42.12-.38,42.11.17,42.11.38Z"/><path class="cls-3" d="M530.74,335.39c-.06.06-.96-.61-2.13-1.99-1.17-1.38-2.55-3.52-3.48-6.14-.92-2.62-1.2-5.15-1.15-6.96.04-1.81.33-2.9.41-2.89.25,0-.39,4.5,1.46,9.6,1.77,5.13,5.09,8.23,4.89,8.38Z"/><path class="cls-3" d="M526.82,337.73c-.06.06-1.04-.68-2.31-2.2-1.27-1.51-2.76-3.86-3.76-6.72-.99-2.87-1.28-5.63-1.22-7.61.05-1.98.36-3.17.45-3.16.26,0-.5,4.92,1.5,10.51,1.91,5.62,5.55,9.02,5.35,9.17Z"/><path class="cls-3" d="M523.07,339.63c-.05.06-1.16-.64-2.59-2.2-1.43-1.55-3.08-4.03-4.1-7.11-1-3.09-1.14-6.07-.9-8.16.24-2.1.72-3.33.79-3.3.13.03-.16,1.29-.26,3.34-.1,2.05.12,4.91,1.08,7.89.98,2.97,2.49,5.41,3.78,7,1.29,1.6,2.27,2.45,2.18,2.55Z"/><path class="cls-3" d="M576.79,342.68c.05-.05.44.34,1.28.8.84.47,2.19.89,3.92.98,1.72.1,3.81-.09,6.09-.4,2.24-.32,4.77-1.07,6.39-3.12,1.63-2,2.2-4.6,1.9-6.8-.32-2.22-1.46-4.03-2.64-5.25-2.44-2.48-4.75-2.88-4.67-3.04,0-.04.56.03,1.5.38.93.36,2.25,1.03,3.55,2.28,1.29,1.24,2.57,3.12,2.95,5.53.37,2.38-.22,5.19-2,7.39-.89,1.09-2.04,1.92-3.26,2.42-1.21.51-2.45.76-3.62.91-2.33.27-4.44.41-6.23.24-1.79-.17-3.2-.69-4.03-1.27-.84-.56-1.16-1.03-1.13-1.06Z"/><path class="cls-3" d="M591.97,323.46s.16-.04.47-.04c.31,0,.76.06,1.32.22,1.12.34,2.62,1.3,3.91,2.95,1.29,1.65,2.46,3.86,3.26,6.5.38,1.33.61,2.8.48,4.33-.13,1.52-.66,3.08-1.56,4.43-1.81,2.72-4.57,4.39-7.19,5.22-2.65.82-5.16.91-7.21.83-2.06-.09-3.71-.33-4.84-.52-1.13-.19-1.75-.33-1.74-.38.01-.14,2.53.27,6.6.36,2.02,0,4.46-.14,6.99-.96,2.49-.83,5.09-2.45,6.77-4.97.84-1.25,1.32-2.67,1.45-4.07.13-1.41-.07-2.8-.41-4.07-.73-2.55-1.83-4.75-3.01-6.36-1.18-1.63-2.54-2.59-3.58-3-1.05-.4-1.7-.39-1.69-.46Z"/><polygon class="cls-12" points="559.3 308.54 532.78 340.66 534.81 342.86 577.85 336.3 599.2 304.18 597.22 302.4 559.3 308.54"/><path class="cls-4" d="M587.43,317.01h0c-1.69,0-3.22,1.03-3.83,2.61-.64,1.66-1.57,3.6-2.61,4.17-1.91,1.04-5.22,1.88-6.96,1.02-1.74-.85-8.69-7.11-9.91-6.42-1.22.7-2.26,2.26-1.04,3.65s7.65,5.56,6.43,6.96c-1.22,1.39-14.78-4.73-16.87-4.19s-3.3,1.82-2.09,2.66c1.22.84,10.43,4.31,10.95,5.53,0,0-13.91-3.65-14.43-2.78-.52.87-1.39,2.26,0,2.78s13.39,3.65,14.43,4.17c1.04.52,4.64,1.56,5.36,1.56.38,0,3.1.91,5.6,1.78,2.82.98,5.89.89,8.65-.23l1.41-.57c2.19-.89,3.57-3.08,3.43-5.44l-.28-4.74,1.52-3.91.22-8.61Z"/><path class="cls-8" d="M599.25,304.34s-.27.09-.79.19c-.61.11-1.37.24-2.3.41-2.11.34-4.98.8-8.48,1.36-3.62.55-7.88,1.2-12.6,1.92-2.37.36-4.86.74-7.43,1.12-2.54.43-5.17,1.13-7.2,2.92-2.04,1.76-3.58,4.02-5.25,6.03-1.63,2.03-3.21,4-4.71,5.87-3,3.71-5.71,7.07-8.01,9.91-2.25,2.74-4.09,4.99-5.45,6.64-.61.72-1.11,1.31-1.51,1.78-.35.4-.55.61-.57.59-.02-.02.13-.25.45-.68.37-.5.83-1.11,1.4-1.87,1.31-1.69,3.09-3.99,5.26-6.79,2.26-2.88,4.93-6.27,7.88-10.02,1.49-1.88,3.05-3.86,4.67-5.9,1.66-2.01,3.18-4.27,5.34-6.15,2.18-1.91,5.01-2.65,7.57-3.07,2.58-.38,5.08-.74,7.45-1.08,4.72-.66,8.99-1.26,12.62-1.76,3.52-.46,6.4-.84,8.52-1.12.94-.11,1.71-.2,2.32-.27.53-.05.81-.07.82-.04Z"/><path class="cls-10" d="M579.12,311.38c-.44.27-.9.54-1.19.97-.29.43-.38,1.04-.05,1.44.41.51,1.25.42,1.77.03.34-.25.61-.61.69-1.03.08-.41-.05-.88-.37-1.15-.32-.27-.84-.31-1.17-.05"/><rect class="cls-8" x="225.49" y="347.93" width="69.48" height="140.14"/><path class="cls-8" d="M228.72,487.74h0c-5.99,0-10.84-4.85-10.84-10.84v-118.13c0-5.99,4.85-10.84,10.84-10.84h0c5.99,0,10.84,4.85,10.84,10.84v118.13c0,5.99-4.85,10.84-10.84,10.84Z"/><path class="cls-12" d="M234.38,353.56s.03.12.06.35c.03.28.06.61.1,1.03.08.97.19,2.29.32,3.95.25,3.5.61,8.45,1.04,14.54.81,12.34,1.92,29.27,3.14,47.97,1.16,18.75,2.26,35.7,2.86,48.01.23,6.17-.52,11.22-1.8,14.45-.6,1.63-1.28,2.8-1.76,3.57-.24.34-.43.62-.59.85-.14.19-.21.28-.22.27-.11-.06,1.18-1.54,2.29-4.79,1.18-3.22,1.83-8.19,1.53-14.32-.8-12.34-1.89-29.27-3.09-47.98-1.14-18.71-2.16-35.64-2.91-47.99-.33-6.09-.6-11.04-.79-14.55-.07-1.67-.13-2.99-.18-3.96-.01-.41-.02-.75-.03-1.03,0-.23,0-.35.02-.35Z"/><rect class="cls-8" x="288.74" y="505.46" width="11.2" height="134.2"/><path class="cls-8" d="M372.54,505.46h-160.2c0-9.6,7.79-17.39,17.39-17.39h125.42c9.6,0,17.39,7.78,17.39,17.39h0Z"/><path class="cls-12" d="M304.17,505.81c0,.23-4.4.41-9.83.41s-9.83-.18-9.83-.41,4.4-.41,9.83-.41,9.83.19,9.83.41Z"/><path class="cls-8" d="M343.34,651.82h-1.58c0-26.28-21.38-47.66-47.66-47.66s-47.66,21.38-47.66,47.66h-1.58c0-27.15,22.09-49.24,49.24-49.24s49.24,22.09,49.24,49.24Z"/><circle class="cls-12" cx="245.64" cy="650.92" r="7.38"/><path class="cls-8" d="M350.24,651.26c0,4.08-3.31,7.38-7.38,7.38s-7.38-3.31-7.38-7.38,3.31-7.38,7.38-7.38,7.38,3.31,7.38,7.38Z"/><path class="cls-8" d="M342.86,639.66c0,.23-21.43.41-47.86.41s-47.86-.18-47.86-.41,21.42-.41,47.86-.41,47.86.18,47.86.41Z"/><path class="cls-12" d="M277.05,487.78c0,.06-.86.11-2.42.17-1.7.04-3.92.1-6.59.17-5.57.11-13.26.21-21.75.27-4.24.03-8.28.05-11.98.08-3.68.03-6.98.17-9.64.88-2.67.67-4.61,1.84-5.83,2.77-1.23.93-1.78,1.61-1.85,1.54-.02-.02.11-.19.38-.5.26-.32.68-.77,1.28-1.28,1.18-1.03,3.14-2.32,5.88-3.08,2.72-.8,6.1-1,9.77-1.07,3.67-.09,7.73-.1,11.98-.14,8.5-.06,16.2-.07,21.77-.04,2.68.03,4.9.06,6.6.08,1.56.04,2.42.08,2.42.14Z"/><path class="cls-2" d="M272.33,341.22h0c8.34,0,15.26-5.44,15.37-30.78.02-5.1-.14-9.51-.14-9.51,0,0,12.03-1.09,12.91-12.76.88-11.66.21-38.74.21-38.74h0c-13.43-6.64-29.18-5.5-41.64,2.75l-1.85,1.22.57,57.34c.08,8.04,6.35,30.47,14.56,30.47Z"/><path class="cls-5" d="M287.59,300.76s-7.57.15-15.26-5.26c0,0,3.14,8.62,15.1,8.29l.16-3.03Z"/><path class="cls-12" d="M297.83,268.25c.03.86-.69,1.6-1.61,1.65-.92.05-1.69-.61-1.72-1.48-.03-.86.69-1.6,1.61-1.65.92-.05,1.69.61,1.72,1.48Z"/><path class="cls-12" d="M298.2,266.41c-.21.21-1.47-.7-3.27-.7-1.8-.02-3.11.89-3.31.67-.1-.1.12-.48.69-.89.57-.41,1.53-.8,2.65-.8,1.12,0,2.06.41,2.6.82.55.42.74.8.64.9Z"/><path class="cls-12" d="M280.23,268.66c.03.86-.69,1.6-1.61,1.65-.92.05-1.69-.61-1.72-1.48-.03-.86.69-1.6,1.61-1.65.92-.05,1.69.61,1.72,1.48Z"/><path class="cls-12" d="M280.53,266.74c-.21.21-1.47-.7-3.27-.7-1.8-.02-3.11.89-3.31.67-.1-.1.11-.48.69-.89.57-.41,1.53-.8,2.65-.8,1.12,0,2.06.41,2.6.82.55.42.74.8.64.9Z"/><path class="cls-12" d="M287.06,279.8c0-.1,1.11-.29,2.92-.52.46-.05.89-.14.97-.44.11-.33-.08-.81-.31-1.33-.43-1.09-.88-2.23-1.36-3.42-1.88-4.87-3.25-8.88-3.05-8.96.2-.07,1.89,3.82,3.78,8.69.45,1.2.89,2.35,1.3,3.44.17.51.47,1.09.24,1.76-.12.34-.46.58-.75.66-.29.09-.55.09-.78.11-1.82.1-2.95.1-2.96,0Z"/><path class="cls-12" d="M281.77,281.01c.29-.02.3,1.89,1.97,3.25,1.67,1.36,3.75,1.15,3.76,1.41.03.12-.46.37-1.34.39-.86.03-2.12-.24-3.14-1.07-1.02-.83-1.46-1.94-1.52-2.73-.07-.8.14-1.27.28-1.26Z"/><path class="cls-12" d="M281,259.84c-.18.48-1.97.25-4.08.5-2.11.21-3.81.81-4.09.38-.12-.21.17-.66.86-1.12.68-.46,1.77-.9,3.03-1.04,1.27-.14,2.42.06,3.19.37.77.31,1.16.68,1.09.91Z"/><path class="cls-12" d="M297.54,261.31c-.32.4-1.55-.02-3.04-.03-1.49-.07-2.75.27-3.04-.15-.13-.2.07-.6.62-.98.54-.38,1.45-.69,2.47-.66,1.02.03,1.91.39,2.43.8.53.41.7.82.56,1.02Z"/><path class="cls-12" d="M301.06,247.17c-.18-1.82-.86-3.56-1.82-5.09.73-1.7.6-3.81-.62-5.23-1.71-2-5.11-2.11-7.05-.38-.03,0-.06-.02-.09-.03.58-1.02.14-2.55-.84-3.31-1.14-.89-2.69-1-4.13-.98-2.68.04-9.01,2.17-13.87,3.99-.31.06-.63.11-.93.17-3.78.76-8.15,2.28-11.08,4.79-3.65,3.12-5.7,7.63-6.93,12.26-1.24,4.64-1.26,9.51-.31,17.39,1.46-1.29,6.57-4.53,7.34-2.74.43,1.02.29,2.18.39,3.28.1,1.1.6,2.34,1.67,2.63.86.24,1.8-.27,2.3-1.01.5-.74.66-1.66.73-2.55.29-3.63-.62-7.31-.04-10.91.57-3.55,2.63-6.83,5.58-8.88,2.95-2.05,6.75-2.84,10.27-2.13,2.18.44,4.29,1.42,6.51,1.33,3.19-.12,6.46-2.42,9.34-1.04.57.27,1.14.54,1.69.86,1.09.64,1.63,1.27,1.89.7.19-.41.1-2.09,0-3.1Z"/><path class="cls-2" d="M260.27,266.31c-.22-.08-7.54-1.01-6.85,7.45.69,8.47,9.19,4.98,9.19,4.74s-2.34-12.19-2.34-12.19Z"/><path class="cls-5" d="M259.72,275.74s-.14.12-.39.25c-.24.13-.66.24-1.12.11-.94-.26-1.82-1.62-1.99-3.14-.09-.77.02-1.52.25-2.15.21-.64.59-1.1,1.04-1.22.45-.14.8.1.92.33.13.23.09.4.14.41.03.02.17-.16.08-.5-.05-.17-.17-.36-.38-.5-.22-.15-.53-.21-.85-.15-.66.1-1.21.75-1.47,1.44-.29.7-.42,1.54-.33,2.4.19,1.7,1.22,3.23,2.49,3.48.62.11,1.11-.11,1.36-.33.25-.23.28-.42.25-.44Z"/><path class="cls-6" d="M340.75,623.09l6.6-9.24-25.39-17.78-10.51,14.27,1.46,1.25c6.52,5.5,33.53,27.52,39.09,29.61,6.21,2.32-11.24-18.1-11.24-18.1Z"/><g class="cls-13"><path class="cls-9" d="M320.52,616.89c1.17-2.28,1.72-5.05,1.02-7.55-.7-2.5-1.68-4.36-4.8-6.18l-5,6.85,8.79,6.88Z"/></g><g class="cls-13"><path class="cls-9" d="M349,633.43s5.77,7.61,3.96,8.1c-1.81.49-29.92-20.76-41.52-31.19l.45-.51,32.59,25.06s3.05-2.49,4.53-1.46Z"/></g><path class="cls-12" d="M311.51,609.52s.13.14.39.36c.35.3.73.62,1.16.99,1.18.97,2.62,2.16,4.33,3.57,3.68,2.99,8.82,7.06,14.58,11.42,5.77,4.37,11.08,8.21,14.96,10.94,1.82,1.26,3.36,2.33,4.61,3.2.47.31.89.59,1.27.85.29.19.45.29.46.28,0-.01-.14-.13-.41-.34-.37-.27-.77-.57-1.23-.91-1.23-.9-2.75-2-4.54-3.29-3.84-2.78-9.12-6.66-14.88-11.02-5.76-4.37-10.92-8.4-14.64-11.33-1.74-1.37-3.21-2.53-4.4-3.48-.45-.35-.84-.66-1.2-.94-.28-.21-.43-.32-.44-.31Z"/><path class="cls-12" d="M344.19,635.26c.08.08.94-.91,2.42-1.46,1.46-.57,2.79-.41,2.79-.53.04-.09-1.36-.43-2.93.18-1.58.59-2.37,1.77-2.28,1.81Z"/><path class="cls-12" d="M339.65,626.15c.04.1.7-.06,1.48-.34.78-.28,1.38-.59,1.34-.69-.04-.1-.7.06-1.48.34-.78.28-1.38.59-1.34.69Z"/><path class="cls-12" d="M338.44,623.61c0,.1.59.14,1.3.09.71-.05,1.27-.18,1.26-.28,0-.1-.59-.14-1.3-.09-.71.05-1.27.18-1.26.28Z"/><path class="cls-12" d="M338.9,620.38c-.06.08.46.59,1.16,1.13.7.54,1.33.92,1.39.84.06-.08-.46-.59-1.16-1.13-.7-.54-1.33-.92-1.39-.84Z"/><path class="cls-12" d="M339.68,618.45c-.08.05.33.8,1.12,1.49.79.69,1.59,1.01,1.63.93.05-.09-.64-.54-1.38-1.2-.75-.66-1.28-1.28-1.37-1.22Z"/><path class="cls-12" d="M342.08,624.68s.53.56,1.59,1.19c.53.31,1.19.63,1.96.91.39.13.77.29,1.26.34.23.02.52,0,.76-.19.24-.18.31-.54.23-.8-.93-1.91-3.08-2.22-4.22-1.88-.6.16-1.03.43-1.3.64-.26.22-.37.37-.36.39.04.06.57-.53,1.72-.78.57-.12,1.28-.11,2,.16.68.26,1.51.82,1.79,1.55.11.37-.2.59-.61.54-.38-.03-.8-.19-1.17-.3-.75-.25-1.41-.54-1.94-.82-1.07-.55-1.68-1.01-1.71-.96Z"/><path class="cls-12" d="M342.43,625.07s.54-.19,1-.94c.22-.37.4-.87.42-1.46-.02-.56-.02-1.3-.72-1.79-.4-.23-.89.04-1.03.35-.18.29-.23.62-.25.9-.06.57-.03,1.08.04,1.5.14.85.39,1.33.43,1.31.06-.02-.11-.52-.17-1.34-.03-.41-.03-.9.04-1.43.03-.49.33-1.19.78-.96.42.26.54.95.54,1.45,0,.52-.14.99-.31,1.35-.36.72-.81,1.01-.76,1.06Z"/><path class="cls-12" d="M317.01,603.3c-.04.06.75.47,1.77,1.44,1.01.95,2.21,2.56,2.76,4.6.54,2.05.29,4.01-.12,5.31-.41,1.32-.9,2.04-.83,2.08.02.01.16-.15.37-.49.21-.33.47-.84.72-1.5.49-1.31.79-3.35.22-5.48-.57-2.14-1.86-3.78-2.94-4.71-.54-.47-1.03-.8-1.38-.99-.35-.19-.56-.28-.57-.26Z"/><path class="cls-12" d="M325.4,616.88c-.07.07,1.34,1.54,3.33,3.07,1.99,1.53,3.77,2.52,3.81,2.44.06-.09-1.62-1.21-3.59-2.73-1.97-1.51-3.48-2.85-3.55-2.78Z"/><path class="cls-12" d="M320.57,613.22c-.1.01-.12.43-.23.92-.1.49-.26.87-.17.93.08.06.42-.29.54-.85.12-.56-.04-1.02-.13-1Z"/><path class="cls-12" d="M320.43,609.63c-.1.01-.13.38-.07.83.06.45.2.8.3.78.1-.01.13-.38.07-.83-.06-.45-.2-.8-.3-.78Z"/><path class="cls-12" d="M318.6,606.65c-.04.1.28.34.55.74.28.39.39.78.49.78.1,0,.15-.49-.19-.98-.33-.49-.83-.63-.86-.53Z"/><path class="cls-12" d="M317.1,604.77c-.09.05-.04.28.11.52.15.23.33.38.42.32.09-.05.04-.28-.11-.52-.15-.23-.33-.38-.42-.32Z"/><g class="cls-17"><polygon class="cls-1" points="317.74 601.8 343.4 619.48 344.14 618.5 319.2 599.74 317.74 601.8"/></g><path class="cls-6" d="M463.97,652.37l-2.37-10.83-29.5,6.75,3.45,16.95,1.86-.24c8.25-1.12,41.89-6.26,47.04-8.92,5.74-2.97-20.47-3.71-20.47-3.71Z"/><g class="cls-13"><path class="cls-9" d="M446.24,662.96c-.88-2.34-2.53-4.55-4.8-5.68-2.27-1.13-4.26-1.64-7.62-.57l1.69,8.11,10.74-1.86Z"/></g><g class="cls-13"><path class="cls-9" d="M476.86,653.16s9.29.81,8.46,2.44c-.83,1.63-34.63,8.08-49.78,9.64l-.08-.66,39.49-7.19s.19-3.83,1.9-4.23Z"/></g><path class="cls-12" d="M435,664.65s.18,0,.52-.04c.44-.06.93-.12,1.48-.19,1.47-.22,3.29-.48,5.42-.8,4.57-.71,10.88-1.76,17.82-3.08,6.94-1.32,13.2-2.65,17.71-3.67,2.1-.49,3.89-.91,5.34-1.25.54-.13,1.01-.25,1.45-.36.33-.09.5-.14.5-.15,0-.01-.18.02-.51.08-.44.09-.92.19-1.46.3-1.46.31-3.25.69-5.36,1.13-4.53.96-10.79,2.24-17.73,3.56-6.94,1.32-13.23,2.41-17.8,3.18-2.13.36-3.94.66-5.4.91-.54.1-1.03.18-1.47.26-.34.06-.51.1-.51.11Z"/><path class="cls-12" d="M475.04,657.85c.11,0-.04-1.28.53-2.71.54-1.44,1.53-2.29,1.45-2.37-.04-.08-1.2.71-1.79,2.24-.61,1.53-.27,2.87-.18,2.83Z"/><path class="cls-12" d="M465.47,655.17c.09.04.42-.54.72-1.29s.48-1.39.38-1.42c-.09-.04-.42.54-.72,1.29-.3.75-.48,1.39-.38,1.42Z"/><path class="cls-12" d="M462.84,654.38c.08.06.49-.34.91-.88.42-.55.7-1.04.62-1.1-.08-.06-.49.33-.91.88-.42.55-.7,1.04-.62,1.1Z"/><path class="cls-12" d="M460.8,651.94c.02.1.73.05,1.58-.1.86-.15,1.54-.36,1.52-.45s-.73-.05-1.58.1c-.86.15-1.54.36-1.52.45Z"/><path class="cls-12" d="M459.92,650.11c-.02.09.8.28,1.82.16,1.02-.11,1.77-.48,1.74-.57-.04-.1-.81.11-1.77.22-.97.12-1.76.09-1.78.19Z"/><path class="cls-12" d="M466,652.45s.75-.01,1.9-.37c.57-.18,1.24-.45,1.94-.82.35-.2.72-.37,1.07-.69.16-.16.34-.37.36-.67.03-.29-.19-.58-.43-.69-1.99-.58-3.62.77-4.12,1.82-.28.54-.36,1.03-.38,1.36-.02.33.02.51.05.51.07.01-.01-.76.56-1.76.28-.49.76-1,1.43-1.34.63-.32,1.58-.56,2.3-.28.34.16.29.53,0,.79-.28.26-.66.46-.98.65-.67.38-1.31.67-1.86.87-1.1.42-1.83.56-1.82.61Z"/><path class="cls-12" d="M466.51,652.45s.22-.51-.03-1.34c-.12-.4-.37-.86-.78-1.26-.41-.35-.96-.84-1.76-.65-.43.14-.55.67-.42.97.1.32.3.57.48.77.37.41.76.73,1.11.96.71.46,1.22.59,1.23.55.02-.05-.44-.26-1.08-.75-.32-.25-.67-.57-1.01-.97-.34-.34-.65-1.02-.19-1.19.47-.14,1.04.24,1.4.55.38.35.62.75.77,1.11.29.73.21,1.25.27,1.25Z"/><path class="cls-12" d="M434.1,656.6c.02.06.83-.24,2.2-.34,1.35-.11,3.3.07,5.14,1.02,1.84.95,3.09,2.41,3.77,3.56.69,1.16.89,1.98.96,1.96.02,0,0-.22-.11-.59-.1-.37-.3-.89-.62-1.5-.63-1.21-1.9-2.76-3.82-3.75-1.92-.98-3.95-1.13-5.33-.95-.7.08-1.25.22-1.62.35-.37.13-.56.22-.56.24Z"/><path class="cls-12" d="M449.42,659.42c0,.09,1.99.04,4.4-.4,2.41-.43,4.29-1.08,4.26-1.17-.03-.1-1.94.38-4.33.81-2.39.44-4.35.65-4.34.76Z"/><path class="cls-12" d="M443.62,660.52c-.06.09.23.37.51.77.29.39.46.76.56.74.1-.02.07-.49-.26-.94-.33-.46-.76-.64-.81-.56Z"/><path class="cls-12" d="M440.92,658.27c-.06.08.19.35.56.59.36.25.71.38.76.3.06-.08-.19-.35-.56-.59-.36-.25-.71-.38-.76-.3Z"/><path class="cls-12" d="M437.56,657.65c.04.09.43.02.9.08.46.06.82.23.89.15.07-.07-.26-.43-.83-.51-.57-.08-.99.19-.95.27Z"/><path class="cls-12" d="M435.23,657.5c-.02.1.18.21.44.26.26.05.49,0,.51-.09.02-.1-.18-.21-.44-.26-.26-.05-.49,0-.51.09Z"/><g class="cls-17"><polygon class="cls-1" points="433.48 655.09 463.1 648.09 462.87 646.9 432.95 652.68 433.48 655.09"/></g><path class="cls-5" d="M387.17,389.64c0-.55,5.07-5.35,5.9-5.62s15.64-6.45,15.91-5.76c.27.69,2.06,4.06-.96,5.67l-2.33.78,8.5.69s9.46,7,9.33,8.5c-.14,1.51-1.37,2.47-2.19,1.78-.82-.69,2.2,4.8,2.2,4.8,0,0,0,2.33-1.24,1.92-1.23-.41-3.15-2.61-3.15-2.61,0,0,1.78,2.88,1.23,3.43-.55.55-3.29.69-3.57,0-.27-.69-.69-1.92-.69-1.92l-1.65.14v2.25l-25.1.77-2.19-14.81Z"/><polygon class="cls-3" points="289.89 320.37 297.55 329.44 328.21 383.1 387.99 389.01 389.31 406.31 320.44 412.81 282 343.24 289.89 320.37"/><path class="cls-7" d="M295.94,346.54l-5.93-22.39-.13-7.29-33.28-15.11-6.4,7.95.77.41c-2.62,2.75-21.99,23.69-20.84,39.12,1.04,13.92,30.35,101.58,30.35,101.58l66.78-19.52-31.33-84.76Z"/><path class="cls-6" d="M289.28,324.45l-1.87,9.17,4.88,9.18v6.79l34.98,81.71,10.35,3.48,1.75-7.01s-29.13-49.71-34.16-63.73c-5.04-14.02-12.48-34.16-12.48-34.16l-3.45-5.43Z"/><path class="cls-7" d="M236.17,365.63c0,.87,60.31,59.15,60.31,59.15l81.48-15.95-2.61-17.4-55.63,1.51c-6.08.25-10.92-1.78-14.63-6.61-11.93-15.5-37.8-49.1-38.47-50-.87-1.16-30.45,29.29-30.45,29.29Z"/><path class="cls-8" d="M375.35,391.44s.08.36.2,1.09c.12.77.3,1.87.54,3.3.47,2.97,1.15,7.32,2.04,12.98l.02.16-.16.03c-14.18,2.74-36.86,7.12-65.04,12.57-1.76.34-3.55.68-5.36,1.03-1.81.36-3.71.57-5.62.5-3.82-.12-7.69-1.24-11.09-3.33-1.7-1.04-3.27-2.32-4.66-3.79-1.37-1.49-2.65-3.02-4-4.55-2.67-3.07-5.38-6.19-8.14-9.36-11.02-12.68-22.71-26.13-34.83-40.06l-.04-.05-.02-.06c-.08-.2-.16-.42-.25-.63-1.17-2.99-1.94-6.17-1.96-9.38-.05-3.2.68-6.44,2.33-9.17,1.62-2.76,4.07-4.87,6.7-6.5,2.68-1.57,5.66-2.63,8.72-2.89,3.05-.31,6.17.25,8.88,1.58,2.72,1.32,4.98,3.34,6.93,5.5,1.95,2.17,3.62,4.52,5.25,6.83,1.64,2.3,3.27,4.57,4.87,6.81,6.48,8.93,12.91,17.22,19.11,24.82,1.56,1.89,3.1,3.75,4.6,5.58,1.55,1.79,2.94,3.68,4.63,5.13,1.68,1.48,3.82,2.17,5.95,2.43,2.14.26,4.27.2,6.37.17,16.71-.25,30.23-.46,39.61-.6,4.63-.06,8.24-.1,10.72-.13,1.2,0,2.12-.02,2.77-.02.62,0,.93.01.93.01,0,0-.34.03-.98.05-.66.02-1.6.05-2.82.08-2.49.06-6.12.16-10.78.27-9.35.21-22.82.52-39.47.9-2.07.04-4.23.11-6.44-.15-2.19-.25-4.49-.98-6.27-2.54-1.78-1.53-3.16-3.41-4.72-5.19-1.51-1.82-3.06-3.68-4.63-5.57-6.23-7.6-12.68-15.88-19.19-24.81-1.61-2.24-3.24-4.52-4.89-6.81-1.63-2.31-3.29-4.63-5.2-6.76-1.91-2.12-4.1-4.06-6.7-5.32-2.59-1.26-5.55-1.79-8.48-1.5-5.82.56-11.63,3.86-14.82,9.02-1.56,2.6-2.26,5.68-2.21,8.77.02,3.09.76,6.18,1.9,9.11.08.21.16.42.24.62l-.07-.11c12.1,13.94,23.79,27.4,34.8,40.08,2.75,3.17,5.46,6.3,8.13,9.37,1.34,1.52,2.64,3.09,3.97,4.54,1.34,1.43,2.87,2.67,4.51,3.68,3.28,2.03,7.04,3.12,10.74,3.25,1.86.07,3.68-.12,5.47-.47,1.81-.34,3.59-.68,5.36-1.01,28.21-5.31,50.91-9.58,65.11-12.25l-.13.19c-.8-5.63-1.42-9.96-1.84-12.92-.2-1.46-.35-2.57-.46-3.35-.1-.76-.14-1.16-.14-1.16Z"/><path class="cls-8" d="M289.89,316.86c.08.02-.23,1.49-.53,4.1-.35,2.6-.5,6.35-1.43,10.79l-.1.46-.41-.24c-3.52-2.02-7.58-4.36-11.9-6.85-6.86-3.98-13.05-7.63-17.51-10.3-2.13-1.29-3.89-2.37-5.26-3.2-1.23-.77-1.9-1.22-1.88-1.27.03-.05.75.31,2.03,1,1.4.77,3.21,1.78,5.39,2.98,4.53,2.55,10.77,6.11,17.63,10.1,4.3,2.52,8.35,4.89,11.85,6.94l-.51.22c.98-4.33,1.23-8.1,1.7-10.69.21-1.3.42-2.32.6-3,.18-.69.3-1.04.33-1.04Z"/><path class="cls-2" d="M410.3,391.47l-14.54-3.98-12.07,6.04h-6.86l-1.1.45,1.95,13.02,1.73.25s1.94,1.37,5.78,2.19c3.84.82,9.46-1.65,9.46-1.65l7.68-4.25,5.49-1.56,4.11,2.38s.41,1.65.41,2.19,1.51,1.23,2.33,1.23,1.1-1.92,1.1-1.92l-.96-4.11,1.92,1.78h4.8v-3.02l-11.25-9.05Z"/><polygon class="cls-12" points="377.96 486.97 315.31 598.52 348.79 621.23 404.17 522.94 394.84 486.97 377.96 486.97"/><path class="cls-12" d="M260.5,450.81s-7.19,30.31,12.33,36.47c19.52,6.16,121.06,9.38,121.06,9.38l37.74,155.87,32.31-4.59-27.87-167.05c-2.06-11.69-11.19-20.86-22.87-22.94-30.11-5.38-84.66-15.26-85.4-16.38-1.03-1.54-5.14-10.27-5.14-10.27l-62.15,19.52Z"/><path class="cls-8" d="M406.02,544.3s-.14-.27-.33-.8c-.2-.53-.45-1.33-.75-2.36-.6-2.07-1.34-5.1-2.13-8.86-.78-3.8-1.69-8.27-2.71-13.22-1.1-4.93-2.21-10.46-4.7-15.7-1.28-2.55-2.97-5-5.55-5.83-2.55-.89-5.2-1.31-7.7-1.69-5.02-.7-9.58-1.02-13.41-1.26-3.83-.23-6.94-.36-9.08-.44-1-.04-1.82-.07-2.47-.1-.57-.03-.86-.06-.86-.08s.3-.05.86-.07c.57-.03,1.4-.04,2.48-.05,2.15,0,5.26.03,9.11.19,3.84.17,8.42.44,13.48,1.1,2.52.36,5.18.76,7.86,1.68.66.28,1.34.55,1.95.98.6.43,1.15.94,1.64,1.49.97,1.11,1.73,2.4,2.4,3.73,2.55,5.39,3.64,10.95,4.7,15.91,1.01,4.99,1.81,9.49,2.54,13.26.72,3.77,1.38,6.81,1.89,8.89.49,2.09.84,3.22.78,3.25Z"/><polygon class="cls-8" points="774.81 413.67 371.55 412.22 371.5 424.2 395.44 424.28 394.6 657.5 403.06 657.53 403.89 424.31 737.11 425.51 736.27 658.72 744.72 658.75 745.56 425.54 774.77 425.64 774.81 413.67"/><polygon class="cls-3" points="636.3 347.51 658.67 412.87 759.96 412.87 759.21 409.51 718.25 408.24 699.39 347.47 636.3 347.51"/><path class="cls-9" d="M681.18,378.21c.67,2.68-.48,5.3-2.56,5.86-2.08.56-4.32-1.16-4.98-3.84-.67-2.68.48-5.3,2.56-5.86,2.08-.56,4.32,1.16,4.98,3.84Z"/><polygon class="cls-3" points="536.63 345.67 514.26 411.04 412.98 411.04 413.72 407.67 454.68 406.41 473.55 345.64 536.63 345.67"/><path class="cls-9" d="M491.75,376.38c-.67,2.68.48,5.3,2.56,5.86,2.08.56,4.32-1.16,4.98-3.84.67-2.68-.48-5.3-2.56-5.86-2.08-.56-4.32,1.16-4.98,3.84Z"/><circle class="cls-8" cx="577.73" cy="388.16" r="12.4" transform="translate(101.83 896.06) rotate(-80.76)"/><rect class="cls-3" x="537.24" y="383.27" width="80.99" height="29.6"/><path class="cls-12" d="M568.38,391.44c0,.22-5.92.39-13.21.39s-13.21-.18-13.21-.39,5.91-.39,13.21-.39,13.21.18,13.21.39Z"/><path class="cls-12" d="M568.38,395.69c0,.22-5.92.39-13.21.39s-13.21-.18-13.21-.39,5.91-.39,13.21-.39,13.21.18,13.21.39Z"/><path class="cls-12" d="M568.38,399.94c0,.22-5.92.39-13.21.39s-13.21-.18-13.21-.39,5.91-.39,13.21-.39,13.21.18,13.21.39Z"/><path class="cls-12" d="M568.38,404.19c0,.22-5.92.39-13.21.39s-13.21-.18-13.21-.39,5.91-.39,13.21-.39,13.21.18,13.21.39Z"/><path class="cls-12" d="M583.15,412.18c-.22,0-.39-6.37-.39-14.22s.18-14.22.39-14.22.39,6.36.39,14.22-.18,14.22-.39,14.22Z"/></svg>