<?xml version="1.0" encoding="UTF-8"?><svg id="Layer_1" xmlns="http://www.w3.org/2000/svg" viewBox="0 0 1080 1080"><defs><style>.cls-1{fill:#479275;}.cls-1,.cls-2,.cls-3,.cls-4,.cls-5,.cls-6,.cls-7,.cls-8,.cls-9,.cls-10,.cls-11,.cls-12,.cls-13{stroke-width:0px;}.cls-14{stroke:#f3bd87;}.cls-14,.cls-15,.cls-16{fill:none;stroke-linecap:round;stroke-linejoin:round;}.cls-2{fill:#ffd392;}.cls-17{font-family:Poppins-Light, Poppins;font-size:64.52px;font-weight:300;letter-spacing:.5em;}.cls-17,.cls-18{fill:#c16b6b;}.cls-3{fill:#f3bd87;}.cls-4{fill:#367b61;}.cls-18{font-family:Poppins-Black, Poppins;font-size:90.42px;font-weight:800;letter-spacing:.05em;}.cls-5{fill:#e2ac7c;}.cls-6{fill:#83c7ab;}.cls-7{fill:#62b192;}.cls-8{fill:#d09769;}.cls-9{fill:#432918;}.cls-15{stroke:#5b3c2a;}.cls-10{fill:#a48a7a;}.cls-16{stroke:#a48a7a;}.cls-11{fill:#ff9a68;}.cls-12{fill:#5da78a;}.cls-13{fill:#ed7b54;}</style></defs><text class="cls-18" transform="translate(408.18 893)"><tspan x="0" y="0">UMUM</tspan></text><text class="cls-17" transform="translate(325.26 787.19)"><tspan x="0" y="0">LAYANAN</tspan></text><path class="cls-11" d="M417.06,374.99s-1.72-14.42-3.95-21.29c-2.23-6.87-11.68-19.92-11.68-19.92,0,0-3.78,8.07,1.72,14.77,0,0-.34,10.65.17,14.42,0,0-17.85-15.25-21.28-16.79h0c-2.18-1.74-4.84-3.86-8.08-6.44-11.85-9.44-19.75-6.52-18.72-5.84.71.47,14.26,11.43,22.65,18.22l-1.1,1.57c-2.55-2.03-6.61-5.27-12.62-10.07-11.85-9.44-19.75-6.52-18.72-5.84.86.57,20.7,16.64,27.16,21.88l-1.91,2.73c-2.51-2-6.68-5.33-13.06-10.42-11.85-9.44-19.75-6.52-18.72-5.84.88.59,21.66,17.42,27.6,22.24l-2.02,2.9c-2.21-2-8.33-7.44-14.25-11.57-7.38-5.15-12.71-2.75-12.71-2.75l3.26,2.92c3.26,2.92,20.26,16.31,20.26,16.31,0,0,25.95,23.18,32.47,25.41l6.35,6.06,23.37-25.29-6.21-7.38Z"/><path class="cls-5" d="M603.89,535.11c-13.93,20.09-33.42,32.5-59.33,27.23-69.39-14.1-151.32-148.8-151.32-148.8l4.12-4.46,30.58-33.08,106.43,96.71,33.24-48.11,32.46-46.98,16.04-23.22s9.4,14.86,15.31,62.08c3.69,29.6-4.11,84.92-27.53,118.63Z"/><path class="cls-8" d="M603.89,535.11c-13.93,20.09-33.42,32.5-59.33,27.23-69.39-14.1-151.32-148.8-151.32-148.8l4.12-4.46,2.54-1.41s97.64,134.32,138.78,114.34c25.44-12.35,29.53-61.59,28.92-97.41l32.46-46.98,3.82,157.5Z"/><polygon class="cls-1" points="864.52 522 858.2 633.33 833.68 633.33 843.32 522 864.52 522"/><polygon class="cls-1" points="714.45 522 708.13 633.33 683.61 633.33 693.25 522 714.45 522"/><rect class="cls-1" x="637.83" y="362.7" width="264.16" height="178.57" rx="34.96" ry="34.96"/><rect class="cls-7" x="621.44" y="362.7" width="264.16" height="178.57" rx="34.96" ry="34.96"/><path class="cls-2" d="M704.24,312.57s38.31-6.15,89.85,47.17l11.89,273.59h-215.4s-23.52-184.58,3.9-250.22c27.42-65.64,76.66-73.48,109.77-70.54Z"/><path class="cls-11" d="M629.09,164.19l9.46-12.95,80.63,27-.7,30.28h5.32c10.81,0,19.58,8.77,19.58,19.58h0c0,10.81-8.77,19.58-19.58,19.58h-6.23l-.95,41.11v36.12l-58.37,8.03-1.43-24.16-.76-12.69-8.47-4.04c-24.25-11.57-39.69-36.04-39.69-62.91,0-23.35,7.42-46.09,21.19-64.94Z"/><path class="cls-13" d="M656.06,296.08l.76,12.69c2.15-.26,4.39-.59,6.73-1.01,36.05-6.57,50.17-39.16,48.7-55.95,0,0-12.16,40.38-56.19,44.27Z"/><path class="cls-13" d="M724.4,222.49c-1.51,1.14-2.9,2.66-3.4,4.55,0,0,3.01,1,3.28,4.38.27,3.37-3.28,4.83-3.28,4.83,0,0,2.74,4.56,7.3,2.1,4.56-2.46,3.81-11.06-.73-12.86,0,0,7.21-.82,9.85,1.82,0,0,.6-2.65-2.41-5-3.1-2.42-7.47-2.19-10.61.18Z"/><path class="cls-9" d="M629.09,164.19s10.92,18.79,25.02,24.87,29.19-2.77,43.3,5.3c14.11,8.07,5.11,23.21,8.27,30.48,3.16,7.27,6.67,8.24,6.67,8.24,0,0,1.9-20.67,6.13-24.57,0,0,12.67-.11,16.61,3.58,0,0,7.08-14.29,8.29-25.48,1.22-11.19-11.19-14.84-11.19-14.84,0,0-2.92-26.76-35.76-36.73-32.84-9.97-57.89,5.84-71.02,0-13.13-5.84-25.05,2.92-25.78,16.18-.73,13.26,8.27,18.12,8.27,18.12,0,0-6.08,5.13-3.65,13.02,2.43,7.9,10.07,9.72,10.07,9.72,0,0,8.99-20.02,14.77-27.91Z"/><path class="cls-10" d="M727.32,315.43l-10.58-13.76-42.03,14.81-6.8,11.81-4.6-10.61-6.38-6.97-6.62,12.77s.2,12.81,16.41,16.21c16.21,3.4,51.63-9.81,60.61-24.26Z"/><path class="cls-12" d="M735.08,212.11s-6.53-2.5-12.74,3.21c-6.2,5.7-4.1,11.31-4.1,11.31,0,0,2.87-6.76,9.01-6.02,6.14.74,10.61,17.33,2.4,20.43-8.2,3.1-18.68-1.63-18.31-14.41.37-12.78,5.05-20.01,12.78-21.11,7.73-1.1,10.79,5.39,10.96,6.6Z"/><path class="cls-12" d="M677.07,276.36c-.79,0-1.5-.56-1.66-1.37-.17-.92.42-1.8,1.34-1.97,31.78-6.11,42.55-36.04,42.66-36.35.3-.88,1.26-1.34,2.15-1.04.88.31,1.35,1.26,1.04,2.14-.11.32-11.47,32.06-45.21,38.55-.11.02-.21.03-.32.03Z"/><path class="cls-1" d="M669.98,275.25c0,3.93,3.18,7.11,7.11,7.11s7.11-3.18,7.11-7.11-3.18-7.11-7.11-7.11-7.11,3.18-7.11,7.11Z"/><path class="cls-1" d="M726.45,223.67s-.9,7.86.83,12.06c1.73,4.2,4.43,2.03,4.95-3.08.53-5.1-4.58-12.26-5.78-8.98Z"/><path class="cls-1" d="M512.51,633.33s-.72-21.34,23.31-28.03c24.03-6.69,53.31,12.86,58.01,28.03h-81.32Z"/><path class="cls-3" d="M853.28,565.41c-6.08,18.3-17.21,32.14-30.39,41.94-8.98,6.65-18.91,11.41-28.81,14.41-41.35,12.54-194.5,11.58-194.5,11.58l5.76-46.27,171.49-38.55s-22.18-70.37-21.2-127.22c.89-52.91,16.66-74.72,34.44-64.42,1.34.79,2.67,1.73,4.01,2.86,0,0,27.08,40.35,55.02,123.23,11.43,33.89,11.22,61.16,4.18,82.44Z"/><path class="cls-11" d="M587.92,593.21l-36.38-6.63s-6.69-1.14-13.37,1.75c-6.69,2.89-14.28,16.99-14.28,16.99,0,0,6.14.09,10.3-3.66,4.16-3.75,4.7-7,4.7-7l13.35,1.04.24,3.1c-4.46.97-17.15,3.87-23.35,6.52-7.59,3.25-11.57,13.19-11.57,13.19,0,0,9.94-1.45,15-7.59l20.67-2.34.15,1.93c-4.26.29-11.87,1.24-19.01,4.39-10.66,4.7-13.91,11.02-13.91,11.02,0,0,10.66,0,18.16-5.78l5.05-.42c-4.99,3.2-9.3,10.9-9.3,10.9,0,0,2.17.54,7.05-1.63,4.88-2.17,6.14-4.64,6.14-4.64l14.22,1.06h0c7.38,1.05,18.55,2.09,24.93-.04l13.6,2.09,4.27-34.25h-16.66Z"/><path class="cls-1" d="M890.79,655.73H206.68c-6.18,0-11.2-5.01-11.2-11.2h0c0-6.18,5.01-11.2,11.2-11.2h684.11c6.18,0,11.2,5.01,11.2,11.2h0c0,6.18-5.01,11.2-11.2,11.2Z"/><path class="cls-7" d="M628.55,655.73H202.21c-3.71,0-6.72-5.01-6.72-11.2h0c0-6.18,3.01-11.2,6.72-11.2h426.35c3.71,0,6.72,5.01,6.72,11.2h0c0,6.18-3.01,11.2-6.72,11.2Z"/><path class="cls-7" d="M499.63,590.19h-235.6c-7.95,0-14.82-5.53-16.53-13.29l-30.45-138.31c-1.49-6.78,3.67-13.21,10.62-13.21h238.25c7.04,0,13.14,4.9,14.65,11.78l30.55,138.74c1.62,7.34-3.97,14.29-11.49,14.29Z"/><path class="cls-6" d="M302.66,566.76c-1.97,9.91-13.53,15.97-25.83,13.52-12.3-2.44-20.68-12.46-18.71-22.37,1.97-9.91,13.53-15.97,25.83-13.52,12.3,2.44,20.68,12.46,18.71,22.37Z"/><path class="cls-1" d="M511.11,575.9l-30.55-138.74c-1.51-6.88-7.61-11.78-14.65-11.78h-13.73c7.04,0,13.14,4.9,14.65,11.78l30.55,138.74c1.62,7.34-3.97,14.29-11.49,14.29h13.73c7.51,0,13.1-6.95,11.49-14.29Z"/><path class="cls-1" d="M470.34,627.78c0,3.07-2.48,5.55-5.55,5.55h-195.58c-3.14,0-5.99-1.28-8.04-3.34-2.07-2.06-3.34-4.89-3.34-8.04,0-2.24.67-4.44,1.92-6.31l48.4-72.52c1.38-2.04,3.68-3.27,6.14-3.27h84.63c3.04,0,4.94,3.29,3.41,5.92l-40.87,70.6c-1.52,2.61.37,5.87,3.37,5.87h99.95c1.53,0,2.92.62,3.93,1.64,1,1,1.62,2.38,1.62,3.91Z"/><path class="cls-1" d="M412.28,506.82h-119.99c-1.4,0-2.53-1.13-2.53-2.53h0c0-1.4,1.13-2.53,2.53-2.53h119.99c1.4,0,2.53,1.13,2.53,2.53h0c0,1.4-1.13,2.53-2.53,2.53Z"/><path class="cls-1" d="M418.06,522h-119.99c-1.4,0-2.53-1.13-2.53-2.53h0c0-1.4,1.13-2.53,2.53-2.53h119.99c1.4,0,2.53,1.13,2.53,2.53h0c0,1.4-1.13,2.53-2.53,2.53Z"/><path class="cls-6" d="M219.53,433.58h254.09c2.07,0,4.05.38,5.89,1.06-2.29-5.52-7.71-9.26-13.86-9.26h-238.25c-5.29,0-9.53,3.73-10.61,8.5.88-.2,1.79-.31,2.74-.31Z"/><path class="cls-6" d="M480.56,566.76c-1.97,9.91-13.53,15.97-25.83,13.52-12.3-2.44-20.68-12.46-18.71-22.37,1.97-9.91,13.53-15.97,25.83-13.52,12.3,2.44,20.68,12.46,18.71,22.37Z"/><path class="cls-4" d="M470.33,628.18c-.21,2.95-2.87,5.15-5.83,5.15h-111.3c-4.49,0-8.14-3.64-8.14-8.14h0c0-1.54.44-3.04,1.26-4.34l51.14-81.01h1.48c3.04,0,4.94,3.29,3.41,5.92l-40.87,70.6c-1.52,2.61.37,5.87,3.37,5.87h99.95c1.53,0,2.92.62,3.93,1.64,1.08,1.08,1.72,2.62,1.6,4.32Z"/><path class="cls-5" d="M794.08,621.75c-41.35,12.54-194.5,11.58-194.5,11.58l197.87-52.65c20.69-5.51,33.87-25.75,30.5-46.9-8.7-54.66-25.53-152.75-37.89-176.9,1.34.79,2.67,1.73,4.01,2.86,0,0,27.08,40.35,55.02,123.23,27.94,82.89-13.65,126.26-55.02,138.78Z"/><path class="cls-16" d="M782.41,550.45s28.29-.4,51.27,20.58"/><path class="cls-14" d="M723.21,320.37s37.23,12.66,55.56,34.37"/><path class="cls-16" d="M537.88,479.03s20.56,26.63,23.19,57.3"/><path class="cls-14" d="M644.23,323.68s-7.82,21.93,24.83,24.62c32.65,2.69,68.43-29.34,68.43-29.34"/><polygon class="cls-13" points="599.58 593.21 591.93 626.17 600.31 627.46 604.58 593.21 599.58 593.21"/><path class="cls-14" d="M666.71,339.69s-9.68,27.58-16.41,98.92"/><path class="cls-15" d="M729.23,172.1s-15.25-3.61-29.05,1.7"/><path class="cls-15" d="M629.09,164.19s-1.54,22.33,26.71,25.52"/><path class="cls-15" d="M731.75,157.38s3.29,8.87.44,14.42"/><path class="cls-15" d="M603.8,148.32s-1.27,13.71,12.74,19.11"/><path class="cls-15" d="M608.9,173.8s-2.6,10.26,7.08,14.69"/><path class="cls-15" d="M654.12,138.77s18.07-7.92,43.73,3.61c23.15,10.4,25.36,23.35,25.36,23.35"/><path class="cls-15" d="M731.75,177.62s5.1,2.41,5.1,9.62-3.49,14.58-3.49,14.58"/><path class="cls-15" d="M646.9,175.07s3.6,9.55,24.62,10.62c21.02,1.06,27.81,1.06,33.55,7.85,5.73,6.79,3.82,14.22,3.82,14.22"/></svg>