<?xml version="1.0" encoding="UTF-8"?><svg id="Layer_1" xmlns="http://www.w3.org/2000/svg" xmlns:xlink="http://www.w3.org/1999/xlink" viewBox="0 0 1080 1080"><defs><style>.cls-1{fill:#fbbe30;}.cls-1,.cls-2,.cls-3,.cls-4,.cls-5,.cls-6,.cls-7,.cls-8,.cls-9,.cls-10,.cls-11,.cls-12,.cls-13,.cls-14,.cls-15,.cls-16{stroke-width:0px;}.cls-2{fill:#d6b79a;}.cls-17{font-family:Poppins-Light, Poppins;font-size:64.52px;font-weight:300;letter-spacing:.5em;}.cls-17,.cls-18{fill:#c16b6b;}.cls-18{font-family:Poppins-Black, Poppins;font-size:90.42px;font-weight:800;letter-spacing:.05em;}.cls-3{fill:#1a1a1a;}.cls-4{fill:#f7aa94;}.cls-5{fill:none;}.cls-6{fill:#e7d8cb;}.cls-7{fill:#e6e6e6;}.cls-8{fill:#232322;}.cls-19{clip-path:url(#clippath);}.cls-9{fill:#313b60;}.cls-10{fill:#111;}.cls-11{fill:#2d2d2d;}.cls-12{fill:#202942;}.cls-13{fill:#202020;}.cls-14{fill:#d68f7e;}.cls-15{fill:#facfc3;}.cls-16{fill:#e4d5cd;}</style><clipPath id="clippath"><rect class="cls-5" x="340.17" y="90.58" width="442.49" height="580.53"/></clipPath></defs><text class="cls-18" transform="translate(229.41 893)"><tspan x="0" y="0">PENGADUAN</tspan></text><text class="cls-17" transform="translate(301.69 787.19)"><tspan x="0" y="0">LAYANAN</tspan></text><g class="cls-19"><path class="cls-15" d="M431.23,355.06c-15.75,25.39-47.05,73.67-58.53,101.36-6.54,15.77,7.49,27.87,20.25,31.74,12.76,3.87,25.93-19.31,27.02-23.87,16.43-26.76,34.31-37.7,44.03-67.69,5.84-18.04,8.99-57.65-.16-61.24-9.15-3.6-26.55,9.97-32.6,19.72Z"/><path class="cls-9" d="M480.91,339.64c6.88,23.36-20.07,82.32-20.07,82.32l-35.72,51.06c-18.83-2.5-52.84-37.1-52.84-37.1,0,0,33.11-53.51,47.16-71.37,13.97-17.77,29.84-39.53,50.26-37.29,2.55.28,10.17,8.83,11.21,12.38Z"/><path class="cls-15" d="M681.45,354.44c15.75,25.39,47.05,73.67,58.53,101.36,6.54,15.77-7.49,27.87-20.25,31.74-12.76,3.87-25.93-19.31-27.02-23.87-16.43-26.76-34.31-37.7-44.03-67.69-5.84-18.04-8.99-57.65.16-61.25,9.15-3.6,26.55,9.97,32.6,19.72Z"/><path class="cls-9" d="M631.77,339.02c-6.88,23.36,20.07,82.32,20.07,82.32l35.72,51.06c18.83-2.5,52.84-37.1,52.84-37.1,0,0-33.11-53.51-47.16-71.37-13.97-17.77-29.84-39.53-50.26-37.29-2.55.28-10.17,8.83-11.21,12.38Z"/><path class="cls-7" d="M649.11,1128.73c-1.04-3.91-2.79-9.71-4.65-12.78l-29.13-48.1s7.43-85.78,6.44-95.16c-.46-4.37-42.18,8.12-42.23,13.06l-1.98,110.08c3.03,11.64,6.53,21.94,10.44,32.89h61.11Z"/><path class="cls-13" d="M663.32,1127.58c-7.43-14.12-17.6-27.07-26.39-40.61-5.03-3.83-11.17-6.6-17.74-7.87-11.56-2.23-24.25.23-33.52,6.52-.33,5.37-.65,10.75-.98,16.12-2.12,1.08-2.78-.28-3.78-2.2s-1.71-4.24-1.34-6.31c.67-3.85.83-8.7.84-11.43.01-2.73-2.19-8.48-2.19-8.48-.38,9.14-3.58,28.41-2.59,46.53.49,8.96,1.93,15.77,8.44,15.77h73.78c2.96-.52,7.82-3.56,5.46-8.03Z"/><path class="cls-7" d="M463.87,1128.17c1.04-3.91,2.79-9.71,4.65-12.78l29.13-48.1s-11.33-86.63-10.34-96.01c.46-4.37,46.07,8.32,46.13,13.26l1.98,110.74c-3.03,11.64-6.53,21.94-10.44,32.89h-61.11Z"/><path class="cls-13" d="M449.67,1127.03c7.43-14.12,17.6-27.07,26.39-40.61,5.03-3.83,11.17-6.6,17.74-7.87,11.56-2.23,24.25.23,33.52,6.52.33,5.37.65,10.75.98,16.12,2.12,1.08,2.78-.28,3.78-2.2s1.71-4.24,1.34-6.31c-.67-3.85-.83-8.7-.84-11.43-.01-2.73,2.19-8.48,2.19-8.48.38,9.14,3.58,28.41,2.59,46.53-.49,8.96-1.93,15.77-8.44,15.77h-73.78c-2.96-.52-7.82-3.56-5.46-8.03Z"/><path class="cls-2" d="M635.73,549.76c9.7,13.55,21.02,47.68,19.94,57.8-7.68,72.29-12.49,176.38-12.49,204.59s-43.07,19.94-43.07,19.94c-9.99.39-30.8-6.68-31.55-19.72-3.9-67.51-4.19-169.89-8.1-237.4-2.52-1.65-21.44-16.76-32-25.22h107.26Z"/><path class="cls-2" d="M565.82,812.57c-7.32,28.62-1.68,257.86-1.68,257.86h64.15s15.33-239.57,12.63-261.45c-2.4-19.55-16.21-52.09-38.78-47.41-22.56,4.68-29.01,22.38-36.34,51Z"/><path class="cls-2" d="M551.04,549.76c14.35,2.71,29.97,35.8,26.97,44.85-5.22,15.77-21.25,49.86-21.74,62.79-2.78,72.68-2.32,126.3-2.32,145.11s-6.79,29.62-19.08,37.14c-12.01,7.34-55.89-13.02-61.55-24.38-5.66-11.36-6-79.57-12.97-130.92-7.59-55.96,9.35-116.18,15.18-134.59h75.52Z"/><path class="cls-2" d="M478.85,1070.42s-8.31-159.4-8.31-229.23c0-11.35-3.68-56.7,9.96-61.35,12.26-4.18,61.73-7.42,70.33,17.38-4.5,60.93-6.89,200.8-8.76,273.21h-63.23Z"/><path class="cls-11" d="M642.99,556.29c-57.81,8.62-115.18,8.82-173,.2l2.2-22.26c55.36,8.25,168.52,0,168.52,0l2.28,22.05Z"/><rect class="cls-1" x="533.92" y="536.31" width="43.04" height="26.9"/><rect class="cls-15" x="530.01" y="262.49" width="56.01" height="65"/><path class="cls-4" d="M530.01,262.49v32.54c17.82,7.08,38.05,7.67,56.01.53v-33.06h-56.01Z"/><path class="cls-15" d="M589.62,315.25c0,10.54-14.32,63.45-31.77,63.45s-31.44-52.91-31.44-63.45,63.21-10.54,63.21,0Z"/><rect class="cls-3" x="490.46" y="400.94" width="40.96" height="8.75"/><path class="cls-9" d="M642.4,530.3c2.37,2.73-1.14,5.7-9.82,7.12-48.34,7.91-105.08,5.28-147.75,1.97-7.93-.61-15.99-3.63-13.8-6.53,4.99-6.59-2.02-81.2.3-107.38-4.55-33.26-15.4-94.92-15.4-94.92,0,0,46.73-15.47,69.96-22.66l32.14,69.46,36.78-70.85c8.61,4.63,45.04,19.46,61.92,23.65.73,33.02-12.15,81.49-12.28,90.14-.19,12.71-8.46,102.63-2.05,110Z"/><path class="cls-16" d="M556.49,406.46c-1.56,0-2.83-1.27-2.83-2.83s1.27-2.83,2.83-2.83,2.83,1.27,2.83,2.83-1.27,2.83-2.83,2.83Z"/><path class="cls-12" d="M558.39,403.63c0,1.05-.85,1.89-1.89,1.89s-1.89-.85-1.89-1.89.85-1.89,1.89-1.89,1.89.85,1.89,1.89Z"/><path class="cls-16" d="M556.49,444.34c-1.56,0-2.83-1.27-2.83-2.83s1.27-2.83,2.83-2.83,2.83,1.27,2.83,2.83-1.27,2.83-2.83,2.83Z"/><path class="cls-12" d="M558.39,441.51c0,1.05-.85,1.89-1.89,1.89s-1.89-.85-1.89-1.89.85-1.89,1.89-1.89,1.89.85,1.89,1.89Z"/><path class="cls-16" d="M556.49,482.22c-1.56,0-2.83-1.27-2.83-2.83s1.27-2.83,2.83-2.83,2.83,1.27,2.83,2.83-1.27,2.83-2.83,2.83Z"/><circle class="cls-12" cx="556.49" cy="479.39" r="1.89"/><path class="cls-16" d="M556.49,520.1c-1.56,0-2.83-1.27-2.83-2.83s1.27-2.83,2.83-2.83,2.83,1.27,2.83,2.83-1.27,2.83-2.83,2.83Z"/><path class="cls-12" d="M558.39,517.27c0,1.05-.85,1.89-1.89,1.89s-1.89-.85-1.89-1.89.85-1.89,1.89-1.89,1.89.85,1.89,1.89Z"/><rect class="cls-12" x="561.66" y="374.63" width="1.29" height="165.84"/><rect class="cls-12" x="551.02" y="374.63" width="1.29" height="165.84"/><path class="cls-12" d="M614.22,471.34h-19.26c-7.28,0-13.2-5.92-13.2-13.2v-28.15c-1.5-1.66-2.48-4.01-2.77-6.63-.32-2.88.16-5.87.54-8.28l.06-.4h50.04l.06.4c.03.22.84,5.53.54,8.28-.24,2.2-.96,4.19-2.07,5.76-.22.32-.47.63-.74.92v28.09c0,7.28-5.92,13.2-13.2,13.2ZM580.39,415.63c-.44,2.82-.74,5.2-.47,7.64.27,2.49,1.22,4.7,2.65,6.23l.13.14v28.51c0,6.76,5.5,12.26,12.26,12.26h19.26c6.76,0,12.26-5.5,12.26-12.26v-28.47l.13-.14c.29-.3.55-.62.79-.95,1.02-1.44,1.68-3.28,1.9-5.32.24-2.21-.29-6.34-.48-7.64h-48.43Z"/><path class="cls-6" d="M604.59,432.25c-1.64,0-2.97-1.33-2.97-2.97s1.33-2.97,2.97-2.97,2.97,1.33,2.97,2.97-1.33,2.97-2.97,2.97Z"/><circle class="cls-12" cx="604.59" cy="429.28" r="1.99"/><path class="cls-12" d="M604.59,435.84l-.12-.03-20.35-5.34c-.25-.07-.4-.32-.33-.57.07-.25.32-.4.57-.33l20.24,5.31,19.47-4.95c.25-.07.51.09.57.34.06.25-.09.51-.34.57l-19.7,5.01Z"/><rect class="cls-12" x="609.31" y="435.36" width=".7" height="35.51"/><rect class="cls-12" x="598.97" y="435.36" width=".7" height="35.51"/><path class="cls-12" d="M558.02,377.36l29.57-28.21-6.21-7.75s2.95,0,8.24,1.33c5.3,1.33,12.18,14.43,12.18,14.43,0,0,.67-33.96,0-42.17s-15.78-15.59-15.78-15.59c0,0,0,8.38,0,10.26s-27.99,67.69-27.99,67.69Z"/><path class="cls-12" d="M558.01,377.36l-29.57-28.21,6.21-7.75s-2.95,0-8.24,1.33-12.18,14.43-12.18,14.43c0,0-.67-33.96,0-42.17s15.78-15.59,15.78-15.59c0,0,0,8.38,0,10.26s27.99,67.69,27.99,67.69Z"/><path class="cls-15" d="M621.99,249.81c6.3-2.08,12.63-4.96,16.25-10.22,3.61-5.26,4.27-12.46.72-17.76-2.31-3.45-6.29-5.89-10.6-6.5-4.31-.61-8.87.63-12.17,3.29,0,0,.34,32.98,5.8,31.18Z"/><path class="cls-14" d="M624.84,221.32s11.01-2.52,11.33,8.95c0,0-3.56-7.64-11.33-8.95Z"/><path class="cls-15" d="M491.16,249.81c-6.3-2.08-12.63-4.96-16.25-10.22-3.61-5.26-4.27-12.46-.72-17.76,2.31-3.45,6.29-5.89,10.6-6.5,4.31-.61,8.87.63,12.17,3.29,0,0-.34,32.98-5.8,31.18Z"/><path class="cls-14" d="M488.31,221.32s-11.01-2.52-11.33,8.95c0,0,3.56-7.64,11.33-8.95Z"/><path class="cls-15" d="M556.28,292.49c18.1.25,29.6-6.82,40.75-14.5,11.51-7.99,22.25-20.52,29.16-36.81,5.5-13.56,7.82-35.93.2-79.68-5.36-30.74-35.56-53.4-61.38-53.77l-20.24-.29c-25.92-.37-55.96,21.68-61.08,52.41-7.16,43-4.29,64.12,1.45,77.46,7.22,16.2,18.27,29.11,29.99,37.77,11.35,8.32,23.03,16.22,41.14,17.4Z"/><path class="cls-10" d="M557.71,99.44c17.37,2.84,33.63,11.61,43.29,25.06,14.27,8.4,28.51,4.91,38.25,17.42,15.23,19.55,1.39,58.5-7.83,78.23-13.82-15.39-18.14-34.97-18.91-54.82-15,18.89-41.82,29.48-67.29,26.47-17.31,10.62-37.63,16.9-59.25,17.59,0,0-5.35,7.4-6.5,10.68-3.6-17.15-10.19-37.84-8.25-55.14,2.8-24.89,20.11-47.51,44.22-59.68,12.79-6.46,27.91-8.16,42.27-5.82Z"/><path class="cls-8" d="M538.85,195.67c13.49-8.4,23.45-22.07,27.55-37.41,1.15-4.31,1.84-8.75,2.03-13.2.07-1.5-2.26-1.56-2.33-.06-.66,15.22-7.41,29.97-18.25,40.64-3.07,3.03-6.46,5.71-10.12,7.99-1.27.79-.16,2.84,1.12,2.04h0Z"/><path class="cls-8" d="M563.68,187.71c14.66-8.47,26.17-21.94,32.53-37.6,1.78-4.39,3.14-8.94,4.05-13.6.29-1.47-1.96-2.09-2.25-.62-3.14,16.13-11.83,30.95-24.2,41.74-3.5,3.05-7.29,5.74-11.31,8.06-1.3.75-.13,2.76,1.18,2.01h0Z"/><path class="cls-8" d="M494.14,207.12c9.79-3.65,18.74-9.3,26.34-16.46,7.58-7.14,13.81-15.77,18.13-25.24,2.45-5.38,4.3-11,5.46-16.8.29-1.46-1.95-2.09-2.25-.62-1.98,9.96-6.03,19.4-11.72,27.8-5.68,8.37-12.99,15.68-21.41,21.29-4.74,3.16-9.84,5.8-15.18,7.79-1.39.52-.79,2.77.62,2.25h0Z"/><path class="cls-8" d="M603.75,141.97c-2.12,8.81-6.82,16.83-13.47,22.99-1.1,1.02.55,2.67,1.65,1.65,6.92-6.41,11.86-14.84,14.07-24.02.35-1.46-1.9-2.08-2.25-.62h0Z"/><path class="cls-10" d="M589.74,122.22c-.83-5.27.2-10.82,2.88-15.43.87-1.5,2.05-3.01,3.74-3.42,3.12-.76,5.8,2.7,6.06,5.9.26,3.2-.9,6.37-.8,9.58,2.31-2.7,4.99-5.27,8.35-6.43,3.36-1.16,7.54-.56,9.75,2.24,3.13,3.97.66,10.26-3.66,12.89-4.31,2.63-9.67,2.63-14.72,2.55l-11.61-7.88Z"/><path class="cls-15" d="M540.97,465.12s-100.09,25.88-144.15,23.51c-17.14-.92-22.51-21.74-15.08-31.43,4.38-5.71,13.92-13.77,27.39-18.4,13.47-4.63,114.06-8.27,134.22-15.47,16.76-4.71,16.18,27.68-2.38,41.79Z"/><path class="cls-15" d="M572.64,464.59s100.09,25.88,144.15,23.51c17.14-.92,22.51-21.74,15.08-31.43-4.38-5.71-13.92-13.77-27.39-18.4-13.47-4.63-114.06-8.27-134.22-15.47-16.76-4.71-16.18,27.68,2.38,41.79Z"/><path class="cls-4" d="M554.48,438.81s1.68-34.24,1.52-36.76-6.96-.5-7.58,4.28c-.62,4.78,1,29.72,6.06,32.48Z"/><path class="cls-4" d="M551.29,428.52s2.97-51.04,5.23-61.85c2.56-12.23-7.28-18.44-8.27-8.59s-8.69,66.37-8.85,68.95c-.16,2.58,8.53,9.73,11.88,1.49Z"/><path class="cls-15" d="M547.7,432.09s.7-55.4,4.16-66.39c2.2-6.99-3.11-15.97-6.45-5.83-1.78,5.4-9.26,41.6-13.68,60.98-3.43,15.05,7.14,32.06,7.04,33.57,0,0,6.01-13.72,8.92-22.33Z"/><path class="cls-15" d="M545.55,465.5c-10.2,3.15-14.79-.53-14.86-12.37-.06-11.84,13.52-73.95,13.65-81.75.13-7.8,10.39-.15,10,6.68-.39,6.83-3.13,33.66-1.24,42.84,1.88,9.18,3.64,41.15-7.54,44.61Z"/><path class="cls-4" d="M556.66,438.81s-1.68-34.24-1.52-36.76c.17-2.52,6.96-.5,7.58,4.28.62,4.78-1,29.72-6.06,32.48Z"/><path class="cls-4" d="M559.86,428.52s-2.97-51.04-5.23-61.85c-2.56-12.23,7.28-18.44,8.27-8.59.99,9.85,8.69,66.37,8.85,68.95.16,2.58-8.53,9.73-11.88,1.49Z"/><path class="cls-15" d="M563.44,432.09s-.7-55.4-4.16-66.39c-2.2-6.99,3.11-15.97,6.45-5.83,1.78,5.4,9.26,41.6,13.68,60.98,3.43,15.05-7.14,32.06-7.04,33.57,0,0-6.01-13.72-8.92-22.33Z"/><path class="cls-15" d="M565.59,465.5c10.2,3.15,14.79-.53,14.86-12.37.06-11.84-13.52-73.95-13.65-81.75-.13-7.8-10.39-.15-10,6.68.39,6.83,3.13,33.66,1.24,42.84-1.88,9.18-3.64,41.15,7.54,44.61Z"/><path class="cls-4" d="M538.88,421.76s-.05,0-.08,0c-.31-.04-.52-.33-.48-.64.06-.38,5.49-38.27,6.66-44.17.94-4.75,2.16-7.27,3.84-7.93.91-.35,1.89-.15,2.94.62,1.54,1.12,2.58,3.25,3.18,4.85.11.29-.04.62-.33.73-.29.11-.62-.04-.73-.33-.55-1.45-1.48-3.38-2.79-4.33-.73-.53-1.34-.69-1.87-.48-.86.34-2.1,1.84-3.15,7.1-1.16,5.87-6.59,43.72-6.65,44.11-.04.28-.28.48-.56.48Z"/><path class="cls-4" d="M572.09,422.48s.05,0,.08,0c.31-.04.52-.33.48-.64-.06-.38-5.49-38.27-6.66-44.17-.94-4.75-2.16-7.27-3.84-7.93-.91-.35-1.89-.15-2.94.62-1.54,1.12-2.58,3.25-3.18,4.85-.11.29.04.62.33.73.29.11.62-.04.73-.33.55-1.45,1.48-3.38,2.79-4.33.73-.53,1.34-.69,1.87-.48.86.34,2.1,1.84,3.15,7.1,1.16,5.87,6.59,43.72,6.65,44.11.04.28.28.48.56.48Z"/></g></svg>