<?xml version="1.0" encoding="UTF-8"?><svg id="Layer_1" xmlns="http://www.w3.org/2000/svg" viewBox="0 0 1080 1080"><defs><style>.cls-1{fill:#afb2a8;}.cls-1,.cls-2{opacity:.2;}.cls-1,.cls-2,.cls-3,.cls-4,.cls-5,.cls-6,.cls-7,.cls-8{stroke-width:0px;}.cls-9{font-family:Poppins-Light, Poppins;font-size:64.52px;font-weight:300;letter-spacing:.5em;}.cls-9,.cls-10{fill:#c16b6b;}.cls-2{fill:#565656;}.cls-11{letter-spacing:.05em;}.cls-3{fill:#fc6d5d;}.cls-10{font-family:Poppins-Black, Poppins;font-size:90.42px;font-weight:800;}.cls-4{fill:#ed5f54;}.cls-5{fill:#d5d8ce;}.cls-6{fill:#abafa0;}.cls-12{letter-spacing:.05em;}.cls-7{fill:#fafcf5;}.cls-8{fill:#000;opacity:.1;}</style></defs><text class="cls-10" transform="translate(179.86 893)"><tspan class="cls-12"><tspan x="0" y="0">REKOMENDASI</tspan></tspan><tspan class="cls-11"><tspan x="106.15" y="108.5">STATISTIK</tspan></tspan></text><text class="cls-9" transform="translate(301.65 787.19)"><tspan x="0" y="0">LAYANAN</tspan></text><path class="cls-6" d="M726.81,179.05v476.23h-362.84V179.05c0-6.51,5.28-11.78,11.8-11.78h339.25c6.51,0,11.8,5.27,11.8,11.78Z"/><rect class="cls-7" x="386.41" y="226.31" width="317.97" height="48.75"/><path class="cls-5" d="M443.47,268.41h-35.45v-35.45h35.45v35.45ZM410.96,265.48h29.58v-29.58h-29.58v29.58Z"/><rect class="cls-5" x="454.52" y="234.41" width="224.82" height="7.2"/><rect class="cls-5" x="454.52" y="247.08" width="185.16" height="7.2"/><rect class="cls-5" x="454.52" y="259.76" width="164.02" height="7.2"/><rect class="cls-7" x="386.41" y="362.84" width="317.97" height="48.75"/><path class="cls-5" d="M443.47,404.94h-35.45v-35.45h35.45v35.45ZM410.96,402h29.58v-29.58h-29.58v29.58Z"/><rect class="cls-5" x="454.52" y="370.93" width="224.82" height="7.2"/><rect class="cls-5" x="454.52" y="383.61" width="185.16" height="7.2"/><rect class="cls-5" x="454.52" y="396.29" width="164.02" height="7.2"/><rect class="cls-7" x="386.41" y="564.33" width="317.97" height="48.75"/><path class="cls-5" d="M443.47,606.43h-35.45v-35.45h35.45v35.45ZM410.96,603.49h29.58v-29.58h-29.58v29.58Z"/><rect class="cls-5" x="454.52" y="572.42" width="224.82" height="7.2"/><rect class="cls-5" x="454.52" y="585.1" width="185.16" height="7.2"/><rect class="cls-5" x="454.52" y="597.78" width="164.02" height="7.2"/><rect class="cls-7" x="386.41" y="430" width="317.97" height="48.75"/><path class="cls-5" d="M443.47,472.1h-35.45v-35.45h35.45v35.45ZM410.96,469.17h29.58v-29.58h-29.58v29.58Z"/><rect class="cls-5" x="454.52" y="438.1" width="224.82" height="7.2"/><rect class="cls-5" x="454.52" y="450.78" width="185.16" height="7.2"/><rect class="cls-5" x="454.52" y="463.46" width="164.02" height="7.2"/><rect class="cls-7" x="386.41" y="497.16" width="317.97" height="48.75"/><path class="cls-5" d="M443.47,539.26h-35.45v-35.45h35.45v35.45ZM410.96,536.33h29.58v-29.58h-29.58v29.58Z"/><rect class="cls-5" x="454.52" y="505.26" width="224.82" height="7.2"/><rect class="cls-5" x="454.52" y="517.94" width="185.16" height="7.2"/><rect class="cls-5" x="454.52" y="530.62" width="164.02" height="7.2"/><rect class="cls-1" x="380.58" y="302.33" width="317.97" height="48.75"/><rect class="cls-7" x="386.41" y="295.68" width="317.97" height="48.75"/><path class="cls-5" d="M443.47,337.78h-35.45v-35.45h35.45v35.45ZM410.96,334.84h29.58v-29.58h-29.58v29.58Z"/><rect class="cls-5" x="454.52" y="303.77" width="224.82" height="7.2"/><rect class="cls-5" x="454.52" y="316.45" width="119.68" height="7.2"/><rect class="cls-5" x="454.52" y="329.13" width="164.02" height="7.2"/><polygon class="cls-8" points="399.2 311.42 425 339.5 459.23 292.11 451.15 286.67 424.38 328.53 406.74 305.1 399.2 311.42"/><polygon class="cls-3" points="399.2 309.14 425 337.23 459.23 289.84 451.15 284.4 424.38 326.26 406.74 302.83 399.2 309.14"/><path class="cls-2" d="M479.16,167.27v51.67l-23.82-19.86h-93.1l1.73-20.03c0-6.51,5.28-11.78,11.8-11.78h103.39Z"/><path class="cls-2" d="M726.81,179.36v39.58h-94.23v-51.67h82.43c6.51,0,11.8,5.41,11.8,12.09Z"/><polygon class="cls-3" points="475.85 188.51 273.81 188.51 273.81 90.58 475.85 90.58 475.85 175.96 475.85 188.51"/><polygon class="cls-3" points="475.85 209.64 458.49 188.51 475.85 188.51 475.85 209.64"/><rect class="cls-4" x="279.8" y="103.98" width="176.17" height="78.68"/><rect class="cls-7" x="285.17" y="98.95" width="176.17" height="78.68"/><polygon class="cls-3" points="806.19 212.56 638.83 212.56 638.83 131.44 806.19 131.44 806.19 202.16 806.19 212.56"/><rect class="cls-4" x="643.79" y="142.54" width="145.93" height="65.17"/><rect class="cls-7" x="648.24" y="138.38" width="145.93" height="65.17"/><rect class="cls-2" x="363.97" y="526.28" width="58.17" height="19.63"/><polygon class="cls-3" points="425.75 531.8 291.95 531.8 291.95 466.95 425.75 466.95 425.75 523.48 425.75 531.8"/><rect class="cls-4" x="295.92" y="475.82" width="116.66" height="52.1"/><rect class="cls-7" x="299.48" y="472.49" width="116.66" height="52.1"/></svg>