<?xml version="1.0" encoding="UTF-8"?><svg id="Layer_1" xmlns="http://www.w3.org/2000/svg" xmlns:xlink="http://www.w3.org/1999/xlink" viewBox="0 0 1080 1080"><defs><style>.cls-1{fill:url(#linear-gradient-3);}.cls-1,.cls-2,.cls-3,.cls-4,.cls-5,.cls-6,.cls-7,.cls-8,.cls-9,.cls-10,.cls-11,.cls-12,.cls-13,.cls-14,.cls-15,.cls-16,.cls-17,.cls-18,.cls-19,.cls-20,.cls-21,.cls-22,.cls-23,.cls-24,.cls-25,.cls-26,.cls-27,.cls-28{stroke-width:0px;}.cls-1,.cls-7,.cls-19{opacity:.7;}.cls-2{fill:#e48920;}.cls-3{fill:url(#linear-gradient-9);}.cls-3,.cls-8{opacity:.6;}.cls-4{fill:url(#linear-gradient-6);}.cls-29{font-family:Poppins-Light, Poppins;font-size:64.52px;font-weight:300;letter-spacing:.5em;}.cls-29,.cls-30{fill:#c16b6b;}.cls-5{fill:#5ba0f0;}.cls-30{font-family:Poppins-Black, Poppins;font-size:90.42px;font-weight:800;letter-spacing:.05em;}.cls-6{fill:url(#linear-gradient-11);}.cls-6,.cls-11,.cls-22{opacity:.2;}.cls-7{fill:url(#linear-gradient);}.cls-8{fill:url(#linear-gradient-12);}.cls-9{fill:#5a9efb;}.cls-10{fill:url(#linear-gradient-13);}.cls-11{fill:url(#linear-gradient-7);}.cls-12{fill:#59711b;}.cls-13{fill:#da6529;}.cls-14{fill:url(#linear-gradient-8);opacity:.3;}.cls-15{fill:url(#linear-gradient-4);}.cls-15,.cls-23{opacity:.5;}.cls-16{fill:#9aba2c;}.cls-17{fill:#d2f1fd;}.cls-18{fill:#fff;opacity:.4;}.cls-19{fill:url(#linear-gradient-2);}.cls-20{fill:#f5dcc4;}.cls-21{fill:#f3f3f3;}.cls-22{fill:url(#linear-gradient-14);}.cls-23{fill:url(#linear-gradient-5);}.cls-24{fill:#ecf6d9;}.cls-25{fill:#a2b52b;}.cls-26{fill:url(#linear-gradient-10);}.cls-27{fill:#3a6695;}.cls-28{fill:#884e12;}</style><linearGradient id="linear-gradient" x1="269.74" y1="191.53" x2="262.87" y2="191.53" gradientTransform="translate(672) rotate(-180) scale(1 -1)" gradientUnits="userSpaceOnUse"><stop offset="0" stop-color="#a93b0d"/><stop offset="1" stop-color="#851602"/></linearGradient><linearGradient id="linear-gradient-2" y1="215.06" y2="215.06" xlink:href="#linear-gradient"/><linearGradient id="linear-gradient-3" y1="241.16" y2="241.16" xlink:href="#linear-gradient"/><linearGradient id="linear-gradient-4" x1="432.64" y1="500.31" x2="392.75" y2="531.82" gradientTransform="translate(50.57 -41.94) rotate(6.07)" gradientUnits="userSpaceOnUse"><stop offset="0" stop-color="#92410f"/><stop offset="1" stop-color="#3e0000"/></linearGradient><linearGradient id="linear-gradient-5" x1="517.55" y1="538.39" x2="477.67" y2="569.89" xlink:href="#linear-gradient-4"/><linearGradient id="linear-gradient-6" x1="449.88" y1="215.49" x2="469.85" y2="238.3" gradientTransform="translate(-4.1 -53.05) rotate(3.66) skewX(3.49)" gradientUnits="userSpaceOnUse"><stop offset="0" stop-color="#fff"/><stop offset="1" stop-color="#b3b3b3"/></linearGradient><linearGradient id="linear-gradient-7" x1="451.5" y1="285.81" x2="461.34" y2="187.96" gradientTransform="translate(-4.1 -53.05) rotate(3.66) skewX(3.49)" gradientUnits="userSpaceOnUse"><stop offset="0" stop-color="#fff"/><stop offset=".3" stop-color="#fefefc"/><stop offset=".46" stop-color="#fcfef4"/><stop offset=".59" stop-color="#f9fce7"/><stop offset=".7" stop-color="#f5fad3"/><stop offset=".8" stop-color="#f0f8ba"/><stop offset=".89" stop-color="#e9f59c"/><stop offset=".97" stop-color="#e1f278"/><stop offset="1" stop-color="#dff16b"/></linearGradient><linearGradient id="linear-gradient-8" x1="340.77" y1="408.2" x2="433.24" y2="408.2" gradientTransform="translate(-4.1 -53.05) rotate(3.66) skewX(3.49)" gradientUnits="userSpaceOnUse"><stop offset="0" stop-color="#a7c32e"/><stop offset=".02" stop-color="#b0c945"/><stop offset=".05" stop-color="#c5d776"/><stop offset=".08" stop-color="#d7e3a0"/><stop offset=".11" stop-color="#e5edc2"/><stop offset=".14" stop-color="#f0f5dd"/><stop offset=".17" stop-color="#f8faef"/><stop offset=".21" stop-color="#fdfdfb"/><stop offset=".24" stop-color="#fff"/><stop offset="1" stop-color="#444d12"/></linearGradient><linearGradient id="linear-gradient-9" x1="475.22" y1="420.25" x2="638.55" y2="304.96" gradientTransform="translate(-4.1 -12.75) rotate(1.06) skewX(.94)" gradientUnits="userSpaceOnUse"><stop offset="0" stop-color="#80d0fc"/><stop offset=".18" stop-color="#7ccaf9"/><stop offset=".41" stop-color="#71baf1"/><stop offset=".66" stop-color="#60a1e5"/><stop offset=".93" stop-color="#477dd3"/><stop offset="1" stop-color="#4173cf"/></linearGradient><linearGradient id="linear-gradient-10" x1="533.96" y1="235.9" x2="553.92" y2="258.71" gradientTransform="translate(-4.1 -12.75) rotate(1.06) skewX(.94)" xlink:href="#linear-gradient-6"/><linearGradient id="linear-gradient-11" x1="535.57" y1="306.2" x2="545.41" y2="208.35" gradientTransform="translate(-4.1 -12.75) rotate(1.06) skewX(.94)" gradientUnits="userSpaceOnUse"><stop offset="0" stop-color="#fff"/><stop offset=".29" stop-color="#fcfdfe"/><stop offset=".45" stop-color="#f4f7fe"/><stop offset=".57" stop-color="#e7edfe"/><stop offset=".68" stop-color="#d3dffd"/><stop offset=".78" stop-color="#bacdfc"/><stop offset=".87" stop-color="#9cb7fb"/><stop offset=".95" stop-color="#789dfa"/><stop offset="1" stop-color="#5e8bfa"/></linearGradient><linearGradient id="linear-gradient-12" x1="556.71" y1="456.55" x2="720.01" y2="341.28" gradientUnits="userSpaceOnUse"><stop offset="0" stop-color="#e3862e"/><stop offset=".33" stop-color="#dd822a"/><stop offset=".74" stop-color="#cd7821"/><stop offset="1" stop-color="#c06f1a"/></linearGradient><linearGradient id="linear-gradient-13" x1="615.5" y1="272.4" x2="635.46" y2="295.21" gradientTransform="matrix(1,0,0,1,0,0)" xlink:href="#linear-gradient-6"/><linearGradient id="linear-gradient-14" x1="617.11" y1="342.71" x2="626.95" y2="244.88" gradientUnits="userSpaceOnUse"><stop offset="0" stop-color="#fff"/><stop offset=".26" stop-color="#fefdfc"/><stop offset=".4" stop-color="#fcf7f4"/><stop offset=".51" stop-color="#f8ede7"/><stop offset=".61" stop-color="#f2e0d3"/><stop offset=".7" stop-color="#ebceba"/><stop offset=".78" stop-color="#e3b89b"/><stop offset=".85" stop-color="#d89d77"/><stop offset=".92" stop-color="#cc7f4c"/><stop offset=".99" stop-color="#bf5e1d"/><stop offset="1" stop-color="#bd5714"/></linearGradient></defs><polygon class="cls-7" points="408.68 195.7 408.68 187.36 401.57 191.62 408.68 195.7"/><polygon class="cls-19" points="408.68 219.24 408.68 210.89 401.57 215.15 408.68 219.24"/><polygon class="cls-1" points="408.68 245.33 408.68 236.98 401.57 241.24 408.68 245.33"/><path class="cls-15" d="M383.55,531.42s-.36,8.17,63.5-.14l-40.14-58.81-23.37,58.95"/><path class="cls-23" d="M463.97,578.26s-.36,8.18,63.5-.14l-40.12-58.81-23.38,58.95"/><path class="cls-16" d="M338.24,219.62c-.08,39.82,49.53,50.65,77.47,34.06,27.94-16.59,159.91-93.94,159.91-93.94l-.42,271.68s-131.02,77.95-159.92,93.92c-28.47,15.75-77.54,5.76-77.46-34.06l.42-271.67Z"/><path class="cls-24" d="M338.24,219.62c-.08,39.82,49.53,50.65,77.47,34.06,27.94-16.59,159.91-93.94,159.91-93.94l-6.98-5.03s-124.16,71.73-158.34,90.96c-14.71,8.27-33.07,8.26-48.03-.38-15.34-8.86-19.75-28.52-11.05-33.28,28.91-15.86,168.9-90.92,168.9-90.92l-7.19-4.63s-149.86,79.78-167.68,89.82c-6.44,3.63-7,13.33-7,13.33Z"/><path class="cls-12" d="M350.22,233.02c-4.77-8.59-4.62-17.91,1.01-21,28.91-15.86,168.9-90.92,168.9-90.92v8.5s-.06,23.97-.06,23.97l-13.01-13.63s-140.14,77.12-146.94,80.78c-11.71,6.35-9.9,12.3-9.9,12.3Z"/><path class="cls-21" d="M558.28,160.95s-113.8,65.49-147.98,84.73c-14.71,8.27-33.07,8.26-48.03-.38-5.41-3.13-9.46-7.6-12.06-12.28h0s-1.81-5.95,9.9-12.3c6.79-3.66,156.18-85.98,156.18-85.98,0,0-8.05,8.21,7.09,18.15,15.11,9.96,34.9,8.06,34.9,8.06Z"/><path class="cls-4" d="M558.28,160.95s-113.8,65.49-147.98,84.73c-14.71,8.27-33.07,8.26-48.03-.38-5.41-3.13-9.46-7.6-12.06-12.28h0s-1.81-5.95,9.9-12.3c6.79-3.66,156.18-85.98,156.18-85.98,0,0-8.05,8.21,7.09,18.15,15.11,9.96,34.9,8.06,34.9,8.06Z"/><path class="cls-11" d="M338.24,219.62c-.08,39.82,49.53,50.65,77.47,34.06,27.94-16.59,159.91-93.94,159.91-93.94l-6.98-5.03s-124.16,71.73-158.34,90.96c-14.71,8.27-33.07,8.26-48.03-.38-15.34-8.86-19.75-28.52-11.05-33.28,28.91-15.86,168.9-90.92,168.9-90.92l-7.19-4.63s-149.86,79.78-167.68,89.82c-6.44,3.63-7,13.33-7,13.33Z"/><path class="cls-25" d="M430.69,516.6c-6.69,3.88-11.65,6.68-15.4,8.75-28.47,15.75-77.54,5.76-77.46-34.06l.42-271.67c-.08,39.82,49.53,50.65,77.47,34.06,3.6-2.13,8.92-5.27,15.45-9.11l-.47,272.03Z"/><path class="cls-14" d="M430.69,516.6c-6.69,3.88-11.65,6.68-15.4,8.75-28.47,15.75-77.54,5.76-77.46-34.06l.42-271.67c-.08,39.82,49.53,50.65,77.47,34.06,3.6-2.13,8.92-5.27,15.45-9.11l-.47,272.03Z"/><path class="cls-5" d="M422.8,266.22c-.08,39.82,49.52,48.41,77.47,30.54,27.94-17.85,159.89-101.18,159.89-101.18l-.4,273.53s-131.03,83.9-159.9,101.19c-28.48,17.04-77.55,9.27-77.48-30.56l.43-273.53Z"/><path class="cls-3" d="M422.8,266.22c-.08,39.82,49.52,48.41,77.47,30.54,27.94-17.85,159.89-101.18,159.89-101.18l-.4,273.53s-131.03,83.9-159.9,101.19c-28.48,17.04-77.55,9.27-77.48-30.56l.43-273.53Z"/><path class="cls-17" d="M422.8,266.22c-.08,39.82,49.52,48.41,77.47,30.54,27.94-17.85,159.89-101.18,159.89-101.18l-6.95-4.76s-124.18,77.38-158.35,98.17c-14.7,8.96-33.08,9.77-48.04,1.81-15.33-8.18-19.73-27.63-11.05-32.79,28.94-17.16,168.91-98.58,168.91-98.58l-7.2-4.33s-149.85,86.59-167.68,97.45c-6.44,3.91-7,13.65-7,13.65Z"/><path class="cls-27" d="M434.76,279.07c-4.76-8.38-4.61-17.69,1-21.05,28.94-17.16,168.91-98.58,168.91-98.58l-.02,8.48-.05,23.97-12.99-13.03s-140.16,83.49-146.95,87.47c-11.72,6.89-9.91,12.74-9.91,12.74Z"/><path class="cls-21" d="M642.83,197.56s-113.8,70.65-147.97,91.44c-14.7,8.96-33.08,9.77-48.04,1.81-5.39-2.88-9.45-7.17-12.05-11.74h0s-1.81-5.85,9.91-12.74c6.79-3.98,156.19-93.1,156.19-93.1,0,0-8.06,8.59,7.06,17.85,15.12,9.24,34.9,6.47,34.9,6.47Z"/><path class="cls-26" d="M642.83,197.56s-113.8,70.65-147.97,91.44c-14.7,8.96-33.08,9.77-48.04,1.81-5.39-2.88-9.45-7.17-12.05-11.74h0s-1.81-5.85,9.91-12.74c6.79-3.98,156.19-93.1,156.19-93.1,0,0-8.06,8.59,7.06,17.85,15.12,9.24,34.9,6.47,34.9,6.47Z"/><path class="cls-6" d="M422.8,266.22c-.08,39.82,49.52,48.41,77.47,30.54,27.94-17.85,159.89-101.18,159.89-101.18l-6.95-4.76s-124.18,77.38-158.35,98.17c-14.7,8.96-33.08,9.77-48.04,1.81-15.33-8.18-19.73-27.63-11.05-32.79,28.94-17.16,168.91-98.58,168.91-98.58l-7.2-4.33s-149.85,86.59-167.68,97.45c-6.44,3.91-7,13.65-7,13.65Z"/><path class="cls-9" d="M515.24,560.86c-6.7,4.17-11.63,7.19-15.4,9.45-28.48,17.04-77.55,9.27-77.48-30.56l.43-273.53c-.08,39.82,49.52,48.41,77.47,30.54,3.59-2.31,8.91-5.68,15.45-9.82l-.47,273.91Z"/><path class="cls-2" d="M506.39,309.19c0,40.07,49.31,47.79,77.04,29.29,27.75-18.48,158.74-104.79,158.74-104.79v274.83s-130.05,86.86-158.74,104.81c-28.27,17.67-77.04,10.78-77.04-29.29v-274.85Z"/><path class="cls-8" d="M506.39,309.19c0,40.07,49.31,47.79,77.04,29.29,27.75-18.48,158.74-104.79,158.74-104.79v274.83s-130.05,86.86-158.74,104.81c-28.27,17.67-77.04,10.78-77.04-29.29v-274.85Z"/><path class="cls-20" d="M506.39,309.19c0,40.07,49.31,47.79,77.04,29.29,27.75-18.48,158.74-104.79,158.74-104.79l-6.93-4.63s-123.28,80.18-157.2,101.74c-14.6,9.26-32.85,10.42-47.73,2.69-15.26-7.92-19.68-27.43-11.05-32.77,28.71-17.82,167.67-102.33,167.67-102.33l-7.15-4.19s-148.78,89.9-166.47,101.15c-6.4,4.07-6.93,13.86-6.93,13.86Z"/><path class="cls-28" d="M518.3,321.9c-4.75-8.33-4.62-17.72.97-21.19,28.71-17.82,167.67-102.33,167.67-102.33v32.66l-12.93-12.87s-139.14,86.6-145.87,90.74c-11.64,7.14-9.83,13-9.83,13Z"/><path class="cls-21" d="M724.95,236s-112.98,73.24-146.91,94.79c-14.6,9.26-32.85,10.42-47.73,2.69-5.39-2.78-9.41-7.03-12.02-11.58h0s-1.81-5.85,9.83-13c6.74-4.14,155.06-96.56,155.06-96.56,0,0-7.99,8.77,7.06,17.8,15.03,9.04,34.71,5.86,34.71,5.86Z"/><path class="cls-10" d="M724.95,236s-112.98,73.24-146.91,94.79c-14.6,9.26-32.85,10.42-47.73,2.69-5.39-2.78-9.41-7.03-12.02-11.58h0s-1.81-5.85,9.83-13c6.74-4.14,155.06-96.56,155.06-96.56,0,0-7.99,8.77,7.06,17.8,15.03,9.04,34.71,5.86,34.71,5.86Z"/><path class="cls-22" d="M506.39,309.19c0,40.07,49.31,47.79,77.04,29.29,27.75-18.48,158.74-104.79,158.74-104.79l-6.93-4.63s-123.28,80.18-157.2,101.74c-14.6,9.26-32.85,10.42-47.73,2.69-15.26-7.92-19.68-27.43-11.05-32.77,28.71-17.82,167.67-102.33,167.67-102.33l-7.15-4.19s-148.78,89.9-166.47,101.15c-6.4,4.07-6.93,13.86-6.93,13.86Z"/><path class="cls-13" d="M598.73,603.52c-6.65,4.31-11.56,7.46-15.3,9.8-28.27,17.67-77.04,10.78-77.04-29.29v-274.85c0,40.07,49.31,47.79,77.04,29.29,3.57-2.37,8.85-5.87,15.33-10.18l-.03,275.23Z"/><path class="cls-18" d="M523.88,599.42c0,1.96-1.58,2.64-3.54,1.53h0c-1.95-1.13-3.55-3.63-3.55-5.57v-246.66c0-1.96,1.6-2.63,3.55-1.51h0c1.95,1.13,3.54,3.61,3.54,5.57v246.64Z"/><path class="cls-18" d="M438.82,555.53c0,1.94-1.58,2.62-3.54,1.51h0c-1.96-1.11-3.54-3.61-3.54-5.57v-246.66c0-1.96,1.58-2.64,3.54-1.51h0c1.96,1.11,3.54,3.61,3.54,5.57v246.66Z"/><path class="cls-18" d="M353.77,510.25c0,1.96-1.58,2.63-3.54,1.51h0c-1.96-1.13-3.54-3.59-3.54-5.58v-246.63c0-1.96,1.58-2.64,3.54-1.53h0c1.96,1.13,3.54,3.61,3.54,5.57v246.66Z"/><text class="cls-30" transform="translate(140.58 880.32)"><tspan x="0" y="0">PERPUSTAKAAN</tspan></text><text class="cls-29" transform="translate(301.65 774.51)"><tspan x="0" y="0">LAYANAN</tspan></text></svg>